TexturaLiberaEx-Bold.sfdir
StartChar: parenright
Encoding: 41 41 9
Width: 300
Flags: W
HStem: -214 21G<5 47.8571>
VStem: 176 128<138.779 405.628>
LayerCount: 2
Back
SplineSet
60 700 m 17
 60 700 240 575 240 275 c 0
 240 -25 60 -150 60 -150 c 1033
EndSplineSet
Fore
SplineSet
-4 665 m 1
 95 764 l 1
 95 764 108 755 127 736 c 2
 156 707 l 2
 208 655 304 529 304 310 c 0
 304 91 208 -35 156 -87 c 2
 57 -186 l 2
 38 -205 25 -214 25 -214 c 2
 -4 -185 l 1
 60 -121 l 1
 111 -56 176 61 176 240 c 0
 176 440 95 563 42 622 c 0
 31 631 25 636 25 636 c 1
 -4 665 l 1
EndSplineSet
EndChar
StartChar: plus
Encoding: 43 43 11
Width: 720
Flags: W
HStem: 236 128<155 296 424 565> 544 20G<375 415>
VStem: 296 128<135 236 364 465>
LayerCount: 2
Back
SplineSet
360 500 m 25
 360 100 l 1049
120 300 m 25
 600 300 l 1049
EndSplineSet
Fore
SplineSet
56 265 m 1
 155 364 l 1
 296 364 l 1
 296 465 l 1
 395 564 l 1
 424 535 l 1
 424 364 l 1
 635 364 l 1
 664 335 l 1
 565 236 l 1
 424 236 l 1
 424 135 l 1
 325 36 l 1
 296 65 l 1
 296 236 l 1
 85 236 l 1
 56 265 l 1
EndSplineSet
EndChar
StartChar: comma
Encoding: 44 44 12
Width: 360
Flags: W
VStem: 41 248
LayerCount: 2
Back
SplineSet
145 80 m 25
 225 0 l 1
 225 -80 l 25
 105 -200 l 1049
EndSplineSet
Fore
SplineSet
81 45 m 1
 180 144 l 1
 289 35 l 1
 289 -45 l 1
 70 -264 l 1
 41 -235 l 1
 161 -115 l 1
 161 -35 l 1
 81 45 l 1
EndSplineSet
EndChar
StartChar: slash
Encoding: 47 47 15
Width: 600
Flags: W
HStem: -214 21G<5 45>
LayerCount: 2
Back
SplineSet
60 -150 m 25
 540 700 l 1049
EndSplineSet
Fore
SplineSet
25 -214 m 1
 -4 -185 l 1
 476 665 l 1
 575 764 l 1
 604 735 l 1
 124 -115 l 1
 25 -214 l 1
EndSplineSet
EndChar
StartChar: three
Encoding: 51 51 19
Width: 480
Flags: W
HStem: -214 128<131.5 217.388> 444 20G<191 311> 444 20G<191 311>
VStem: 296 128<-105 84.438>
LayerCount: 2
Back
SplineSet
120 350 m 1
 180 400 l 1
 240 400 l 1
 330 350 l 1
 330 270 l 1
 210 150 l 1049
90 -200 m 25
 67 -220 140 -150 180 -150 c 27
 231 -150 300 -200 300 -200 c 9
 360 -140 l 1
 360 85 l 9
 270 175 l 1049
EndSplineSet
Fore
SplineSet
58 -261 m 2xd0
 55 -264 l 2
 51 -268 l 1
 22 -239 l 2
 22 -238 l 2
 121 -139 l 2
 126 -134 182 -86 215 -86 c 0
 241 -86 273 -100 296 -112 c 1
 296 50 l 2
 296 83 253 93 235 111 c 2
 217 129 l 1
 175 86 l 1
 146 115 l 1
 266 235 l 1
 266 302 l 1
 205 336 l 1
 145 336 l 1
 85 286 l 1
 56 315 l 1
 155 414 l 1
 215 464 l 1
 275 464 l 1
 365 414 l 1
 394 385 l 1
 394 305 l 1
 316 228 l 1
 424 120 l 1
 424 -105 l 1
 265 -264 l 1
 265 -264 196 -214 145 -214 c 0
 118 -214 75 -246 58 -261 c 2xd0
EndSplineSet
Substitution2: "Subscript forms-1" three.inferior
Substitution2: "Superscript forms-1" three.superior
EndChar
StartChar: four
Encoding: 52 52 20
Width: 480
Flags: W
HStem: -214 21G<315 355> -64 128<395.581 452> -39 128<186.771 266> 444 20G<255 313.4 361 385> 444 20G<255 313.4 361 385>
VStem: 56 128<79 165> 266 128<-65 -53 89 314>
LayerCount: 2
Back
SplineSet
290 -70 m 25
 370 -150 l 1049
330 -110 m 1
 330 400 l 1
 330 400 307 375 288 375 c 27
 268 375 240 400 240 400 c 1
 120 200 l 1
 120 0 l 1
 120 0 137 25 240 25 c 3
 403 25 479 0 480 0 c 1025
EndSplineSet
Fore
SplineSet
184 79 m 1xa6
 201 84 227 88 266 89 c 1
 266 314 l 1
 262 312 257 311 253 311 c 0
 247 311 239 314 233 317 c 1
 184 235 l 1
 184 79 l 1xa6
394 84 m 1
 399 84 405 83 410 82 c 0
 481 75 514 64 515 64 c 2
 544 35 l 1
 445 -64 l 2xd6
 445 -64 428 -59 394 -53 c 1
 394 -75 l 1
 434 -115 l 1
 335 -214 l 1
 295 -174 l 1
 266 -145 l 1
 226 -105 l 1
 266 -65 l 1
 266 -40 l 1
 247 -39 227 -39 205 -39 c 0xa6
 123 -39 96 -54 88 -61 c 2
 85 -64 l 1
 56 -35 l 1
 56 165 l 1
 176 365 l 1
 275 464 l 1
 275 464 303 439 323 439 c 0
 337 439 353 453 361 460 c 2
 365 464 l 1xd6
 394 435 l 1
 394 84 l 1
EndSplineSet
Substitution2: "Subscript forms-1" four.inferior
Substitution2: "Superscript forms-1" four.superior
EndChar
StartChar: five
Encoding: 53 53 21
Width: 480
Flags: W
HStem: -214 128<95 205> 286 128<218.608 322> 444 20G<135 215 359 415> 444 20G<135 215 359 415>
VStem: 56 128<201 295> 296 128<-45 20>
LayerCount: 2
Back
SplineSet
360 400 m 17
 360 400 304 350 270 350 c 0
 217 350 120 400 120 400 c 1
 120 125 l 1
 240 175 l 1
 360 55 l 1
 360 -80 l 17
 240 -200 l 1
 240 -200 190 -150 150 -150 c 24
 110 -150 60 -200 60 -200 c 1025
EndSplineSet
Fore
SplineSet
424 435 m 1xec
 325 336 l 1
 325 336 269 286 235 286 c 0
 221 286 202 290 184 295 c 1
 184 201 l 1
 275 239 l 1
 424 90 l 1
 424 -45 l 1
 205 -264 l 1
 205 -264 155 -214 115 -214 c 0
 75 -214 25 -264 25 -264 c 1
 -4 -235 l 1
 95 -136 l 1
 95 -136 145 -86 185 -86 c 0
 225 -86 275 -136 275 -136 c 1
 296 -115 l 1
 296 20 l 1
 205 111 l 1
 85 61 l 1
 56 90 l 1
 56 365 l 1
 155 464 l 1
 155 464 252 414 305 414 c 0
 339 414 395 464 395 464 c 1
 424 435 l 1xec
EndSplineSet
Substitution2: "Subscript forms-1" five.inferior
Substitution2: "Superscript forms-1" five.superior
EndChar
StartChar: seven
Encoding: 55 55 23
Width: 480
Flags: W
HStem: 286 128<183.959 338.367> 444 20G<105 197 395 475> 444 20G<105 197 395 475>
VStem: 176 129<-75 67.4844> 188 116<-74.375 67.4844>
LayerCount: 2
Back
SplineSet
200 -80 m 25
 280 -160 l 1049
90 400 m 1
 90 400 164 350 270 350 c 3
 335 350 420 400 420 400 c 1
 420 400 240 276 240 0 c 3
 240 -32 240 -120 241.400390624 -120 c 1025
120 125 m 25
 120 125 176 150 210 150 c 24
 263 150 247 125 300 125 c 24
 334 125 390 150 391 150 c 1049
EndSplineSet
Fore
SplineSet
56 90 m 1xc8
 155 189 l 1
 155 189 199 209 233 213 c 1
 249 245 267 271 284 293 c 1
 268 289 251 286 235 286 c 0
 129 286 55 336 55 336 c 1
 26 365 l 1
 125 464 l 1
 125 464 199 414 305 414 c 0
 370 414 455 464 455 464 c 1
 484 435 l 1
 412 363 l 1
 380 323 346 265 325 189 c 1
 328 189 331 189 335 189 c 0
 369 189 425 214 426 214 c 2
 455 185 l 1
 356 86 l 2
 355 86 331 75 305 68 c 1xd0
 304 57 304 46 304 35 c 0xc8
 304 3 304 -82 305 -85 c 2
 305 -86 l 1
 344 -125 l 1
 245 -224 l 1
 136 -115 l 1
 176 -75 l 1
 176 -59 176 -45 176 -35 c 0xd0
 176 9 180 49 188 85 c 1
 184 85 180 86 175 86 c 0
 141 86 85 61 85 61 c 1
 56 90 l 1xc8
EndSplineSet
Substitution2: "Subscript forms-1" seven.inferior
Substitution2: "Superscript forms-1" seven.superior
EndChar
StartChar: eight
Encoding: 56 56 24
Width: 480
Flags: W
HStem: 644 20G<255 295>
VStem: 56 128<111.793 170 434 445> 296 128<155 216 480 488.207>
LayerCount: 2
Back
SplineSet
240 600 m 25
 120 480 l 25
 120 385 l 25
 240 325 l 25
 360 445 l 25
 360 480 l 25
 240 600 l 25
240 325 m 25
 120 205 l 25
 120 120 l 25
 240 0 l 25
 360 120 l 25
 360 265 l 25
 240 325 l 25
EndSplineSet
Fore
SplineSet
205 536 m 1
 184 515 l 1
 184 434 l 1
 275 389 l 2
 275 389 294 408 296 410 c 2
 296 445 l 2
 296 494 232 509 205 536 c 1
56 445 m 1
 275 664 l 1
 424 515 l 1
 424 480 l 1
 314 370 l 1
 395 329 l 1
 424 300 l 1
 424 155 l 1
 205 -64 l 1
 56 85 l 1
 56 170 l 1
 166 280 l 1
 85 321 l 1
 56 350 l 1
 56 445 l 1
205 261 m 1
 184 240 l 1
 184 155 l 2
 184 106 248 91 275 64 c 1
 296 85 l 1
 296 216 l 1
 205 261 l 1
EndSplineSet
Substitution2: "Subscript forms-1" eight.inferior
Substitution2: "Superscript forms-1" eight.superior
EndChar
StartChar: colon
Encoding: 58 58 26
Width: 360
Flags: W
VStem: 76 208
LayerCount: 2
Back
SplineSet
140 360 m 25
 220 280 l 1049
140 80 m 25
 220 0 l 1049
EndSplineSet
Fore
SplineSet
76 45 m 1
 175 144 l 1
 284 35 l 1
 185 -64 l 1
 76 45 l 1
76 325 m 1
 175 424 l 1
 284 315 l 1
 185 216 l 1
 76 325 l 1
EndSplineSet
EndChar
StartChar: less
Encoding: 60 60 28
Width: 720
Flags: W
HStem: 544 20G<587 655>
LayerCount: 2
Back
SplineSet
600 500 m 25
 120 300 l 25
 600 100 l 1049
EndSplineSet
Fore
SplineSet
664 535 m 1
 565 436 l 1
 274 315 l 1
 635 164 l 1
 664 135 l 1
 565 36 l 1
 85 236 l 1
 56 265 l 1
 155 364 l 1
 635 564 l 1
 664 535 l 1
EndSplineSet
EndChar
StartChar: greater
Encoding: 62 62 30
Width: 720
Flags: W
HStem: 544 20G<135 203>
LayerCount: 2
Back
SplineSet
120 500 m 25
 600 300 l 25
 120 100 l 1049
EndSplineSet
Fore
SplineSet
56 465 m 1
 155 564 l 1
 635 364 l 1
 664 335 l 1
 565 236 l 1
 85 36 l 1
 56 65 l 1
 155 164 l 1
 446 285 l 1
 85 436 l 1
 56 465 l 1
EndSplineSet
EndChar
StartChar: at
Encoding: 64 64 32
Width: 960
Flags: W
HStem: -214 128<396.044 587.545> 469 20G<495 535 615 655> 536 128<438.977 619.207>
VStem: 56 128<135.475 306.5> 296 128<115.562 270> 536 128<140 326> 776 128<281.6 392.643>
LayerCount: 2
Back
SplineSet
780 -50 m 1
 780 -50 660 -150 480 -150 c 11
 280 -150 120 25 120 225 c 27
 120 442 323 600 540 600 c 27
 697 600 840 482 840 325 c 27
 840 216 690 85 690 85 c 26
 630 25 l 1
 600 55 l 1
 600 425 l 1
 600 425 574 377 540 377 c 0
 506 377 480 425 480 425 c 9
 360 305 l 1
 360 115 l 17
 450 25 l 1
 600 175 l 1049
EndSplineSet
Fore
SplineSet
536 326 m 1
 527 319 516 313 505 313 c 0
 490 313 476 323 466 333 c 2
 441 358 l 1
 424 340 l 1
 424 150 l 2
 424 117 467 107 485 89 c 1
 536 140 l 1
 536 326 l 1
536 82 m 1
 415 -39 l 1
 296 80 l 1
 296 270 l 1
 515 489 l 1
 544 460 l 1
 544 460 546 455 551 448 c 0
 558 444 567 441 575 441 c 0
 580 441 584 442 590 444 c 2
 635 489 l 1
 664 460 l 1
 664 90 l 1
 665 89 l 1
 676 100 l 2
 720 148 776 223 776 290 c 0
 776 355 752 413 712 459 c 1
 657 507 582 536 505 536 c 0
 411 536 319 506 245 454 c 1
 207 399 184 333 184 260 c 0
 184 163 221 73 282 5 c 1
 344 -51 426 -86 515 -86 c 0
 695 -86 815 14 815 14 c 1
 844 -15 l 1
 745 -114 l 1
 745 -114 625 -214 445 -214 c 0
 349 -214 261 -173 197 -109 c 2
 168 -80 l 2
 99 -11 56 86 56 190 c 0
 56 287 97 373 162 438 c 2
 261 537 l 2
 340 616 455 664 575 664 c 0
 660 664 741 629 797 573 c 2
 826 544 l 1
 874 496 904 432 904 360 c 0
 904 279 822 187 779 144 c 2
 680 45 l 2
 665 30 655 21 655 21 c 2
 638 6 613 -21 595 -39 c 1
 536 20 l 1
 536 82 l 1
EndSplineSet
EndChar
StartChar: E
Encoding: 69 69 37
Width: 900
Flags: W
HStem: -64 128<381.805 446 503 548.708> 486 128<612 708.5> 644 20G<369.699 415 545 596 766 806>
VStem: 86 128<216.403 365.204> 340 40<102 441 541 551> 446 128<135 274 387 465>
AnchorPoint: "blwmark" 480 0 basechar 0
AnchorPoint: "abvmark" 540 700 basechar 0
LayerCount: 2
Back
SplineSet
510 300 m 25
 510 300 566 350 600 350 c 27
 642 350 618 300 660 300 c 3
 709 300 750 350 751 350 c 1049
360 550 m 1
 360 100 l 1025
510 500 m 1
 510 100 l 1025
360 600 m 1
 360 600 150 480 150 300 c 3
 150 134 264 0 480 0 c 3
 623 0 781 150 782 150 c 1025
360 492 m 1
 360 492 474 600 546 600 c 3
 623 600 590 550 660 550 c 3
 718 550 750 600 751 600 c 1025
EndSplineSet
Fore
SplineSet
517 536 m 2
 515 536 513 536 511 536 c 0
 472 536 419 503 380 474 c 1
 380 85 l 1
 400 78 423 72 446 69 c 1
 446 265 l 1
 446 465 l 1
 517 536 l 2
503 64 m 2
 507 64 511 64 515 64 c 0
 658 64 816 214 817 214 c 2
 846 185 l 1
 747 86 l 2
 746 86 588 -64 445 -64 c 0
 336 -64 253 -29 197 26 c 0
 168 55 l 2
 114 109 86 183 86 265 c 0
 86 354 137 429 190 482 c 0
 191 482 l 2
 290 581 l 2
 342 633 395 664 395 664 c 1
 424 635 l 1
 380 592 l 1
 380 541 l 1
 395 556 l 1
 395 556 509 664 581 664 c 0
 611 664 624 656 633 647 c 2
 659 621 l 2
 667 617 678 614 695 614 c 0
 722 614 743 625 758 636 c 2
 786 664 l 2
 815 635 l 2
 813 633 810 628 802 620 c 2
 801 619 l 2
 702 520 l 2
 687 505 661 486 625 486 c 0
 599 486 587 493 579 501 c 2
 574 506 l 1
 574 387 l 1
 593 400 617 414 635 414 c 0
 645 414 651 411 655 407 c 2
 684 378 l 2
 685 378 l 2
 689 374 691 368 693 364 c 0
 694 364 694 364 695 364 c 0
 729 364 759 388 774 402 c 2
 785 413 l 2
 785 414 l 0
 786 414 l 2
 815 385 l 1
 812 382 l 2
 811 381 810 381 809 379 c 2
 808 378 l 2
 709 279 l 2
 695 265 663 236 625 236 c 0
 615 236 609 239 605 243 c 2
 576 272 l 2
 575 273 574 273 574 274 c 2
 574 135 l 1
 503 64 l 2
340 551 m 1
 325 536 l 1
 325 536 304 523 275 501 c 1
 241 455 214 399 214 335 c 0
 214 260 237 192 282 140 c 0
 299 125 319 113 340 102 c 1
 340 441 l 1
 331 433 325 428 325 428 c 1
 296 457 l 1
 340 500 l 1
 340 551 l 1
EndSplineSet
EndChar
StartChar: M
Encoding: 77 77 45
Width: 1080
Flags: W
HStem: -64 21G<5 40 281 315 605 645 875 915> -14 128<130.592 219.251> 486 21G<5 43> 536 128<100 188.11>
VStem: 220 40<114 512> 326 128<95 497> 536 128<95 455.214> 806 128<95 465.26>
AnchorPoint: "blwmark" 540 0 basechar 0
AnchorPoint: "abvmark" 600 700 basechar 0
LayerCount: 2
Back
SplineSet
990 60 m 25
 930 0 l 17
 870 60 l 1
 870 450 l 1
 720 600 l 1
 600 480 l 1025
60 550 m 1
 60 550 101 600 149 600 c 3
 192 600 214 575 240 575 c 3
 274 575 300 600 301 600 c 1025
240 550 m 1
 240 75 l 1025
720 60 m 25
 660 0 l 17
 600 60 l 1
 600 450 l 1
 450 600 l 1
 390 540 l 1
 390 60 l 1
 330 0 l 1
 330 0 298 50 180 50 c 3
 97 50 60 0 60 0 c 1033
EndSplineSet
Fore
SplineSet
755 124 m 1
 784 95 l 1
 625 -64 l 1
 536 25 l 1
 536 415 l 2
 536 459 478 473 454 497 c 1
 454 95 l 1
 295 -64 l 1
 281 -50 l 2
 262 -35 222 -14 145 -14 c 0
 92 -14 58 -34 40 -49 c 2
 25 -64 l 1
 -4 -35 l 2
 -4 -35 -2 -32 2 -28 c 2
 3 -28 l 2
 102 71 l 2
 116 85 152 114 215 114 c 0
 217 114 219 114 220 114 c 2
 220 512 l 1
 215 511 210 511 205 511 c 0
 179 511 157 536 114 536 c 0
 86 536 60 518 43 504 c 2
 25 486 l 1
 -4 515 l 1
 -4 515 0 519 5 524 c 2
 104 623 l 2
 118 637 149 664 184 664 c 0
 227 664 249 639 275 639 c 0
 309 639 335 664 336 664 c 2
 365 635 l 1
 266 536 l 2
 266 536 263 534 260 532 c 2
 260 111 l 1
 288 107 310 100 326 93 c 1
 326 505 l 1
 485 664 l 1
 620 529 l 1
 755 664 l 1
 934 485 l 1
 934 95 l 1
 965 64 l 1
 1025 124 l 1
 1054 95 l 1
 895 -64 l 1
 806 25 l 1
 806 415 l 2
 806 481 720 501 685 536 c 1
 649 500 l 1
 664 485 l 1
 664 95 l 1
 695 64 l 1
 755 124 l 1
EndSplineSet
EndChar
StartChar: N
Encoding: 78 78 46
Width: 900
Flags: W
HStem: -64 21G<5 40 281 315 665 705> -14 128<130.592 219.251> 486 21G<5 43> 536 128<100 188.11>
VStem: 220 40<114 512> 326 128<95 505> 596 128<70.7805 407>
AnchorPoint: "blwmark" 480 0 basechar 0
AnchorPoint: "abvmark" 480 700 basechar 0
LayerCount: 2
Back
SplineSet
60 550 m 1
 60 550 101 600 149 600 c 3
 192 600 214 575 240 575 c 3
 274 575 300 600 301 600 c 1025
240 550 m 1
 240 75 l 1025
60 0 m 17
 60 0 97 50 180 50 c 3
 298 50 330 0 330 0 c 1
 390 60 l 1
 390 540 l 1
 450 600 l 1
 660 450 l 1
 660 60 l 1
 720 0 l 9
 780 60 l 1049
EndSplineSet
Fore
SplineSet
25 -64 m 1
 -4 -35 l 1
 -4 -35 -1 -32 3 -28 c 2
 102 71 l 2
 116 85 152 114 215 114 c 0
 217 114 219 114 220 114 c 2
 220 512 l 1
 215 511 210 511 205 511 c 0
 179 511 157 536 114 536 c 0
 86 536 60 518 43 504 c 2
 25 486 l 1
 -4 515 l 1
 -4 515 0 519 5 524 c 2
 104 623 l 2
 118 637 149 664 184 664 c 0
 227 664 249 639 275 639 c 0
 309 639 335 664 336 664 c 2
 365 635 l 1
 266 536 l 2
 266 536 263 534 260 532 c 2
 260 111 l 1
 289 107 311 100 326 93 c 1
 326 505 l 1
 485 664 l 1
 695 514 l 1
 724 485 l 1
 724 95 l 2
 724 79 746 73 755 64 c 1
 815 124 l 1
 844 95 l 1
 685 -64 l 1
 596 25 l 1
 596 407 l 1
 454 508 l 1
 454 95 l 1
 295 -64 l 1
 281 -50 l 2
 262 -35 222 -14 145 -14 c 0
 92 -14 58 -34 40 -49 c 2
 25 -64 l 1
EndSplineSet
EndChar
StartChar: O
Encoding: 79 79 47
Width: 960
Flags: W
HStem: -64 128<381.805 446 503 519> 644 20G<369.699 415 543 606.5>
VStem: 86 128<216.403 365.204> 340 40<102 443 546 551> 446 128<135 515> 720 128<232.542 407.993>
AnchorPoint: "blwmark" 480 0 basechar 0
AnchorPoint: "abvmark" 540 700 basechar 0
LayerCount: 2
Back
SplineSet
360 550 m 1
 360 100 l 1025
512 550 m 1
 510 100 l 1025
360 600 m 1
 360 600 150 480 150 300 c 3
 150 134 264 0 480 0 c 3
 623 0 784 142 784 300 c 3
 784 512 673 600 540 600 c 3
 436 600 360 492 360 492 c 1025
EndSplineSet
Fore
SplineSet
463 530 m 1
 435 522 410 509 390 494 c 2
 380 484 l 1
 380 85 l 1
 400 78 423 72 446 69 c 1
 448 515 l 1
 463 530 l 1
503 64 m 2
 507 64 511 64 515 64 c 0
 568 64 624 84 672 116 c 1
 702 161 720 212 720 265 c 0
 720 365 695 438 655 486 c 1
 631 505 605 519 576 527 c 1
 574 135 l 1
 503 64 l 2
340 551 m 1
 325 536 l 1
 325 536 304 523 275 501 c 1
 241 455 214 399 214 335 c 0
 214 260 237 192 282 140 c 0
 299 125 319 113 340 102 c 1
 340 443 l 1
 325 428 l 1
 296 457 l 1
 296 457 307 473 326 492 c 2
 340 505 l 1
 340 551 l 1
380 592 m 1
 380 546 l 1
 425 591 l 2
 457 623 511 664 575 664 c 0
 638 664 696 645 740 601 c 2
 769 571 l 2
 817 523 848 446 848 335 c 0
 848 259 812 187 757 132 c 2
 756 132 l 1
 657 33 l 2
 598 -26 519 -64 445 -64 c 0
 336 -64 253 -29 197 26 c 0
 168 55 l 2
 114 109 86 183 86 265 c 0
 86 354 137 429 190 482 c 0
 191 482 l 2
 290 581 l 2
 342 633 395 664 395 664 c 1
 424 635 l 1
 380 592 l 1
EndSplineSet
EndChar
StartChar: S
Encoding: 83 83 51
Width: 840
Flags: W
HStem: -14 128<153.126 394.11> 486 128<410.791 627.59> 644 20G<251 395 683 775>
VStem: 656 128<135 205>
AnchorPoint: "blwmark" 420 0 basechar 0
AnchorPoint: "abvmark" 420 700 basechar 0
LayerCount: 2
Back
SplineSet
660 525 m 25
 148 100 l 1049
520 149 m 1
 100 270 l 9
 180 375 l 1049
720 600 m 1
 720 600 617 550 540 550 c 3
 455 550 240 600 240 600 c 1
 120 500 l 1
 120 440 l 1
 720 260 l 1
 720 100 l 1
 600 0 l 1
 600 0 324 50 240 50 c 3
 152 50 60 0 60 0 c 1025
EndSplineSet
Fore
SplineSet
724 560 m 1
 625 461 l 1
 538 389 l 1
 755 324 l 1
 784 295 l 1
 784 135 l 1
 685 36 l 1
 565 -64 l 1
 565 -64 289 -14 205 -14 c 0
 117 -14 25 -64 25 -64 c 1
 -4 -35 l 1
 90 59 l 1
 84 65 l 1
 183 164 l 1
 190 170 l 1
 65 206 l 1
 36 235 l 1
 116 340 l 1
 137 361 l 1
 85 376 l 1
 56 405 l 1
 56 465 l 1
 155 564 l 1
 275 664 l 1
 275 664 490 614 575 614 c 0
 652 614 755 664 755 664 c 1
 784 635 l 1
 716 568 l 1
 724 560 l 1
193 344 m 1
 177 322 l 1
 323 280 l 1
 345 298 l 1
 193 344 l 1
453 94 m 1
 253 152 l 1
 192 102 l 1
 218 109 247 114 275 114 c 0
 311 114 383 105 453 94 c 1
489 89 m 1
 568 77 635 64 635 64 c 2
 656 81 l 1
 656 205 l 1
 406 280 l 1
 385 262 l 1
 555 213 l 1
 584 184 l 1
 489 89 l 1
587 499 m 1
 560 491 531 486 505 486 c 0
 420 486 205 536 205 536 c 1
 184 519 l 1
 184 495 l 1
 476 408 l 1
 587 499 l 1
EndSplineSet
EndChar
StartChar: U
Encoding: 85 85 53
Width: 840
Flags: W
HStem: -64 130<353.141 414.003> 486 21G<5 43> 516 123<296 310 350 416> 536 128<100 270.622>
VStem: 86 128<169.971 345.608> 310 40<93 513> 416 128<135 511> 656 128<124.391 183 187 540>
AnchorPoint: "blwmark" 420 0 basechar 0
AnchorPoint: "abvmark" 540 700 basechar 0
LayerCount: 2
Back
SplineSet
480 550 m 1
 480 100 l 1025
690 60 m 25
 750 0 l 25
 810 60 l 1049
690 625 m 25
 750 565 l 1049
720 595 m 9
 720 30 l 1049
300 550 m 1
 300 550 150 466 150 250 c 3
 150 84 257 0 420 0 c 3
 563 0 721 150 722 150 c 1049
60 550 m 1
 60 550 101 600 149 600 c 3
 245 600 274 575 480 575 c 3
 514 575 540 600 541 600 c 1025
330 525 m 1
 330 50 l 1025
EndSplineSet
Fore
SplineSet
25 486 m 1xdf
 -4 515 l 1
 -4 515 0 519 5 524 c 2
 104 623 l 2
 118 637 149 664 184 664 c 0xdf
 280 664 309 639 515 639 c 0xef
 549 639 575 664 576 664 c 2
 605 635 l 1
 544 574 l 1
 544 135 l 1
 474 65 l 1
 538 71 604 103 656 137 c 1
 656 550 l 1
 616 590 l 1
 715 689 l 1
 755 649 l 1
 784 620 l 1
 824 580 l 1
 784 540 l 1
 784 187 l 1
 786 185 l 1
 784 183 l 1
 784 75 l 1
 795 64 l 1
 875 144 l 1
 904 115 l 1
 725 -64 l 1
 685 -24 l 1
 656 5 l 1
 625 36 l 1
 566 -8 473 -64 385 -64 c 0
 298 -64 227 -40 180 7 c 2
 151 36 l 2
 109 78 86 137 86 215 c 0
 86 349 144 432 188 476 c 2
 235 524 l 1
 192 530 161 536 114 536 c 0
 86 536 60 518 43 504 c 2
 25 486 l 1xdf
350 513 m 1
 350 78 l 1
 370 72 393 68 416 66 c 1
 416 511 l 1
 392 511 369 512 350 513 c 1
310 516 m 1xef
 305 516 300 517 296 517 c 2
 274 495 l 1
 242 446 214 378 214 285 c 0
 214 217 233 161 265 121 c 0
 278 110 294 101 310 93 c 1
 310 516 l 1xef
EndSplineSet
EndChar
StartChar: Y
Encoding: 89 89 57
Width: 840
Flags: W
HStem: -214 128<142.321 459.487> -64 21G<395 435> 86 128<260 309.15> 486 21G<5 43> 536 128<100 188.11>
VStem: 220 40<214 512> 326 128<285 505> 626 128<-45 147 205 515>
AnchorPoint: "abvmark" 540 700 basechar 0
LayerCount: 2
Back
SplineSet
60 550 m 1
 60 550 101 600 149 600 c 3
 192 600 214 575 240 575 c 3
 274 575 300 600 301 600 c 1025
240 550 m 1
 240 175 l 1025
390 250 m 1
 390 540 l 1
 450 600 l 1025
120 100 m 17
 120 100 166 150 210 150 c 3
 449 150 450 0 450 0 c 1
 690 240 l 1025
60 -200 m 17
 60 -200 79 -150 300 -150 c 3
 494 -150 570 -200 570 -200 c 9
 690 -80 l 1
 690 570 l 1025
660 600 m 25
 720 540 l 1049
EndSplineSet
Fore
SplineSet
586 565 m 1
 685 664 l 1
 725 624 l 1
 754 595 l 1
 794 555 l 1
 754 515 l 1
 754 275 l 1
 754 -45 l 1
 535 -264 l 1
 535 -264 459 -214 265 -214 c 0
 117 -214 60 -236 38 -251 c 1
 25 -264 l 1
 -4 -235 l 1
 -4 -235 -3 -233 1 -229 c 2
 100 -130 l 2
 113 -117 162 -86 335 -86 c 0
 529 -86 605 -136 605 -136 c 2
 605 -136 624 -117 626 -115 c 2
 626 147 l 1
 415 -64 l 1
 386 -35 l 2
 386 -35 386 0 358 37 c 1
 324 64 266 86 175 86 c 0
 141 86 107 57 92 43 c 2
 85 36 l 1
 56 65 l 1
 56 65 57 66 59 68 c 2
 158 167 l 2
 167 176 192 199 220 209 c 1
 220 512 l 1
 215 511 210 511 205 511 c 0
 179 511 157 536 114 536 c 0
 86 536 60 518 43 504 c 2
 25 486 l 1
 -4 515 l 1
 -4 515 0 519 5 524 c 2
 104 623 l 2
 118 637 149 664 184 664 c 0
 227 664 249 639 275 639 c 0
 309 639 335 664 336 664 c 2
 365 635 l 1
 266 536 l 2
 266 536 263 534 260 532 c 2
 260 214 l 1
 289 213 314 210 336 205 c 1
 326 215 l 1
 326 505 l 1
 485 664 l 1
 514 635 l 1
 454 575 l 1
 454 285 l 1
 366 197 l 1
 401 185 427 168 444 151 c 2
 473 122 l 2
 487 108 496 94 502 81 c 1
 626 205 l 1
 626 525 l 1
 586 565 l 1
EndSplineSet
EndChar
StartChar: Z
Encoding: 90 90 58
Width: 840
Flags: W
HStem: -14 128<165.875 491.366> 236 128<447.078 577.814> 261 128<262.186 387.25> 486 128<293.958 613.726> 644 20G<135 323 717 775>
AnchorPoint: "blwmark" 360 0 basechar 0
AnchorPoint: "abvmark" 420 700 basechar 0
LayerCount: 2
Back
SplineSet
180 275 m 25
 180 275 247 325 300 325 c 27
 395 325 445 300 540 300 c 27
 593 300 660 350 660 350 c 1049
750 120 m 1
 630 0 l 1
 630 0 538 50 240 50 c 3
 152 50 60 0 60 0 c 1
 720 600 l 1
 720 600 617 550 540 550 c 3
 288 550 120 600 120 600 c 1025
EndSplineSet
Fore
SplineSet
569 495 m 1xb8
 548 490 525 486 505 486 c 0
 253 486 85 536 85 536 c 1
 56 565 l 1
 155 664 l 1
 155 664 323 614 575 614 c 0
 623 614 680 633 717 648 c 0
 740 657 755 664 755 664 c 1
 784 635 l 1
 685 536 l 1
 501 369 l 1
 523 366 547 364 575 364 c 0
 628 364 695 414 695 414 c 1
 724 385 l 1
 625 286 l 1
 625 286 558 236 505 236 c 0xd8
 452 236 412 244 371 251 c 1
 213 107 l 1
 233 111 254 114 275 114 c 0
 573 114 665 64 665 64 c 1
 785 184 l 1
 814 155 l 1
 595 -64 l 1
 595 -64 503 -14 205 -14 c 0
 152 -14 97 -33 62 -47 c 0
 39 -56 25 -64 25 -64 c 1
 -4 -35 l 1
 95 64 l 1
 310 259 l 1
 296 260 281 261 265 261 c 0
 212 261 145 211 145 211 c 1
 116 240 l 1
 215 339 l 1
 215 339 282 389 335 389 c 0
 377 389 409 384 441 379 c 1
 569 495 l 1xb8
EndSplineSet
EndChar
StartChar: asciicircum
Encoding: 94 94 62
Width: 720
Flags: W
HStem: 644 20G<375 415>
LayerCount: 2
Back
SplineSet
120 300 m 25
 360 600 l 25
 600 300 l 1049
EndSplineSet
Fore
SplineSet
85 236 m 1
 56 265 l 1
 296 565 l 1
 395 664 l 1
 424 635 l 1
 664 335 l 1
 565 236 l 1
 536 265 l 1
 332 520 l 1
 184 335 l 1
 85 236 l 1
EndSplineSet
EndChar
StartChar: c
Encoding: 99 99 67
Width: 420
Flags: W
HStem: 444 20G<255 295> 444 20G<255 295>
VStem: 56 128<111.793 245>
AnchorPoint: "blwmark" 240 0 basechar 0
AnchorPoint: "abvmark" 240 500 basechar 0
LayerCount: 2
Back
SplineSet
360 280 m 9
 240 400 l 25
 120 280 l 25
 120 120 l 25
 240 0 l 25
 360 120 l 1041
EndSplineSet
Fore
SplineSet
424 315 m 1xa0
 325 216 l 1
 205 336 l 1
 184 315 l 1
 184 155 l 2
 184 106 248 91 275 64 c 1
 395 184 l 1
 424 155 l 1
 205 -64 l 1
 56 85 l 1
 56 245 l 1
 275 464 l 1
 424 315 l 1xa0
EndSplineSet
EndChar
StartChar: e
Encoding: 101 101 69
Width: 420
Flags: W
HStem: 444 20G<255 305> 444 20G<255 305>
VStem: 56 128<173 245>
AnchorPoint: "blwmark" 240 0 basechar 0
AnchorPoint: "abvmark" 240 500 basechar 0
LayerCount: 2
Back
SplineSet
360 120 m 9
 240 0 l 25
 120 80 l 25
 120 280 l 25
 240 400 l 25
 360 320 l 1
 120 80 l 1025
EndSplineSet
Fore
SplineSet
184 173 m 1x20
 290 279 l 1
 205 336 l 1
 184 315 l 1
 184 173 l 1x20
190 121 m 1
 275 64 l 1
 395 184 l 1
 424 155 l 1
 205 -64 l 1
 85 16 l 1
 56 45 l 1
 56 245 l 1
 275 464 l 1xa0
 395 384 l 1
 424 355 l 1
 190 121 l 1
EndSplineSet
EndChar
StartChar: f
Encoding: 102 102 70
Width: 360
Flags: W
HStem: -214 128<-111 -14> 526 21G<310 339> 586 68<391.109 416>
VStem: 86 128<-115 336 464 495>
AnchorPoint: "abvmark" 210 700 basechar 0
LayerCount: 2
Back
SplineSet
-150 -200 m 17
 -150 -200 -106 -150 -60 -150 c 8
 -35 -150 33 -200 60 -200 c 24
 86 -200 150 -150 150 -150 c 1
 150 530 l 1
 270 650 l 17
 270 650 300 590 360 590 c 24
 388 590 450 650 451 650 c 1033
60 400 m 25
 300 400 l 1049
EndSplineSet
Fore
SplineSet
-185 -264 m 1
 -214 -235 l 1
 -214 -235 -212 -232 -209 -229 c 2
 -110 -130 l 2
 -97 -117 -61 -86 -25 -86 c 0
 -3 -86 56 -127 86 -135 c 1
 86 336 l 1
 25 336 l 1
 -4 365 l 1
 86 455 l 1
 86 495 l 1
 305 714 l 1
 334 685 l 1
 334 685 337 679 343 671 c 0
 357 661 374 654 395 654 c 0
 423 654 485 714 486 714 c 2
 515 685 l 1
 416 586 l 2
 415 586 353 526 325 526 c 0
 295 526 273 541 258 556 c 0
 257 556 l 2
 231 582 l 1
 214 565 l 1
 214 464 l 1
 335 464 l 1
 364 435 l 1
 265 336 l 1
 214 336 l 1
 214 -115 l 1
 115 -214 l 1
 115 -214 51 -264 25 -264 c 0
 -2 -264 -70 -214 -95 -214 c 0
 -127 -214 -157 -238 -174 -253 c 2
 -185 -264 l 1
EndSplineSet
EndChar
StartChar: g
Encoding: 103 103 71
Width: 480
Flags: W
HStem: -214 128<99 196> 444 20G<255 295 375 415> 444 20G<255 295 375 415>
VStem: 56 128<111.793 245> 296 128<-115 27 85 300>
AnchorPoint: "abvmark" 270 500 basechar 0
LayerCount: 2
Back
SplineSet
60 -200 m 17
 60 -200 104 -150 150 -150 c 8
 175 -150 243 -200 270 -200 c 24
 296 -200 360 -150 360 -150 c 9
 360 400 l 1
 360 400 336 352 300 352 c 24
 264 352 240 400 240 400 c 1
 120 280 l 25
 120 120 l 25
 240 0 l 25
 360 120 l 1041
EndSplineSet
Fore
SplineSet
296 300 m 1x98
 287 293 277 288 265 288 c 0
 250 288 236 297 226 307 c 2
 201 332 l 1
 184 315 l 1
 184 155 l 2
 184 106 248 91 275 64 c 1
 296 85 l 1
 296 300 l 1x98
296 27 m 1
 205 -64 l 1
 56 85 l 1
 56 245 l 1
 275 464 l 1
 304 435 l 1
 304 435 306 430 311 423 c 0
 318 419 326 416 335 416 c 0
 340 416 345 417 350 419 c 2
 395 464 l 1xd8
 424 435 l 1
 424 -115 l 1
 325 -214 l 1
 325 -214 261 -264 235 -264 c 0
 208 -264 140 -214 115 -214 c 0
 83 -214 53 -238 36 -253 c 2
 25 -264 l 1
 -4 -235 l 1
 -4 -235 -2 -232 1 -229 c 2
 100 -130 l 2
 113 -117 149 -86 185 -86 c 0
 207 -86 266 -127 296 -135 c 1
 296 27 l 1
EndSplineSet
EndChar
StartChar: i
Encoding: 105 105 73
Width: 240
Flags: W
HStem: 444 20G<95 135> 444 20G<95 135>
VStem: 56 128<85 315>
AnchorPoint: "blwmark" 120 0 basechar 0
LayerCount: 2
Back
SplineSet
110 680 m 25
 190 600 l 25
 110 520 l 1049
80 80 m 25
 160 0 l 25
 240 80 l 1049
160 320 m 25
 80 400 l 25
 0 320 l 1049
120 360 m 9
 120 40 l 1025
EndSplineSet
Fore
SplineSet
46 645 m 1x20
 145 744 l 1
 254 635 l 1
 75 456 l 1
 46 485 l 1
 126 565 l 1
 46 645 l 1x20
184 395 m 1
 224 355 l 1
 184 315 l 1
 184 75 l 1
 195 64 l 1
 275 144 l 1
 304 115 l 1
 125 -64 l 1
 85 -24 l 1
 56 5 l 1
 16 45 l 1
 56 85 l 1
 56 325 l 1
 45 336 l 1
 -35 256 l 1
 -64 285 l 1
 115 464 l 1xa0
 155 424 l 1
 184 395 l 1
EndSplineSet
Substitution2: "Dotless forms-1" dotlessi
EndChar
StartChar: l
Encoding: 108 108 76
Width: 240
Flags: W
HStem: 679 20G<95 135>
VStem: 56 128<85 550>
AnchorPoint: "blwmark" 120 0 basechar 0
AnchorPoint: "abvmark" 120 700 basechar 0
LayerCount: 2
Back
SplineSet
80 80 m 25
 160 0 l 25
 240 80 l 1049
80 635 m 25
 160 555 l 1049
120 595 m 9
 120 40 l 1049
EndSplineSet
Fore
SplineSet
16 600 m 1
 115 699 l 1
 155 659 l 1
 184 630 l 1
 224 590 l 1
 184 550 l 1
 184 75 l 1
 195 64 l 1
 275 144 l 1
 304 115 l 1
 125 -64 l 1
 85 -24 l 1
 56 5 l 1
 16 45 l 1
 56 85 l 1
 56 560 l 1
 16 600 l 1
EndSplineSet
EndChar
StartChar: m
Encoding: 109 109 77
Width: 720
Flags: W
HStem: 444 20G<95 135 285 325 525 565> 444 20G<95 135 285 325 525 565>
VStem: 56 128<85 285> 296 128<85 285> 536 128<85 309.438>
CounterMasks: 1 38
AnchorPoint: "blwmark" 360 0 basechar 0
AnchorPoint: "abvmark" 360 500 basechar 0
LayerCount: 2
Back
SplineSet
560 80 m 25
 640 0 l 1049
600 40 m 1
 600 310 l 25
 510 400 l 1
 360 250 l 1049
320 80 m 25
 400 0 l 1049
360 40 m 1
 360 310 l 25
 270 400 l 1
 120 250 l 1049
80 80 m 25
 160 0 l 1049
160 320 m 25
 80 400 l 1049
120 360 m 9
 120 40 l 1025
EndSplineSet
Fore
SplineSet
565 -24 m 1xb8
 536 5 l 1
 496 45 l 1
 536 85 l 1
 536 275 l 2
 536 308 493 318 475 336 c 1
 424 285 l 1
 424 75 l 1
 464 35 l 1
 365 -64 l 1
 325 -24 l 1
 296 5 l 1
 256 45 l 1
 296 85 l 1
 296 215 l 1
 296 275 l 2
 296 308 253 318 235 336 c 1
 184 285 l 1
 184 75 l 1
 224 35 l 1
 125 -64 l 1
 85 -24 l 1
 56 5 l 1
 16 45 l 1
 56 85 l 1
 56 215 l 1
 56 325 l 1
 16 365 l 1
 115 464 l 1
 155 424 l 1
 184 395 l 1
 210 369 l 1
 305 464 l 1
 424 345 l 1
 424 343 l 1
 545 464 l 1
 664 345 l 1
 664 75 l 1
 704 35 l 1
 605 -64 l 1
 565 -24 l 1xb8
EndSplineSet
Substitution2: "Stylistic alternates-1" m.alt
EndChar
StartChar: n
Encoding: 110 110 78
Width: 480
Flags: W
HStem: 444 20G<95 135 285 325> 444 20G<95 135 285 325>
VStem: 56 128<85 285> 296 128<85 309.438>
AnchorPoint: "blwmark" 240 0 basechar 0
AnchorPoint: "abvmark" 240 500 basechar 0
LayerCount: 2
Back
SplineSet
320 80 m 25
 400 0 l 1049
360 40 m 1
 360 310 l 25
 270 400 l 1
 120 250 l 1049
80 80 m 25
 160 0 l 1049
160 320 m 25
 80 400 l 1049
120 360 m 9
 120 40 l 1025
EndSplineSet
Fore
SplineSet
184 395 m 1xb0
 210 369 l 1
 305 464 l 1
 424 345 l 1
 424 75 l 1
 464 35 l 1
 365 -64 l 1
 325 -24 l 1
 296 5 l 1
 256 45 l 1
 296 85 l 1
 296 275 l 2
 296 308 253 318 235 336 c 1
 184 285 l 1
 184 75 l 1
 224 35 l 1
 125 -64 l 1
 85 -24 l 1
 56 5 l 1
 16 45 l 1
 56 85 l 1
 56 215 l 1
 56 325 l 1
 16 365 l 1
 115 464 l 1
 155 424 l 1
 184 395 l 1xb0
EndSplineSet
Substitution2: "Stylistic alternates-1" n.alt
EndChar
StartChar: p
Encoding: 112 112 80
Width: 480
Flags: W
HStem: -214 21G<65 105> 444 20G<95 135 255 295> 444 20G<95 135 255 295>
VStem: 56 128<-115 -43 124 315> 296 128<155 288.207>
AnchorPoint: "abvmark" 240 500 basechar 0
LayerCount: 2
Back
SplineSet
60 0 m 1
 60 0 115 60 150 60 c 0
 185 60 240 0 240 0 c 9
 360 120 l 1
 360 280 l 25
 240 400 l 1
 120 280 l 1049
80 400 m 25
 160 320 l 1049
120 360 m 1
 120 -150 l 1025
EndSplineSet
Fore
SplineSet
155 424 m 1xd8
 184 395 l 1
 195 384 l 1
 275 464 l 1
 424 315 l 1
 424 155 l 1
 205 -64 l 1
 189 -48 l 2
 187 -46 186 -45 184 -43 c 2
 184 -115 l 1
 85 -214 l 1
 56 -185 l 1
 56 -35 l 1
 50 -40 46 -44 41 -48 c 2
 25 -64 l 1
 -4 -35 l 1
 -4 -35 -2 -32 3 -27 c 2
 56 25 l 1
 56 245 l 1
 56 325 l 1
 16 365 l 1
 115 464 l 1
 155 424 l 1xd8
184 315 m 1
 184 124 l 2
 185 124 l 0
 212 124 252 88 268 72 c 2
 275 64 l 1
 296 85 l 1
 296 245 l 2
 296 294 232 309 205 336 c 1
 184 315 l 1
EndSplineSet
EndChar
StartChar: r
Encoding: 114 114 82
Width: 360
Flags: W
HStem: 444 20G<95 135 255 295> 444 20G<95 135 255 295>
VStem: 56 128<85 315>
AnchorPoint: "blwmark" 180 0 basechar 0
AnchorPoint: "abvmark" 180 500 basechar 0
LayerCount: 2
Back
SplineSet
300 340 m 25
 240 400 l 25
 120 280 l 1049
80 80 m 25
 160 0 l 1049
80 400 m 25
 160 320 l 1049
120 360 m 9
 120 40 l 1025
EndSplineSet
Fore
SplineSet
16 365 m 1xa0
 115 464 l 1
 155 424 l 1
 184 395 l 1
 195 384 l 1
 275 464 l 1
 364 375 l 1
 265 276 l 1
 205 336 l 1
 184 315 l 1
 184 75 l 1
 224 35 l 1
 125 -64 l 1
 85 -24 l 1
 56 5 l 1
 16 45 l 1
 56 85 l 1
 56 245 l 1
 56 325 l 1
 16 365 l 1xa0
EndSplineSet
EndChar
StartChar: y
Encoding: 121 121 89
Width: 480
Flags: W
HStem: -214 128<99 202.5> 444 20G<95 135 335 375> 444 20G<95 135 335 375>
VStem: 56 128<155 315> 296 128<-115 27 85 315>
AnchorPoint: "abvmark" 240 500 basechar 0
LayerCount: 2
Back
SplineSet
160 320 m 25
 80 400 l 1049
400 320 m 25
 320 400 l 1049
60 -200 m 17
 60 -200 104 -150 150 -150 c 8
 188 -150 231 -200 270 -200 c 24
 303 -200 360 -150 360 -150 c 1
 360 360 l 1025
360 120 m 9
 240 0 l 25
 120 120 l 1
 120 360 l 1049
EndSplineSet
Fore
SplineSet
25 -264 m 1xd8
 -4 -235 l 1
 -4 -235 -2 -232 1 -229 c 2
 100 -130 l 2
 113 -117 149 -86 185 -86 c 0
 220 -86 260 -129 296 -135 c 1
 296 27 l 1
 205 -64 l 1
 56 85 l 1
 56 325 l 1
 16 365 l 1
 115 464 l 1
 155 424 l 1
 184 395 l 1
 224 355 l 1
 184 315 l 1
 184 155 l 1
 275 64 l 1
 296 85 l 1
 296 325 l 1
 256 365 l 1
 355 464 l 1
 395 424 l 1
 424 395 l 1
 464 355 l 1
 424 315 l 1
 424 155 l 1
 424 -115 l 1
 325 -214 l 1
 325 -214 268 -264 235 -264 c 0
 196 -264 153 -214 115 -214 c 0
 83 -214 53 -238 36 -253 c 2
 25 -264 l 1xd8
EndSplineSet
EndChar
StartChar: z
Encoding: 122 122 90
Width: 420
Flags: W
HStem: -214 128<39 136.5> 276 128<101 197> 444 20G<75 115 263 295> 444 20G<75 115 263 295>
VStem: 236 128<-115 52>
AnchorPoint: "abvmark" 180 500 basechar 0
LayerCount: 2
Back
SplineSet
60 400 m 17
 60 400 97 340 150 340 c 0
 184 340 240 400 240 400 c 1
 300 340 l 1
 120 200 l 1
 300 100 l 1
 300 -150 l 1
 300 -150 244 -200 210 -200 c 0
 172 -200 115 -150 90 -150 c 16
 44 -150 0 -200 0 -200 c 1025
EndSplineSet
Fore
SplineSet
95 464 m 1xe8
 124 435 l 1
 124 435 127 430 132 424 c 0
 147 413 164 404 185 404 c 0
 209 404 245 435 263 452 c 2
 275 464 l 1
 364 375 l 1
 265 276 l 1
 210 233 l 1
 335 164 l 1
 364 135 l 1
 364 -115 l 1
 265 -214 l 1
 265 -214 209 -264 175 -264 c 0
 137 -264 80 -214 55 -214 c 0
 23 -214 -8 -239 -24 -253 c 2
 -35 -264 l 1
 -64 -235 l 2
 -64 -235 -62 -233 -59 -230 c 2
 -59 -229 l 2
 40 -130 l 2
 53 -117 89 -86 125 -86 c 0
 148 -86 198 -128 236 -135 c 1
 236 52 l 1
 85 136 l 1
 56 165 l 1
 155 264 l 1
 224 317 l 1
 205 336 l 1
 199 330 l 2
 184 315 143 276 115 276 c 0
 87 276 63 293 47 309 c 0
 18 338 l 2
 4 352 -4 365 -4 365 c 1
 95 464 l 1xe8
EndSplineSet
EndChar
StartChar: bar
Encoding: 124 124 92
Width: 300
Flags: W
HStem: -214 21G<95 135>
VStem: 86 128<-115 665>
LayerCount: 2
Back
SplineSet
150 -150 m 25
 150 700 l 1049
EndSplineSet
Fore
SplineSet
115 -214 m 1
 86 -185 l 1
 86 665 l 1
 185 764 l 1
 214 735 l 1
 214 -115 l 1
 115 -214 l 1
EndSplineSet
EndChar
StartChar: asciitilde
Encoding: 126 126 94
Width: 840
Flags: W
HStem: 236 128<359.34 637.814> 261 128<202.186 480.66>
LayerCount: 2
Back
SplineSet
120 275 m 17
 120 275 187 325 240 325 c 27
 380 325 460 300 600 300 c 27
 653 300 720 350 720 350 c 1033
EndSplineSet
Fore
SplineSet
56 240 m 1x40
 155 339 l 1
 155 339 222 389 275 389 c 0x40
 415 389 495 364 635 364 c 0
 688 364 755 414 755 414 c 1
 784 385 l 1
 685 286 l 1
 685 286 618 236 565 236 c 0x80
 425 236 345 261 205 261 c 0
 152 261 85 211 85 211 c 1
 56 240 l 1x40
EndSplineSet
EndChar
StartChar: cent
Encoding: 162 162 202
Width: 540
Flags: W
HStem: -214 21G<245 285> 644 20G<315 355>
VStem: 236 128<-115 -48 119 270 445 565>
LayerCount: 2
Back
SplineSet
300 600 m 25
 300 -150 l 1049
480 280 m 9
 300 400 l 25
 120 220 l 25
 120 100 l 25
 300 0 l 25
 480 100 l 1041
EndSplineSet
Fore
SplineSet
544 315 m 1
 445 216 l 1
 364 270 l 1
 364 80 l 1
 515 164 l 1
 544 135 l 1
 445 36 l 1
 364 -9 l 1
 364 -115 l 1
 265 -214 l 1
 236 -185 l 1
 236 -48 l 1
 85 36 l 1
 56 65 l 1
 56 185 l 1
 236 365 l 1
 236 565 l 1
 335 664 l 1
 364 635 l 1
 364 445 l 1
 515 344 l 1
 544 315 l 1
236 307 m 1
 214 285 188 259 184 255 c 2
 184 148 l 1
 236 119 l 1
 236 307 l 1
EndSplineSet
EndChar
StartChar: sterling
Encoding: 163 163 203
Width: 660
Flags: W
HStem: -14 127<282 371.134> 236 128<305.264 443.5> 511 153<321.448 438.25> 536 103<406.268 446>
VStem: 176 128<135 240 378.647 523.766>
LayerCount: 2
Back
SplineSet
481 600 m 1
 480 600 454 575 420 575 c 3
 394 575 372 600 329 600 c 3
 281 600 240 550 240 550 c 1
 240 100 l 1025
600 121.200195312 m 1
 480 0 l 17
 480 0 419 50 180 50 c 3
 97 50 60 0 60 0 c 1033
120 275 m 17
 120 275 168 325 210 325 c 27
 281 325 319 300 390 300 c 27
 432 300 480 350 480 350 c 1033
EndSplineSet
Fore
SplineSet
85 211 m 1xd8
 56 240 l 1
 56 240 56 240 57 241 c 2
 156 340 l 2
 159 343 166 350 176 358 c 1
 176 515 l 2
 176 515 179 519 184 524 c 2
 185 524 l 2
 284 623 l 2
 298 637 329 664 364 664 c 0xe8
 407 664 429 639 455 639 c 0xd8
 489 639 515 664 516 664 c 2xe8
 545 635 l 1
 446 536 l 2xd8
 445 536 419 511 385 511 c 0xe8
 361 511 340 533 304 536 c 1
 304 383 l 1
 343 376 376 364 425 364 c 0
 462 364 503 402 513 412 c 2
 515 414 l 1
 544 385 l 1
 544 385 544 385 543 384 c 2
 444 285 l 2
 437 278 393 236 355 236 c 0
 336 236 319 237 304 240 c 1
 304 135 l 1
 282 113 l 1
 455 105 508 68 514 64 c 1
 536 86 l 1
 635 185 l 1
 664 156 l 1
 544 35 l 1
 445 -64 l 1
 445 -64 384 -14 145 -14 c 0
 92 -14 58 -34 40 -49 c 2
 25 -64 l 1
 -4 -35 l 2
 -4 -35 -2 -32 2 -28 c 2
 3 -28 l 2
 102 71 l 2
 113 82 136 102 176 110 c 1
 176 261 l 2
 175 261 l 0
 139 261 98 223 87 213 c 2
 85 211 l 1xd8
EndSplineSet
EndChar
StartChar: section
Encoding: 167 167 206
Width: 600
Flags: W
HStem: -204 128<157.624 248.408> 576 128<358.641 481.5>
VStem: 56 128<215 245 505 545> 416 128<-45 -5 255 285>
LayerCount: 2
Back
SplineSet
240 400 m 25
 120 280 l 25
 120 160 l 25
 480 50 l 25
 480 -80 l 25
 360 -200 l 17
 360 -200 264 -140 196 -140 c 27
 138 -140 60 -200 60 -200 c 1033
540 700 m 17
 540 700 473 640 420 640 c 27
 345 640 240 700 240 700 c 9
 120 580 l 25
 120 450 l 25
 480 340 l 25
 480 220 l 25
 360 100 l 1049
EndSplineSet
Fore
SplineSet
604 735 m 1
 505 636 l 1
 505 636 438 576 385 576 c 0
 310 576 205 636 205 636 c 2
 205 636 186 617 184 615 c 2
 184 505 l 1
 515 404 l 1
 544 375 l 1
 544 255 l 1
 429 140 l 1
 515 114 l 1
 544 85 l 1
 544 -45 l 1
 325 -264 l 1
 325 -264 229 -204 161 -204 c 0
 103 -204 25 -264 25 -264 c 1
 -4 -235 l 1
 95 -136 l 1
 95 -136 173 -76 231 -76 c 0
 299 -76 395 -136 395 -136 c 1
 416 -115 l 1
 416 -5 l 1
 85 96 l 1
 56 125 l 1
 56 245 l 1
 171 360 l 1
 85 386 l 1
 56 415 l 1
 56 545 l 1
 275 764 l 1
 275 764 380 704 455 704 c 0
 508 704 575 764 575 764 c 1
 604 735 l 1
385 154 m 1
 416 185 l 1
 416 285 l 1
 215 346 l 1
 184 315 l 1
 184 215 l 1
 385 154 l 1
EndSplineSet
EndChar
StartChar: ordfeminine
Encoding: 170 170 210
Width: 480
Flags: W
HStem: 136 128<95 147 203 327 383 385> 594 20G<225 246> 594 20G<225 246>
VStem: 296 128<415 461 593 616>
LayerCount: 2
Back
SplineSet
60 200 m 25
 420 200 l 1049
150 520 m 17
 120 610 l 1
 210 700 l 1
 360 675 l 1
 360 330 l 1
 390 300 l 1
 450 360 l 1049
360 450 m 25
 210 300 l 1
 120 390 l 1
 120 460 l 1
 210 550 l 1
 210 550 232.927734376 525 300 525 c 3
 280.99609375 525 360 525 360 525 c 1033
EndSplineSet
Fore
SplineSet
-4 165 m 1x90
 95 264 l 1
 147 264 l 1
 56 355 l 1
 56 425 l 1
 101 470 l 1
 86 485 l 1
 56 575 l 1
 245 764 l 1
 395 739 l 1
 424 710 l 1
 424 560 l 1
 424 485 l 1
 424 365 l 1
 425 364 l 1
 485 424 l 1
 514 395 l 1
 383 264 l 1
 455 264 l 1
 484 235 l 1
 385 136 l 1
 25 136 l 1
 -4 165 l 1x90
207 576 m 1
 245 614 l 1xd0
 246 613 l 2
 249 610 263 599 296 593 c 1
 296 616 l 1
 188 634 l 1
 207 576 l 1
296 461 m 1
 214 463 195 472 184 479 c 1
 184 425 l 1
 245 364 l 1
 296 415 l 1
 296 461 l 1
296 357 m 1
 203 264 l 1
 327 264 l 1
 296 295 l 1
 296 357 l 1
EndSplineSet
EndChar
StartChar: guillemotleft
Encoding: 171 171 215
Width: 660
Flags: W
LayerCount: 2
Back
SplineSet
570 325 m 17
 570 325 543.919921876 295.744140624 510 275 c 0
 396 207 360 200 360 200 c 1
 360 200 437 174 540 100 c 0
 565.150390624 81.7324218749 600 50 600 50 c 1033
270 325 m 17
 270 325 243.919921876 295.744140624 210 275 c 0
 96 207 60 200 60 200 c 1
 60 200 137 174 240 100 c 0
 265.149767011 81.7315958295 300 50 300 50 c 1033
EndSplineSet
Fore
SplineSet
305 389 m 1
 334 360 l 1
 334 360 331 357 326 352 c 2
 228 253 l 2
 227 252 l 0
 218 243 204 231 188 220 c 1
 214 205 243 187 275 164 c 0
 300 146 335 114 335 114 c 1
 364 85 l 1
 265 -14 l 1
 265 -14 230 18 205 36 c 0
 102 110 25 136 25 136 c 1
 -4 165 l 1
 95 264 l 1
 95 264 131 271 245 339 c 0
 262 350 276 361 288 372 c 2
 305 389 l 1
605 389 m 1
 634 360 l 1
 634 360 631 357 626 352 c 2
 528 253 l 2
 527 252 l 0
 518 243 504 231 488 220 c 1
 514 205 543 187 575 164 c 0
 600 146 635 114 635 114 c 1
 664 85 l 1
 565 -14 l 1
 565 -14 530 18 505 36 c 0
 402 110 325 136 325 136 c 1
 296 165 l 1
 395 264 l 1
 395 264 431 271 545 339 c 0
 562 350 576 361 588 372 c 2
 605 389 l 1
EndSplineSet
EndChar
StartChar: logicalnot
Encoding: 172 172 225
Width: 720
Flags: W
HStem: 336 128<155 536>
VStem: 536 128<235 336>
LayerCount: 2
Back
SplineSet
120 400 m 25
 600 400 l 25
 600 200 l 1049
EndSplineSet
Fore
SplineSet
56 365 m 1
 155 464 l 1
 635 464 l 1
 664 435 l 1
 664 235 l 1
 565 136 l 1
 536 165 l 1
 536 336 l 1
 85 336 l 1
 56 365 l 1
EndSplineSet
EndChar
StartChar: macron
Encoding: 175 175 227
Width: 480
Flags: W
HStem: 486 128<125 355>
LayerCount: 2
Back
SplineSet
90 550 m 1
 390 550 l 1049
EndSplineSet
Fore
SplineSet
26 515 m 1
 125 614 l 1
 425 614 l 1
 454 585 l 1
 355 486 l 1
 55 486 l 1
 26 515 l 1
EndSplineSet
EndChar
StartChar: degree
Encoding: 176 176 229
Width: 600
Flags: W
HStem: 361 128<261.247 369.737> 661 128<230.263 338.753>
VStem: 56 128<554.272 638> 416 128<512 595.728>
LayerCount: 2
Back
SplineSet
120 600 m 0
 120 660 198 725 270 725 c 0
 390 725 480 650 480 550 c 0
 480 490 402 425 330 425 c 0
 210 425 120 500 120 600 c 0
EndSplineSet
Fore
SplineSet
56 565 m 0
 56 591 70 617 92 639 c 2
 191 738 l 2
 220 767 264 789 305 789 c 0
 372 789 429 766 467 728 c 2
 496 699 l 2
 526 669 544 629 544 585 c 0
 544 559 530 533 508 511 c 2
 409 412 l 2
 380 383 336 361 295 361 c 0
 228 361 171 384 133 422 c 2
 104 451 l 2
 74 481 56 521 56 565 c 0
184 635 m 0
 184 598 196 564 218 536 c 1
 255 507 307 489 365 489 c 0
 381 489 397 492 414 498 c 1
 415 503 416 509 416 515 c 0
 416 552 404 586 382 614 c 1
 345 643 293 661 235 661 c 0
 219 661 203 658 186 652 c 1
 185 647 184 641 184 635 c 0
EndSplineSet
EndChar
StartChar: plusminus
Encoding: 177 177 213
Width: 720
Flags: W
HStem: -39 128<155 565> 311 128<155 296 424 565> 619 20G<375 415>
VStem: 296 128<210 311 439 540>
LayerCount: 2
Back
SplineSet
120 25 m 25
 600 25 l 1049
360 575 m 25
 360 175 l 1049
120 375 m 25
 600 375 l 1049
EndSplineSet
Fore
SplineSet
56 340 m 1
 155 439 l 1
 296 439 l 1
 296 540 l 1
 395 639 l 1
 424 610 l 1
 424 439 l 1
 635 439 l 1
 664 410 l 1
 565 311 l 1
 424 311 l 1
 424 210 l 1
 325 111 l 1
 296 140 l 1
 296 311 l 1
 85 311 l 1
 56 340 l 1
56 -10 m 1
 155 89 l 1
 635 89 l 1
 664 60 l 1
 565 -39 l 1
 85 -39 l 1
 56 -10 l 1
EndSplineSet
EndChar
StartChar: acute
Encoding: 180 180 99
Width: 480
Flags: W
HStem: 461 303
VStem: 116 278
LayerCount: 2
Back
SplineSet
330 700 m 17
 330 600 180 525 180 525 c 1049
EndSplineSet
Fore
SplineSet
365 764 m 1
 394 735 l 1
 394 695 370 659 341 630 c 2
 242 531 l 2
 241 530 l 2
 197 487 145 461 145 461 c 2
 116 490 l 1
 215 589 l 2
 215 589 230 597 252 611 c 1
 260 627 266 646 266 665 c 1
 365 764 l 1
EndSplineSet
EndChar
StartChar: micro
Encoding: 181 181 209
Width: 480
Flags: W
HStem: -214 21G<65 105> 444 20G<95 135 335 375> 444 20G<95 135 335 375>
VStem: 56 128<-115 -50 89 315> 296 128<85 315>
LayerCount: 2
Back
SplineSet
120 360 m 1
 120 -150 l 1025
160 320 m 9
 80 400 l 1041
450 60 m 9
 390 0 l 1
 360 30 l 17
 360 360 l 1025
400 320 m 9
 320 400 l 1041
60 0 m 1
 60 0 71.9384760968 25 150 25 c 3
 223 25 240 0 240 0 c 9
 360 120 l 1025
EndSplineSet
Fore
SplineSet
25 -64 m 1xd8
 -4 -35 l 1
 -4 -35 -3 -33 -1 -31 c 2
 56 26 l 1
 56 325 l 1
 16 365 l 1
 115 464 l 1
 155 424 l 1
 184 395 l 1
 224 355 l 1
 184 315 l 1
 184 89 l 2
 185 89 l 0
 245 89 267 72 273 66 c 2
 275 64 l 1
 296 85 l 1
 296 325 l 1
 256 365 l 1
 355 464 l 1
 395 424 l 1
 424 395 l 1
 464 355 l 1
 424 315 l 1
 424 155 l 1
 424 65 l 1
 425 64 l 1
 485 124 l 1
 514 95 l 1
 355 -64 l 1
 296 -5 l 1
 296 27 l 1
 205 -64 l 1
 201 -60 l 2
 198 -57 192 -53 184 -50 c 1
 184 -115 l 1
 85 -214 l 1
 56 -185 l 1
 56 -46 l 1
 45 -49 38 -53 33 -56 c 2
 25 -64 l 1xd8
EndSplineSet
EndChar
StartChar: paragraph
Encoding: 182 182 226
Width: 720
Flags: W
HStem: -214 128<440 503.176> 36 128<227.89 306.351> 536 128<265.338 368.11> 536 75<222 248.258>
VStem: 56 128<229.381 440.308> 400 40<-86 151 209 512> 506 128<-40 505>
LayerCount: 2
Back
SplineSet
360 150 m 17
 360 150 348.13838788 100 270 100 c 3
 168 100 120 177.79076131 120 350 c 3
 120 469 170.810673948 600 329 600 c 3
 372 600 394 575 420 575 c 3
 454 575 480 600 481 600 c 1025
420 550 m 1
 420 -125 l 1025
630 600 m 1
 570 540 l 1
 570 -75 l 1025
660 -200 m 1
 660 -200 508 -150 390 -150 c 3
 307 -150 270 -200 270 -200 c 1025
EndSplineSet
Fore
SplineSet
724 -165 m 1xee
 625 -264 l 1
 625 -264 473 -214 355 -214 c 0
 302 -214 268 -234 250 -249 c 2
 235 -264 l 1
 206 -235 l 2
 206 -235 208 -232 212 -228 c 2
 213 -228 l 2
 312 -129 l 2
 324 -117 352 -94 400 -88 c 1
 400 151 l 1
 310 61 l 2
 297 48 274 36 235 36 c 0
 196 36 166 47 142 71 c 2
 113 100 l 2
 112 100 l 2
 74 138 56 209 56 315 c 0
 56 387 74 463 123 512 c 2
 222 611 l 1
 223 611 l 2xde
 256 644 301 664 364 664 c 0
 407 664 429 639 455 639 c 0
 489 639 515 664 516 664 c 2xee
 545 635 l 1
 446 536 l 2xde
 446 536 443 534 440 532 c 2
 440 -86 l 1
 461 -87 484 -89 506 -92 c 1
 506 505 l 1
 665 664 l 1
 694 635 l 1
 634 575 l 1
 634 -40 l 1
 570 -103 l 1
 640 -117 695 -136 695 -136 c 2
 724 -165 l 1xee
400 512 m 1
 395 511 390 511 385 511 c 0
 359 511 337 536 294 536 c 0xee
 262 536 234 531 210 521 c 1
 191 480 184 431 184 385 c 0
 184 292 198 227 227 186 c 1
 248 172 274 164 305 164 c 0
 325 164 340 167 353 172 c 1
 395 214 l 1
 400 209 l 1
 400 512 l 1
EndSplineSet
EndChar
StartChar: questiondown
Encoding: 191 191 201
Width: 480
Flags: W
HStem: 444 20G<215 255> 444 20G<215 255>
VStem: 176 128<85 155>
LayerCount: 2
Back
SplineSet
360 -50 m 25
 360 -110 l 25
 270 -200 l 25
 120 -150 l 25
 120 -30 l 25
 240 50 l 25
 240 190 l 1049
280 320 m 25
 200 400 l 1049
EndSplineSet
Fore
SplineSet
344 355 m 1xa0
 245 256 l 1
 136 365 l 1
 235 464 l 1
 344 355 l 1xa0
395 14 m 1
 424 -15 l 1
 424 -75 l 1
 235 -264 l 1
 85 -214 l 1
 56 -185 l 1
 56 -65 l 1
 155 34 l 1
 176 48 l 1
 176 155 l 1
 275 254 l 1
 304 225 l 1
 304 85 l 1
 205 -14 l 1
 184 -28 l 1
 184 -96 l 1
 296 -133 l 1
 296 -85 l 1
 395 14 l 1
EndSplineSet
EndChar
StartChar: AE
Encoding: 198 198 188
Width: 1380
Flags: W
HStem: -64 128<861.805 926 983 1028.71> -14 128<130.592 230.54> 486 128<1092 1188.5> 511 21G<215 249> 644 20G<350 378 572.143 617.857 849.699 895 1025 1076 1246 1286>
VStem: 820 40<102 441 541 551> 926 128<135 274 387 465>
AnchorPoint: "blwmark" 720 0 basechar 0
AnchorPoint: "abvmark" 720 700 basechar 0
LayerCount: 2
Back
SplineSet
630 550 m 9
 570 600 l 25
 510 550 l 1041
240 300 m 1
 240 300 276 350 360 350 c 3
 512 350 600 250 601 250 c 1025
270 575 m 1
 270 575 282 600 330 600 c 11
 389 600 420 549 420 500 c 3
 420 263 211 75 211 75 c 1025
60 0 m 1
 60 0 97 50 180 50 c 3
 298 50 330 0 330 0 c 1025
600 575 m 1
 630 300 l 1025
990 300 m 25
 990 300 1046 350 1080 350 c 27
 1122 350 1098 300 1140 300 c 3
 1189 300 1230 350 1231 350 c 1049
840 550 m 1
 840 100 l 1025
990 500 m 1
 990 100 l 1025
840 600 m 1
 840 600 630 480 630 300 c 3
 630 134 744 0 960 0 c 3
 1103 0 1261 150 1262 150 c 1025
840 492 m 1
 840 492 954 600 1026 600 c 3
 1103 600 1070 550 1140 550 c 3
 1198 550 1230 600 1231 600 c 1025
EndSplineSet
Fore
SplineSet
25 -64 m 1x8e
 -4 -35 l 1
 -4 -35 -1 -32 3 -28 c 2
 102 71 l 2
 116 85 152 114 215 114 c 1
 249 157 289 216 318 286 c 1
 269 284 238 266 221 252 c 2
 205 236 l 1
 176 265 l 1
 176 265 178 268 183 273 c 2
 282 372 l 2
 293 383 315 400 352 409 c 1
 354 427 356 446 356 465 c 0
 356 486 351 507 340 524 c 1
 328 531 312 536 295 536 c 0
 272 536 258 531 249 525 c 2
 235 511 l 1x5e
 206 540 l 1
 206 540 207 543 211 547 c 2
 310 646 l 2
 311 646 l 0
 319 654 335 664 365 664 c 0
 391 664 411 655 426 640 c 2
 455 611 l 2
 468 597 477 579 481 560 c 1
 515 594 l 1
 595 664 l 1
 635 629 l 1
 675 594 l 1
 704 565 l 1
 672 533 l 1
 677 488 l 1
 770 581 l 2
 822 633 875 664 875 664 c 1
 904 635 l 1
 860 592 l 1
 860 541 l 1
 875 556 l 1
 875 556 989 664 1061 664 c 0
 1091 664 1104 656 1113 647 c 2
 1139 621 l 2
 1147 617 1158 614 1175 614 c 0
 1202 614 1223 625 1238 636 c 2
 1266 664 l 2
 1295 635 l 2
 1293 633 1290 628 1282 620 c 2
 1281 619 l 2
 1182 520 l 2
 1167 505 1141 486 1105 486 c 0
 1079 486 1067 493 1059 501 c 2
 1054 506 l 1
 1054 387 l 1
 1073 400 1097 414 1115 414 c 0
 1125 414 1131 411 1135 407 c 2
 1164 378 l 2
 1165 378 l 2
 1169 374 1171 368 1173 364 c 0
 1174 364 1174 364 1175 364 c 0
 1209 364 1239 388 1254 402 c 2
 1265 413 l 2
 1265 414 l 0
 1266 414 l 2
 1295 385 l 1
 1292 382 l 2
 1291 381 1290 380 1289 379 c 2
 1288 378 l 1
 1189 279 l 2
 1175 265 1143 236 1105 236 c 0
 1095 236 1089 239 1085 243 c 2
 1056 272 l 2
 1055 273 1054 273 1054 274 c 2
 1054 135 l 1
 983 64 l 2
 987 64 991 64 995 64 c 0
 1138 64 1296 214 1297 214 c 2
 1326 185 l 1
 1227 86 l 2
 1226 86 1068 -64 925 -64 c 0
 816 -64 733 -29 677 26 c 2
 648 55 l 2
 610 93 586 141 574 194 c 1
 566 186 l 2
 565 186 508 251 406 276 c 1
 362 201 311 145 288 122 c 2
 275 109 l 1
 324 100 349 81 359 71 c 2
 388 42 l 2
 392 38 394 35 394 35 c 1
 295 -64 l 1xae
 281 -50 l 2
 262 -35 222 -14 145 -14 c 0x4e
 92 -14 58 -34 40 -49 c 2
 25 -64 l 1x8e
997 536 m 2
 995 536 993 536 991 536 c 0
 952 536 899 503 860 474 c 1
 860 85 l 1
 880 78 903 72 926 69 c 1
 926 265 l 1
 926 465 l 1
 997 536 l 2
820 551 m 1
 805 536 l 1
 805 536 784 523 755 501 c 1
 721 455 694 399 694 335 c 0
 694 260 717 192 762 140 c 0
 779 125 799 113 820 102 c 1
 820 441 l 1
 811 433 805 428 805 428 c 2
 776 457 l 1
 820 500 l 1
 820 551 l 1
464 407 m 1
 499 400 529 387 554 374 c 1
 536 526 l 1
 525 536 l 1
 482 499 l 1
 479 467 473 436 464 407 c 1
EndSplineSet
EndChar
StartChar: multiply
Encoding: 215 215 223
Width: 720
Flags: W
HStem: 544 20G<135 179 611 655>
LayerCount: 2
Back
SplineSet
600 500 m 25
 120 100 l 1049
120 500 m 25
 600 100 l 1049
EndSplineSet
Fore
SplineSet
56 465 m 1
 155 564 l 1
 395 364 l 1
 635 564 l 1
 664 535 l 1
 565 436 l 1
 437 329 l 1
 635 164 l 1
 664 135 l 1
 565 36 l 1
 325 236 l 1
 85 36 l 1
 56 65 l 1
 155 164 l 1
 283 271 l 1
 85 436 l 1
 56 465 l 1
EndSplineSet
EndChar
StartChar: germandbls
Encoding: 223 223 131
Width: 600
Flags: W
HStem: -214 128<-111 -14> 276 128<282.979 360.298> 444 20G<214 262.333 435 475> 444 20G<214 262.333 435 475> 526 21G<310 339> 586 68<391.109 416>
VStem: 86 128<27.2826 297 463 495> 416 128<-115 52>
AnchorPoint: "abvmark" 360 750 basechar 0
LayerCount: 2
Back
SplineSet
180 400 m 1
 180 400 269 340 322 340 c 3
 411 340 420 400 420 400 c 1
 480 340 l 1
 300 200 l 1
 480 100 l 1
 480 -150 l 1
 480 -150 424.000360523 -200 390 -200 c 1
 311 -113 150 0 150 0 c 1025
-150 -200 m 17
 -150 -200 -106 -150 -60 -150 c 8
 -35 -150 33 -200 60 -200 c 24
 86 -200 150 -150 150 -150 c 1
 150 530 l 1
 270 650 l 17
 270 650 300 590 360 590 c 24
 388 590 450 650 451 650 c 1033
EndSplineSet
Fore
SplineSet
-185 -264 m 1xef
 -214 -235 l 1
 -214 -235 -212 -232 -209 -229 c 2
 -110 -130 l 2
 -97 -117 -61 -86 -25 -86 c 0
 -3 -86 56 -127 86 -135 c 1
 86 -35 l 1
 86 495 l 1
 305 714 l 1
 334 685 l 1
 334 685 337 679 343 671 c 0
 357 661 374 654 395 654 c 0
 423 654 485 714 486 714 c 2
 515 685 l 1
 416 586 l 2
 415 586 353 526 325 526 c 0
 295 526 273 541 258 556 c 0
 257 556 l 2
 231 582 l 1
 214 565 l 1
 214 463 l 1
 215 464 l 1
 215 464 304 404 357 404 c 0
 375 404 389 406 401 410 c 1
 455 464 l 1
 544 375 l 1
 445 276 l 1
 390 233 l 1
 515 164 l 1
 544 135 l 1
 544 -115 l 1
 445 -214 l 1
 445 -214 427 -230 405 -244 c 0
 388 -254 370 -264 355 -264 c 1
 326 -235 l 2
 324 -233 322 -231 320 -229 c 0
 283 -194 239 -157 201 -128 c 1
 115 -214 l 1
 115 -214 51 -264 25 -264 c 0
 -2 -264 -70 -214 -95 -214 c 0
 -127 -214 -157 -238 -174 -253 c 2
 -185 -264 l 1xef
214 297 m 1
 214 43 l 1
 259 10 345 -55 405 -115 c 2
 416 -126 l 1
 416 52 l 1
 265 136 l 1
 236 165 l 1
 335 264 l 1
 404 317 l 1
 392 329 l 1
 366 303 l 2
 352 289 328 276 287 276 c 0
 266 276 239 285 214 297 c 1
EndSplineSet
EndChar
StartChar: divide
Encoding: 247 247 224
Width: 720
Flags: W
HStem: 1 21G<345 385> 236 128<155 565> 579 20G<335 375> 579 20G<335 375>
LayerCount: 2
Back
SplineSet
320 145 m 25
 400 65 l 1049
120 300 m 25
 600 300 l 1049
320 535 m 25
 400 455 l 1049
EndSplineSet
Fore
SplineSet
256 500 m 1xe0
 355 599 l 1
 464 490 l 1
 365 391 l 1
 256 500 l 1xe0
56 265 m 1
 155 364 l 1
 635 364 l 1
 664 335 l 1
 565 236 l 1
 85 236 l 1
 56 265 l 1
256 110 m 1
 355 209 l 1
 464 100 l 1
 365 1 l 1
 256 110 l 1
EndSplineSet
EndChar
StartChar: oslash
Encoding: 248 248 183
Width: 480
Flags: W
HStem: 444 20G<255 295 435 475> 444 20G<255 295 435 475>
VStem: 56 128<174 245> 296 128<155 226>
AnchorPoint: "blwmark" 240 0 basechar 0
AnchorPoint: "abvmark" 240 500 basechar 0
LayerCount: 2
Back
SplineSet
420 400 m 25
 60 0 l 1049
240 400 m 25
 120 280 l 25
 120 120 l 25
 240 0 l 25
 360 120 l 25
 360 280 l 25
 240 400 l 25
EndSplineSet
Fore
SplineSet
205 336 m 1x30
 184 315 l 1
 184 174 l 1
 281 282 l 1
 260 305 224 317 205 336 c 1x30
56 245 m 1
 275 464 l 1
 365 374 l 1
 455 464 l 1xb0
 484 435 l 1
 399 340 l 1
 424 315 l 1
 424 155 l 1
 205 -64 l 1
 115 26 l 1
 25 -64 l 1
 -4 -35 l 1
 81 60 l 1
 56 85 l 1
 56 245 l 1
199 118 m 1
 220 95 256 83 275 64 c 1
 296 85 l 1
 296 226 l 1
 199 118 l 1
EndSplineSet
EndChar
StartChar: dotlessi
Encoding: 305 305 97
Width: 240
Flags: W
HStem: 444 20G<95 135> 444 20G<95 135>
VStem: 56 128<85 315>
AnchorPoint: "blwmark" 120 0 basechar 0
AnchorPoint: "abvmark" 120 500 basechar 0
LayerCount: 2
Back
SplineSet
80 80 m 25
 160 0 l 25
 240 80 l 1049
160 320 m 25
 80 400 l 25
 0 320 l 1049
120 360 m 9
 120 40 l 1025
EndSplineSet
Fore
SplineSet
184 395 m 1xa0
 224 355 l 1
 184 315 l 1
 184 75 l 1
 195 64 l 1
 275 144 l 1
 304 115 l 1
 125 -64 l 1
 85 -24 l 1
 56 5 l 1
 16 45 l 1
 56 85 l 1
 56 325 l 1
 45 336 l 1
 -35 256 l 1
 -64 285 l 1
 115 464 l 1
 155 424 l 1
 184 395 l 1xa0
EndSplineSet
EndChar
StartChar: oe
Encoding: 339 339 115
Width: 660
Flags: W
HStem: 444 20G<255 295 495 545> 444 20G<255 295 495 545>
VStem: 56 128<111.793 245> 296 128<173 288.207>
AnchorPoint: "blwmark" 360 0 basechar 0
AnchorPoint: "abvmark" 360 500 basechar 0
LayerCount: 2
Back
SplineSet
600 120 m 9
 480 0 l 25
 360 80 l 25
 360 280 l 25
 480 400 l 25
 600 320 l 1
 360 80 l 1025
240 400 m 25
 120 280 l 25
 120 120 l 25
 240 0 l 25
 360 120 l 25
 360 280 l 25
 240 400 l 25
EndSplineSet
Fore
SplineSet
205 336 m 1x30
 184 315 l 1
 184 155 l 2
 184 106 248 91 275 64 c 1
 296 85 l 1
 296 245 l 2
 296 294 232 309 205 336 c 1x30
56 245 m 1
 275 464 l 1
 395 344 l 1
 515 464 l 1xb0
 635 384 l 1
 664 355 l 1
 430 121 l 1
 515 64 l 1
 635 184 l 1
 664 155 l 1
 445 -64 l 1
 325 16 l 1
 305 36 l 1
 205 -64 l 1
 56 85 l 1
 56 245 l 1
424 315 m 1
 424 173 l 1
 530 279 l 1
 445 336 l 1
 424 315 l 1
EndSplineSet
EndChar
StartChar: longs
Encoding: 383 383 95
Width: 360
Flags: W
HStem: -214 128<-111 -14> 526 21G<310 339> 586 68<391.109 416>
VStem: 86 128<-115 495>
AnchorPoint: "abvmark" 210 700 basechar 0
LayerCount: 2
Back
SplineSet
-150 -200 m 17
 -150 -200 -106 -150 -60 -150 c 8
 -35 -150 33 -200 60 -200 c 24
 86 -200 150 -150 150 -150 c 1
 150 530 l 1
 270 650 l 17
 270 650 300 590 360 590 c 24
 388 590 450 650 451 650 c 1033
EndSplineSet
Fore
SplineSet
-185 -264 m 1
 -214 -235 l 1
 -214 -235 -212 -232 -209 -229 c 2
 -110 -130 l 2
 -97 -117 -61 -86 -25 -86 c 0
 -3 -86 56 -127 86 -135 c 1
 86 495 l 1
 305 714 l 1
 334 685 l 1
 334 685 337 679 343 671 c 0
 357 661 374 654 395 654 c 0
 423 654 485 714 486 714 c 2
 515 685 l 1
 416 586 l 2
 415 586 353 526 325 526 c 0
 295 526 273 541 258 556 c 0
 257 556 l 2
 231 582 l 1
 214 565 l 1
 214 -115 l 1
 115 -214 l 1
 115 -214 51 -264 25 -264 c 0
 -2 -264 -70 -214 -95 -214 c 0
 -127 -214 -157 -238 -174 -253 c 2
 -185 -264 l 1
EndSplineSet
EndChar
StartChar: florin
Encoding: 402 402 260
Width: 480
Flags: W
HStem: -214 128<-111 0.5> 336 128<155 178 316 385> 526 128<431.5 525.5>
LayerCount: 2
Back
SplineSet
-150 -200 m 17
 -150 -200 -106 -150 -60 -150 c 8
 -9 -150 9 -200 60 -200 c 24
 100 -200 150 -150 150 -150 c 1
 270 530 l 1
 390 650 l 17
 390 650 438 590 480 590 c 24
 522 590 570 650 571 650 c 1033
120 400 m 25
 420 400 l 1049
EndSplineSet
Fore
SplineSet
56 365 m 1
 155 464 l 1
 201 464 l 1
 206 495 l 1
 425 714 l 1
 454 685 l 1
 454 685 455 684 456 682 c 0
 473 667 495 654 515 654 c 0
 536 654 559 670 576 684 c 2
 606 714 l 2
 635 685 l 1
 634 684 l 2
 632 682 626 676 619 669 c 2
 521 570 l 2
 503 552 473 526 445 526 c 0
 418 526 390 550 372 568 c 2
 354 585 l 1
 334 565 l 1
 316 464 l 1
 455 464 l 1
 484 435 l 1
 385 336 l 1
 294 336 l 1
 214 -115 l 1
 115 -214 l 1
 115 -214 65 -264 25 -264 c 0
 -26 -264 -44 -214 -95 -214 c 0
 -127 -214 -157 -238 -174 -253 c 2
 -185 -264 l 1
 -214 -235 l 1
 -214 -235 -212 -232 -209 -229 c 2
 -110 -130 l 2
 -97 -117 -61 -86 -25 -86 c 0
 26 -86 45 -136 95 -136 c 1
 178 336 l 1
 85 336 l 1
 56 365 l 1
EndSplineSet
EndChar
StartChar: hv
Encoding: 405 405 514
Width: 720
Flags: W
HStem: 444 20G<285 325> 444 20G<285 325 640.5 661> 594 20G<640.5 661>
VStem: 56 128<85 285 343 540> 296 128<155 309.438> 476 128<418 509.5> 536 128<155 335>
AnchorPoint: "blwmark" 360 0 basechar 0
AnchorPoint: "abvmark" 360 700 basechar 0
LayerCount: 2
Back
SplineSet
606 550 m 17
 604 550 540 521 540 472 c 16
 540 423 600 370 600 370 c 9
 600 120 l 1
 480 0 l 25
 360 120 l 1
 360 310 l 25
 270 400 l 1
 120 250 l 1049
80 80 m 25
 160 0 l 1049
80 625 m 25
 160 545 l 1049
120 585 m 9
 120 40 l 1049
EndSplineSet
Fore
SplineSet
16 590 m 1xba
 115 689 l 1
 155 649 l 1
 184 620 l 1
 224 580 l 1
 184 540 l 1
 184 343 l 1
 305 464 l 1
 424 345 l 1
 424 155 l 1
 515 64 l 1
 536 85 l 1
 536 335 l 1xba
 528 342 l 2
 512 358 476 399 476 437 c 0
 476 457 486 473 499 486 c 0
 500 486 l 2
 599 585 l 2
 617 603 640 614 641 614 c 2
 670 585 l 1
 606 521 l 2
 605 516 604 512 604 507 c 0xbc
 604 474 630 440 648 421 c 2
 664 405 l 1
 664 155 l 1
 445 -64 l 1
 296 85 l 1
 296 275 l 2
 296 308 253 318 235 336 c 1
 184 285 l 1
 184 75 l 1
 224 35 l 1
 125 -64 l 1
 85 -24 l 1
 56 5 l 1
 16 45 l 1
 56 85 l 1
 56 215 l 1
 56 550 l 1
 16 590 l 1xba
EndSplineSet
EndChar
StartChar: dotlessj
Encoding: 567 567 98
Width: 240
Flags: W
HStem: 444 20G<95 135> 444 20G<95 135>
VStem: 56 128<-55 315>
AnchorPoint: "abvmark" 120 500 basechar 0
LayerCount: 2
Back
SplineSet
160 320 m 25
 80 400 l 25
 0 320 l 1049
120 360 m 1
 120 -90 l 9
 40 -170 l 1049
EndSplineSet
Fore
SplineSet
184 395 m 1xa0
 224 355 l 1
 184 315 l 1
 184 -55 l 1
 5 -234 l 1
 -24 -205 l 1
 56 -125 l 1
 56 325 l 1
 45 336 l 1
 -35 256 l 1
 -64 285 l 1
 115 464 l 1
 155 424 l 1
 184 395 l 1xa0
EndSplineSet
EndChar
StartChar: ascript
Encoding: 593 593 348
Width: 480
Flags: W
HStem: 444 20G<255 295 375 415> 444 20G<255 295 375 415>
VStem: 56 128<90.562 245> 296 128<115 301>
AnchorPoint: "blwmark" 240 0 basechar 0
AnchorPoint: "abvmark" 270 500 basechar 0
LayerCount: 2
Back
SplineSet
450 60 m 25
 390 0 l 1
 360 30 l 1
 360 400 l 1
 360 400 334 352 300 352 c 0
 266 352 240 400 240 400 c 9
 120 280 l 1
 120 90 l 17
 210 0 l 1
 360 150 l 1049
EndSplineSet
Fore
SplineSet
296 301 m 1x30
 287 294 276 288 265 288 c 0
 250 288 236 298 226 308 c 2
 201 333 l 1
 184 315 l 1
 184 125 l 2
 184 92 227 82 245 64 c 1
 296 115 l 1
 296 301 l 1x30
296 57 m 1
 175 -64 l 1
 56 55 l 1
 56 245 l 1
 275 464 l 1
 304 435 l 1
 304 435 306 430 311 423 c 0
 318 419 327 416 335 416 c 0
 340 416 344 417 350 419 c 2
 395 464 l 1xb0
 424 435 l 1
 424 65 l 1
 425 64 l 1
 485 124 l 1
 514 95 l 1
 355 -64 l 1
 296 -5 l 1
 296 57 l 1
EndSplineSet
EndChar
StartChar: Rsmallcap
Encoding: 640 640 854
Width: 540
Flags: W
HStem: 444 20G<95 135 255 311> 444 20G<95 135 255 311>
VStem: 56 128<93 315>
AnchorPoint: "blwmark" 270 0 basechar 0
AnchorPoint: "abvmark" 240 500 basechar 0
LayerCount: 2
Back
SplineSet
80 80 m 25
 160 0 l 1049
80 400 m 25
 160 320 l 1049
120 360 m 9
 120 40 l 1025
480 60 m 25
 420 0 l 1
 420 0 399 85 360 125 c 24
 337 149 270 150 270 150 c 1025
240 120 m 1
 420 300 l 1
 240 400 l 1
 120 280 l 1049
EndSplineSet
Fore
SplineSet
515 124 m 1xa0
 544 95 l 1
 385 -64 l 1
 356 -35 l 1
 356 -35 341 28 312 71 c 1
 283 86 235 86 235 86 c 2
 205 56 l 1
 184 77 l 1
 184 75 l 1
 224 35 l 1
 125 -64 l 1
 85 -24 l 1
 56 5 l 1
 16 45 l 1
 56 85 l 1
 56 245 l 1
 56 325 l 1
 16 365 l 1
 115 464 l 1
 155 424 l 1
 184 395 l 1
 195 384 l 1
 275 464 l 1
 455 364 l 1
 484 335 l 1
 356 207 l 1
 371 203 385 198 394 190 c 0
 395 189 l 2
 423 161 l 2
 424 160 l 0
 444 139 460 106 470 79 c 1
 515 124 l 1xa0
305 214 m 1
 348 257 l 1
 205 336 l 1
 184 315 l 1
 184 93 l 1
 206 115 l 1
 305 214 l 1
EndSplineSet
EndChar
StartChar: verticallinemod
Encoding: 712 712 887
Width: 480
Flags: W
HStem: 461 303
VStem: 176 128<560 665>
LayerCount: 2
Back
SplineSet
240 700 m 9
 240 525 l 1025
EndSplineSet
Fore
SplineSet
275 764 m 1
 304 735 l 1
 304 560 l 1
 205 461 l 1
 176 490 l 1
 176 665 l 1
 275 764 l 1
EndSplineSet
EndChar
StartChar: dotaccent
Encoding: 729 729 269
Width: 480
Flags: W
HStem: 476 208
VStem: 136 208
LayerCount: 2
Back
SplineSet
200 620 m 25
 280 540 l 1049
EndSplineSet
Fore
SplineSet
136 585 m 1
 235 684 l 1
 344 575 l 1
 245 476 l 1
 136 585 l 1
EndSplineSet
EndChar
StartChar: ring
Encoding: 730 730 184
Width: 480
Flags: W
HStem: 461 128<214.457 293.544> 661 128<186.456 265.543>
LayerCount: 2
Back
SplineSet
120 650 m 0
 120 710 138 725 210 725 c 0
 300 725 360 675 360 600 c 0
 360 540 342 525 270 525 c 0
 180 525 120 575 120 650 c 0
EndSplineSet
Fore
SplineSet
56 615 m 0
 56 643 60 662 71 673 c 2
 170 772 l 2
 183 785 207 789 245 789 c 0
 295 789 336 773 362 747 c 2
 391 718 l 2
 412 697 424 668 424 635 c 0
 424 607 420 588 409 577 c 2
 310 478 l 2
 297 465 273 461 235 461 c 0
 185 461 144 477 118 503 c 2
 89 532 l 2
 68 553 56 582 56 615 c 0
186 661 m 1
 189 645 195 630 204 617 c 1
 227 601 258 591 294 589 c 1
 291 605 285 620 276 633 c 1
 253 649 222 659 186 661 c 1
EndSplineSet
EndChar
StartChar: ogonek
Encoding: 731 731 283
Width: 480
Flags: W
HStem: -264 328
VStem: 86 308
LayerCount: 2
Back
SplineSet
240 0 m 25
 150 -90 l 1
 150 -150 l 9
 270 -200 l 25
 330 -140 l 1049
EndSplineSet
Fore
SplineSet
275 64 m 1
 304 35 l 1
 214 -55 l 1
 214 -98 l 1
 305 -136 l 2
 305 -136 359 -82 365 -76 c 1
 394 -105 l 1
 235 -264 l 1
 115 -214 l 1
 86 -185 l 1
 86 -125 l 1
 275 64 l 1
EndSplineSet
EndChar
StartChar: hookcmb
Encoding: 777 777 381
Width: 0
Flags: W
HStem: 436 328 486 21G<-385 -345>
AnchorPoint: "abvmark" -240 500 mark 0
LayerCount: 2
Back
SplineSet
-240 500 m 1
 -120 620 l 1
 -120 675 l 1
 -270 700 l 25
 -360 610 l 1
 -330 550 l 1049
EndSplineSet
Fore
SplineSet
-275 436 m 1x80
 -304 465 l 1
 -184 585 l 1
 -184 616 l 1
 -290 634 l 1
 -266 585 l 1
 -365 486 l 1x40
 -394 515 l 1
 -424 575 l 1
 -235 764 l 1
 -85 739 l 1
 -56 710 l 1
 -56 655 l 1
 -275 436 l 1x80
EndSplineSet
EndChar
StartChar: dotbelowcmb
Encoding: 803 803 357
Width: 0
VWidth: 400
Flags: W
HStem: -224 208
VStem: -344 208
AnchorPoint: "blwmark" -240 0 mark 0
LayerCount: 2
Back
SplineSet
-280 -80 m 25
 -200 -160 l 1049
EndSplineSet
Fore
SplineSet
-344 -115 m 1
 -245 -16 l 1
 -136 -125 l 1
 -235 -224 l 1
 -344 -115 l 1
EndSplineSet
EndChar
StartChar: breveinvertedbelowcmb
Encoding: 815 815 537
Width: 0
VWidth: 400
Flags: W
HStem: -189 128<-292 -173.258>
AnchorPoint: "blwmark" -240 0 mark 0
LayerCount: 2
Back
SplineSet
-90 -200 m 17
 -90 -200 -107.5546875 -125 -240 -125 c 3
 -294 -125 -360 -200 -360 -200 c 1033
EndSplineSet
Fore
SplineSet
-125 -264 m 1
 -154 -235 l 1
 -154 -235 -155 -227 -162 -217 c 1
 -185 -202 -220 -189 -275 -189 c 0
 -309 -189 -347 -218 -371 -240 c 2
 -395 -264 l 1
 -424 -235 l 2
 -424 -235 -420 -231 -413 -224 c 2
 -413 -223 l 2
 -314 -124 l 2
 -293 -103 -245 -61 -205 -61 c 0
 -134 -61 -96 -82 -76 -102 c 2
 -47 -131 l 2
 -30 -148 -26 -165 -26 -165 c 1
 -125 -264 l 1
EndSplineSet
EndChar
StartChar: tridotright
Encoding: 4347 4347 895
Width: 600
Flags: W
LayerCount: 2
Back
SplineSet
440 215 m 25
 520 135 l 1049
140 350 m 25
 220 270 l 1049
140 80 m 25
 220 0 l 1049
EndSplineSet
Fore
SplineSet
76 45 m 1
 175 144 l 1
 284 35 l 1
 185 -64 l 1
 76 45 l 1
76 315 m 1
 175 414 l 1
 284 305 l 1
 185 206 l 1
 76 315 l 1
376 180 m 1
 475 279 l 1
 584 170 l 1
 485 71 l 1
 376 180 l 1
EndSplineSet
EndChar
StartChar: endash
Encoding: 8211 8211 257
Width: 480
Flags: W
HStem: 136 128<95 385>
LayerCount: 2
Back
SplineSet
60 200 m 25
 420 200 l 1049
EndSplineSet
Fore
SplineSet
-4 165 m 1
 95 264 l 1
 455 264 l 1
 484 235 l 1
 385 136 l 1
 25 136 l 1
 -4 165 l 1
EndSplineSet
EndChar
StartChar: emdash
Encoding: 8212 8212 258
Width: 720
Flags: W
HStem: 136 128<95 625>
LayerCount: 2
Back
SplineSet
60 200 m 25
 660 200 l 1049
EndSplineSet
Fore
SplineSet
-4 165 m 1
 95 264 l 1
 695 264 l 1
 724 235 l 1
 625 136 l 1
 25 136 l 1
 -4 165 l 1
EndSplineSet
EndChar
StartChar: horizontalbar
Encoding: 8213 8213 909
Width: 840
Flags: W
HStem: 136 128<95 745>
LayerCount: 2
Back
SplineSet
60 200 m 25
 780 200 l 1049
EndSplineSet
Fore
SplineSet
-4 165 m 1
 95 264 l 1
 815 264 l 1
 844 235 l 1
 745 136 l 1
 25 136 l 1
 -4 165 l 1
EndSplineSet
EndChar
StartChar: quotedblbase
Encoding: 8222 8222 253
Width: 600
VWidth: 450
Flags: W
LayerCount: 2
Back
SplineSet
385 80 m 25
 465 0 l 1
 465 -80 l 25
 345 -200 l 1049
145 80 m 25
 225 0 l 1
 225 -80 l 25
 105 -200 l 1049
EndSplineSet
Fore
SplineSet
81 45 m 1
 180 144 l 1
 289 35 l 1
 289 -45 l 1
 70 -264 l 1
 41 -235 l 1
 161 -115 l 1
 161 -35 l 1
 81 45 l 1
321 45 m 1
 420 144 l 1
 529 35 l 1
 529 -45 l 1
 310 -264 l 1
 281 -235 l 1
 401 -115 l 1
 401 -35 l 1
 321 45 l 1
EndSplineSet
EndChar
StartChar: quotedblrev
Encoding: 8223 8223 929
Width: 600
Flags: W
LayerCount: 2
Back
SplineSet
210 610 m 25
 150 550 l 1
 150 490 l 25
 240 400 l 1049
450 610 m 25
 390 550 l 1
 390 490 l 25
 480 400 l 1049
EndSplineSet
Fore
SplineSet
215 630 m 25
 135 550 l 1
 135 470 l 25
 255 350 l 1049
455 630 m 25
 375 550 l 1
 375 470 l 25
 495 350 l 1049
EndSplineSet
EndChar
StartChar: dagger
Encoding: 8224 8224 262
Width: 480
Flags: W
HStem: -214 21G<185 225> 444 20G<75 115 317 415> 444 20G<75 115 317 415> 644 20G<285 325>
VStem: 167 146<24.4664 296> 176 128<-115 101.527>
LayerCount: 2
Back
SplineSet
60 400 m 25
 120 340 l 25
 360 400 l 25
 420 340 l 1049
210 540 m 1
 210 540 226 455 228 400 c 24
 238 186 240 -150 240 -150 c 1
 240 -150 244 186 252 400 c 24
 256 478 270 600 270 600 c 9
 210 540 l 1
EndSplineSet
Fore
SplineSet
146 505 m 1xd8
 305 664 l 1
 334 635 l 1
 334 635 322 522 317 444 c 1
 395 464 l 1
 484 375 l 1
 385 276 l 1
 325 336 l 1
 313 333 l 1xd8
 307 129 304 -115 304 -115 c 2
 205 -214 l 1
 176 -185 l 1xd4
 176 -185 175 86 167 296 c 1
 85 276 l 1
 -4 365 l 1
 95 464 l 1
 155 404 l 1
 161 405 l 1
 156 454 146 505 146 505 c 1xd8
EndSplineSet
EndChar
StartChar: minute
Encoding: 8242 8242 926
Width: 360
Flags: W
HStem: 461 303
VStem: 56 248
LayerCount: 2
Back
SplineSet
240 700 m 17
 240 600 120 525 120 525 c 1041
EndSplineSet
Fore
SplineSet
275 764 m 1
 304 735 l 1
 304 682 270 636 239 605 c 2
 140 506 l 2
 111 478 85 461 85 461 c 2
 56 490 l 1
 152 586 l 1
 166 609 176 636 176 665 c 1
 275 764 l 1
EndSplineSet
EndChar
StartChar: guilsinglright
Encoding: 8250 8250 243
Width: 360
Flags: W
LayerCount: 2
Back
SplineSet
90 325 m 17
 90 325 116.080078125 295.744140624 150 275 c 0
 264 207 300 200 300 200 c 1
 300 200 223 174 120 100 c 0
 94.8496093749 81.7324218749 60 50 60 50 c 1033
EndSplineSet
Fore
SplineSet
125 389 m 1
 142 372 l 2
 153 362 168 350 185 339 c 0
 253 298 294 280 315 271 c 0
 329 265 335 264 335 264 c 1
 364 235 l 1
 265 136 l 1
 265 136 261 135 254 132 c 0
 230 122 165 94 85 36 c 0
 60 18 25 -14 25 -14 c 1
 -4 15 l 1
 95 114 l 1
 95 114 130 146 155 164 c 0
 161 168 168 173 174 177 c 1
 157 186 138 198 115 211 c 0
 92 225 73 243 63 253 c 2
 34 282 l 2
 26 290 l 1
 125 389 l 1
EndSplineSet
EndChar
StartChar: bracketquillright
Encoding: 8262 8262 917
Width: 360
Flags: W
HStem: -214 128<95 176> 236 128<95 176> 636 128<95 176>
VStem: 176 128<-86 236 364 636>
LayerCount: 2
Back
SplineSet
60 300 m 25
 240 300 l 1049
60 700 m 25
 240 700 l 25
 240 -150 l 25
 60 -150 l 1033
EndSplineSet
Fore
SplineSet
-4 665 m 1
 95 764 l 1
 275 764 l 1
 304 735 l 1
 304 335 l 1
 304 -115 l 1
 205 -214 l 1
 25 -214 l 1
 -4 -185 l 1
 95 -86 l 1
 176 -86 l 1
 176 236 l 1
 25 236 l 1
 -4 265 l 1
 95 364 l 1
 176 364 l 1
 176 636 l 1
 25 636 l 1
 -4 665 l 1
EndSplineSet
EndChar
StartChar: et
Encoding: 8266 8266 960
Width: 480
Flags: W
HStem: -214 21G<125 165> 286 128<183.959 339.928> 444 20G<105 197 395 475> 444 20G<105 197 395 475>
VStem: 116 128<-115 5.60397>
LayerCount: 2
Back
SplineSet
90 400 m 1
 90 400 164 350 270 350 c 3
 335 350 420 400 420 400 c 1
 420 400 180 176 180 -100 c 3
 180 -68 180 -150 180 -150 c 1025
EndSplineSet
Fore
SplineSet
244 -58 m 2xe8
 244 -115 l 1
 145 -214 l 1
 116 -185 l 1
 116 -127 l 0
 119 53 222 210 293 296 c 1
 275 291 253 286 235 286 c 0
 129 286 55 336 55 336 c 1
 26 365 l 1
 125 464 l 1
 125 464 199 414 305 414 c 0
 370 414 455 464 455 464 c 1
 484 435 l 1
 468 419 l 2
 415 364 247 172 244 -58 c 2xe8
EndSplineSet
EndChar
StartChar: dotcross
Encoding: 8284 8284 954
Width: 720
Flags: W
HStem: 236 128<95 152 158 162 168 296 424 552 558 562 568 625> 549 20G<135 175 375 415 535 575> 594 20G<375 415>
VStem: 296 128<85 236 364 515>
LayerCount: 2
Back
SplineSet
360 550 m 25
 360 50 l 1049
60 300 m 25
 660 300 l 1049
520 505 m 25
 600 425 l 1049
520 175 m 25
 600 95 l 1049
120 505 m 25
 200 425 l 1049
120 175 m 25
 200 95 l 1049
EndSplineSet
Fore
SplineSet
56 470 m 1
 155 569 l 1
 264 460 l 1
 168 364 l 1
 296 364 l 1
 296 515 l 1
 395 614 l 1
 424 585 l 1
 424 364 l 1
 562 364 l 1
 456 470 l 1
 555 569 l 1
 664 460 l 1
 568 364 l 1
 695 364 l 1
 724 335 l 1
 625 236 l 1
 558 236 l 1
 664 130 l 1
 565 31 l 1
 456 140 l 1
 552 236 l 1
 424 236 l 1
 424 85 l 1
 325 -14 l 1
 296 15 l 1
 296 236 l 1
 158 236 l 1
 264 130 l 1
 165 31 l 1
 56 140 l 1
 152 236 l 1
 25 236 l 1
 -4 265 l 1
 95 364 l 1
 162 364 l 1
 56 470 l 1
EndSplineSet
EndChar
StartChar: Euro
Encoding: 8364 8364 264
Width: 660
Flags: W
HStem: 161 128<95 116 244 385> 311 128<95 116 288 445> 644 20G<435 495>
LayerCount: 2
Back
SplineSet
60 225 m 25
 420 225 l 1049
60 375 m 25
 480 375 l 1049
570 525 m 9
 420 600 l 25
 180 360 l 25
 180 100 l 25
 420 0 l 25
 600 180 l 1041
EndSplineSet
Fore
SplineSet
634 560 m 1
 535 461 l 1
 385 536 l 2
 385 536 329 481 288 439 c 1
 515 439 l 1
 544 410 l 1
 445 311 l 1
 244 311 l 1
 244 289 l 1
 455 289 l 1
 484 260 l 1
 385 161 l 1
 244 161 l 1
 244 152 l 1
 455 64 l 2
 456 64 530 139 536 145 c 2
 635 244 l 1
 664 215 l 1
 385 -64 l 1
 145 36 l 1
 116 65 l 1
 116 161 l 1
 25 161 l 1
 -4 190 l 1
 95 289 l 1
 116 289 l 1
 116 311 l 1
 25 311 l 1
 -4 340 l 1
 95 439 l 1
 230 439 l 1
 455 664 l 1
 605 589 l 1
 634 560 l 1
EndSplineSet
EndChar
StartChar: minus
Encoding: 8722 8722 214
Width: 720
Flags: W
HStem: 236 128<155 565>
LayerCount: 2
Back
SplineSet
120 300 m 25
 600 300 l 1049
EndSplineSet
Fore
SplineSet
56 265 m 1
 155 364 l 1
 635 364 l 1
 664 335 l 1
 565 236 l 1
 85 236 l 1
 56 265 l 1
EndSplineSet
EndChar
StartChar: because
Encoding: 8757 8757 897
Width: 720
Flags: W
LayerCount: 2
Back
SplineSet
500 350 m 25
 580 270 l 1049
140 350 m 25
 220 270 l 1049
320 80 m 25
 400 0 l 1049
EndSplineSet
Fore
SplineSet
256 45 m 1
 355 144 l 1
 464 35 l 1
 365 -64 l 1
 256 45 l 1
76 315 m 1
 175 414 l 1
 284 305 l 1
 185 206 l 1
 76 315 l 1
436 315 m 1
 535 414 l 1
 644 305 l 1
 545 206 l 1
 436 315 l 1
EndSplineSet
EndChar
StartChar: proportion
Encoding: 8759 8759 898
Width: 720
Flags: W
LayerCount: 2
Back
SplineSet
500 350 m 25
 580 270 l 1049
500 80 m 25
 580 0 l 1049
140 350 m 25
 220 270 l 1049
140 80 m 25
 220 0 l 1049
EndSplineSet
Fore
SplineSet
76 45 m 1
 175 144 l 1
 284 35 l 1
 185 -64 l 1
 76 45 l 1
76 315 m 1
 175 414 l 1
 284 305 l 1
 185 206 l 1
 76 315 l 1
436 45 m 1
 535 144 l 1
 644 35 l 1
 545 -64 l 1
 436 45 l 1
436 315 m 1
 535 414 l 1
 644 305 l 1
 545 206 l 1
 436 315 l 1
EndSplineSet
EndChar
StartChar: bracketangleright
Encoding: 9297 9297 931
Width: 480
Flags: W
HStem: -214 21G<5 45>
LayerCount: 2
Back
SplineSet
90 675 m 17
 90 675 186.566406251 553.8359375 210 525 c 0
 264 459 420 250 420 250 c 1
 420 250 235 60 180 0 c 0
 160.167968749 -22.12890625 60 -150 60 -150 c 1033
EndSplineSet
Fore
SplineSet
125 739 m 1
 154 710 l 1
 154 710 251 589 274 560 c 0
 328 494 484 285 484 285 c 1
 484 285 299 95 244 35 c 0
 224 13 124 -115 124 -115 c 1
 25 -214 l 1
 -4 -185 l 1
 -4 -185 96 -57 116 -35 c 0
 171 25 356 215 356 215 c 1
 356 215 200 424 146 490 c 0
 123 519 26 640 26 640 c 1
 125 739 l 1
EndSplineSet
EndChar
StartChar: FleuronCenter
Encoding: 10086 10086 955
Width: 840
Flags: W
HStem: 494 20G<253.5 287> 511 128<603 715> 511 21G<5 49> 517 129<595.589 715> 520 133<285.625 428> 536 128<125 234.375>
LayerCount: 2
Back
SplineSet
480 700 m 1
 480 700 540 644 540 600 c 27
 540 521 420 425 420 425 c 1025
60 575 m 25
 90 600 l 25
 750 575 l 25
 780 600 l 1049
660 100 m 1
 660 100 551 0 420 0 c 3
 275 0 90 141 90 300 c 27
 90 376 149 450 240 450 c 27
 314 450 360 325 360 325 c 1
 360 325 406 450 480 450 c 27
 546 450 600 399 600 350 c 3
 600 277.78125 523.607421876 243.705078124 450 200 c 8
 398 169 390 128 390 75 c 19
 390 47.9539703989 450 25 450 25 c 1025
EndSplineSet
Fore
SplineSet
505 69 m 1x10
 613 89 695 164 695 164 c 1
 724 135 l 1
 625 36 l 1
 625 36 516 -64 385 -64 c 0
 368 -64 350 -62 332 -58 c 0
 265 -44 196 -6 143 47 c 2
 114 76 l 2
 62 128 26 195 26 265 c 0
 26 305 43 344 71 372 c 2
 170 471 l 2
 196 497 232 514 275 514 c 0
 299 514 320 501 337 484 c 2
 366 455 l 2
 375 446 383 434 390 424 c 1
 428 462 l 2
 442 480 456 499 465 520 c 1x88
 55 536 l 1
 25 511 l 1x24
 -4 540 l 1
 95 639 l 1x40
 125 664 l 1x04
 428 653 l 2x08
 427 655 425 656 424 657 c 2
 416 665 l 1
 515 764 l 1
 515 764 517 762 519 760 c 2
 548 731 l 2
 560 719 596 681 603 646 c 1x10
 785 639 l 1x40
 815 664 l 1
 844 635 l 1
 745 536 l 1x04
 715 511 l 1x40
 544 517 l 2
 542 515 541 514 539 512 c 1
 566 507 589 493 606 476 c 2
 635 447 l 2
 653 429 664 407 664 385 c 0
 664 356 651 333 631 313 c 2
 532 214 l 2
 532 213 l 2
 512 194 485 177 458 161 c 1
 454 145 454 129 454 110 c 0
 454 108 454 106 455 104 c 0
 470 95 485 89 485 89 c 2
 505 69 l 1x10
EndSplineSet
EndChar
StartChar: bracketwhiteright
Encoding: 10215 10215 919
Width: 480
Flags: W
HStem: -214 128<95 190 230 296> 636 128<95 190 230 296>
VStem: 190 40<-86 636> 296 128<-86 636>
LayerCount: 2
Back
SplineSet
210 650 m 25
 210 -100 l 1049
60 700 m 25
 360 700 l 25
 360 -150 l 25
 60 -150 l 1033
EndSplineSet
Fore
SplineSet
-4 665 m 1
 95 764 l 1
 395 764 l 1
 424 735 l 1
 424 -115 l 1
 325 -214 l 1
 25 -214 l 1
 -4 -185 l 1
 95 -86 l 1
 190 -86 l 1
 190 636 l 1
 25 636 l 1
 -4 665 l 1
230 -86 m 1
 296 -86 l 1
 296 636 l 1
 230 636 l 1
 230 -86 l 1
EndSplineSet
EndChar
StartChar: luslst
Encoding: 11788 11788 902
Width: 360
Flags: W
LayerCount: 2
Back
SplineSet
60 700 m 25
 300 450 l 1049
EndSplineSet
Fore
SplineSet
95 764 m 1
 124 735 l 1
 364 485 l 1
 265 386 l 1
 236 415 l 1
 -4 665 l 1
 95 764 l 1
EndSplineSet
EndChar
StartChar: rlslst
Encoding: 11804 11804 904
Width: 360
Flags: W
HStem: -214 21G<245 285>
LayerCount: 2
Back
SplineSet
60 100 m 25
 300 -150 l 1049
EndSplineSet
Fore
SplineSet
95 164 m 1
 124 135 l 1
 364 -115 l 1
 265 -214 l 1
 236 -185 l 1
 -4 65 l 1
 95 164 l 1
EndSplineSet
EndChar
StartChar: brackettopright
Encoding: 11811 11811 923
Width: 360
Flags: W
HStem: 636 128<95 176>
VStem: 176 128<335 636>
LayerCount: 2
Back
SplineSet
60 700 m 25
 240 700 l 17
 240 300 l 1025
EndSplineSet
Fore
SplineSet
-4 665 m 1
 95 764 l 1
 275 764 l 1
 304 735 l 1
 304 335 l 1
 205 236 l 1
 176 265 l 1
 176 636 l 1
 25 636 l 1
 -4 665 l 1
EndSplineSet
EndChar
StartChar: a_o
Encoding: 42805 42805 341
Width: 720
Flags: W
HStem: 444 20G<225 365 495 535> 444 20G<225 365 495 535>
VStem: 296 128<115 161 292 315> 536 128<155 288.207>
AnchorPoint: "blwmark" 360 0 basechar 0
AnchorPoint: "abvmark" 360 500 basechar 0
LayerCount: 2
Back
SplineSet
150 220 m 17
 120 310 l 1
 210 400 l 1
 360 375 l 1
 360 150 l 9
 210 0 l 1
 120 90 l 1
 120 160 l 1
 210 250 l 1
 210 250 232.928594192 225 300 225 c 3
 280.995781714 225 360 225 360 225 c 1033
480 400 m 25
 360 280 l 25
 360 120 l 25
 480 0 l 25
 600 120 l 25
 600 280 l 25
 480 400 l 25
EndSplineSet
Fore
SplineSet
101 170 m 1xb0
 86 185 l 1
 56 275 l 1
 245 464 l 1
 395 439 l 1
 424 410 l 1
 424 373 l 1
 515 464 l 1
 664 315 l 1
 664 155 l 1
 445 -64 l 1
 310 71 l 1
 175 -64 l 1
 56 55 l 1
 56 125 l 1
 101 170 l 1xb0
207 276 m 1
 245 314 l 1
 246 313 l 2
 249 310 263 298 296 292 c 1
 296 316 l 1
 188 334 l 1
 207 276 l 1
424 185 m 1
 424 155 l 2
 424 106 488 91 515 64 c 1
 536 85 l 1
 536 245 l 2
 536 294 472 309 445 336 c 1
 424 315 l 1
 424 185 l 1
296 115 m 1
 296 161 l 1
 264 161 l 2
 220 161 196 172 184 179 c 1
 184 125 l 1
 245 64 l 1
 296 115 l 1
EndSplineSet
LCarets2: 1 360 
Ligature2: "Historic ligatures-1" a o
EndChar
StartChar: a_u
Encoding: 42807 42807 344
Width: 720
Flags: W
HStem: 444 20G<225 365 575 615> 444 20G<225 365 575 615>
VStem: 296 128<125 161 292 316> 536 128<115 315>
AnchorPoint: "blwmark" 360 0 basechar 0
AnchorPoint: "abvmark" 360 500 basechar 0
LayerCount: 2
Back
SplineSet
360 150 m 9
 210 0 l 1
 120 90 l 1
 120 160 l 1
 210 250 l 1
 210 250 232.928594192 225 300 225 c 3
 280.995781714 225 360 225 360 225 c 1033
690 60 m 25
 630 0 l 1
 600 30 l 17
 600 360 l 1025
640 320 m 25
 560 400 l 1049
600 150 m 25
 450 0 l 25
 360 90 l 1
 360 375 l 17
 210 400 l 1
 120 310 l 1
 150 220 l 1033
EndSplineSet
Fore
SplineSet
725 124 m 1xb0
 754 95 l 1
 595 -64 l 1
 536 -5 l 1
 536 57 l 1
 415 -64 l 1
 296 55 l 1
 296 57 l 1
 175 -64 l 1
 56 55 l 1
 56 125 l 1
 101 170 l 1
 86 185 l 1
 56 275 l 1
 245 464 l 1
 395 439 l 1
 424 410 l 1
 424 260 l 1
 424 185 l 1
 424 125 l 1
 485 64 l 1
 536 115 l 1
 536 325 l 1
 496 365 l 1
 595 464 l 1
 635 424 l 1
 664 395 l 1
 704 355 l 1
 664 315 l 1
 664 185 l 1
 664 65 l 1
 665 64 l 1
 725 124 l 1xb0
296 292 m 1
 296 316 l 1
 188 334 l 1
 207 276 l 1
 245 314 l 1
 246 313 l 2
 249 310 262 298 296 292 c 1
296 115 m 1
 296 161 l 1
 281 161 266 161 265 161 c 0
 221 161 196 172 184 179 c 1
 184 125 l 1
 245 64 l 1
 296 115 l 1
EndSplineSet
LCarets2: 1 360 
Ligature2: "Historic ligatures-1" a u
EndChar
StartChar: lbroken
Encoding: 42823 42823 574
Width: 420
Flags: W
HStem: 444 20G<315 355> 444 20G<315 355>
VStem: 56 128<313 540> 236 128<85 307>
LayerCount: 2
Back
SplineSet
260 80 m 25
 340 0 l 25
 420 80 l 1049
80 625 m 25
 160 545 l 1049
120 585 m 1
 120 220 l 1
 300 400 l 1
 300 40 l 1025
EndSplineSet
Fore
SplineSet
16 590 m 1xb0
 115 689 l 1
 155 649 l 1
 184 620 l 1
 224 580 l 1
 184 540 l 1
 184 313 l 1
 335 464 l 1
 364 435 l 1
 364 75 l 1
 375 64 l 1
 455 144 l 1
 484 115 l 1
 305 -64 l 1
 265 -24 l 1
 236 5 l 1
 196 45 l 1
 236 85 l 1
 236 307 l 1
 85 156 l 1
 56 185 l 1
 56 550 l 1
 16 590 l 1xb0
EndSplineSet
EndChar
StartChar: lbar
Encoding: 42825 42825 865
Width: 240
Flags: W
VStem: 56 128<85 411 539 540>
AnchorPoint: "abvmark" 120 700 basechar 0
AnchorPoint: "blwmark" 120 0 basechar 0
LayerCount: 2
Back
SplineSet
80 80 m 25
 160 0 l 25
 240 80 l 1049
80 625 m 25
 160 545 l 1049
120 585 m 9
 120 40 l 1049
210 475 m 25
 30 475 l 1049
EndSplineSet
Fore
SplineSet
16 590 m 1
 115 689 l 1
 155 649 l 1
 184 620 l 1
 224 580 l 1
 184 540 l 1
 184 539 l 1
 245 539 l 1
 274 510 l 1
 184 420 l 1
 184 75 l 1
 195 64 l 1
 275 144 l 1
 304 115 l 1
 125 -64 l 1
 85 -24 l 1
 56 5 l 1
 16 45 l 1
 56 85 l 1
 56 411 l 1
 -5 411 l 1
 -34 440 l 1
 56 530 l 1
 56 550 l 1
 16 590 l 1
EndSplineSet
EndChar
StartChar: obiit
Encoding: 42827 42827 866
Width: 480
Flags: W
HStem: 161 128<184 274> 444 20G<255 295> 444 20G<255 295>
LayerCount: 2
Back
SplineSet
30 225 m 25
 450 225 l 1049
240 400 m 25
 120 280 l 25
 120 120 l 25
 240 0 l 25
 360 120 l 25
 360 280 l 25
 240 400 l 25
EndSplineSet
Fore
SplineSet
205 336 m 1x80
 184 315 l 1
 184 289 l 1
 274 289 l 1
 253 308 221 320 205 336 c 1x80
-34 190 m 1
 65 289 l 1
 100 289 l 1
 275 464 l 1xc0
 424 315 l 1
 424 289 l 1
 485 289 l 1
 514 260 l 1
 424 170 l 1
 424 155 l 1
 205 -64 l 1
 56 85 l 1
 56 161 l 1
 -5 161 l 1
 -34 190 l 1
184 161 m 1
 184 155 l 2
 184 106 248 91 275 64 c 1
 296 85 l 1
 296 161 l 1
 184 161 l 1
EndSplineSet
EndChar
StartChar: o_o
Encoding: 42831 42831 669
Width: 720
Flags: W
HStem: 444 20G<255 295 495 535> 444 20G<255 295 495 535>
VStem: 56 128<111.793 245> 296 128<111.793 288.207> 536 128<155 288.207>
CounterMasks: 1 38
AnchorPoint: "blwmark" 360 0 basechar 0
AnchorPoint: "abvmark" 360 500 basechar 0
LayerCount: 2
Back
SplineSet
480 400 m 25
 360 280 l 25
 360 120 l 25
 480 0 l 25
 600 120 l 25
 600 280 l 25
 480 400 l 25
240 400 m 25
 120 280 l 25
 120 120 l 25
 240 0 l 25
 360 120 l 25
 360 280 l 25
 240 400 l 25
EndSplineSet
Fore
SplineSet
205 336 m 1x38
 184 315 l 1
 184 155 l 2
 184 106 248 91 275 64 c 1
 296 85 l 1
 296 245 l 2
 296 294 232 309 205 336 c 1x38
56 245 m 1
 275 464 l 1
 395 344 l 1
 515 464 l 1xb8
 664 315 l 1
 664 155 l 1
 445 -64 l 1
 325 56 l 1
 205 -64 l 1
 56 85 l 1
 56 245 l 1
424 155 m 2
 424 106 488 91 515 64 c 1
 536 85 l 1
 536 245 l 2
 536 294 472 309 445 336 c 1
 424 315 l 1
 424 155 l 2
EndSplineSet
LCarets2: 1 360 
Ligature2: "Historic ligatures-1" o o
EndChar
StartChar: pbar
Encoding: 42833 42833 868
Width: 480
Flags: W
HStem: -214 21G<65 105> 444 20G<95 135 255 295> 444 20G<95 135 255 295>
VStem: 56 128<-11 10 164 315> 296 128<114 288.207>
AnchorPoint: "abvmark" 240 500 basechar 0
LayerCount: 2
Back
SplineSet
60 50 m 1
 60 50 115 100 150 100 c 0
 247 100 300 0 300 0 c 9
 360 60 l 1
 360 280 l 25
 240 400 l 1
 120 280 l 1049
80 400 m 25
 160 320 l 1049
120 360 m 1
 120 -150 l 1025
240 -75 m 25
 30 -75 l 1049
EndSplineSet
Fore
SplineSet
304 -40 m 1xd8
 205 -139 l 1
 160 -139 l 1
 85 -214 l 1
 56 -185 l 1
 56 -139 l 1
 -5 -139 l 1
 -34 -110 l 1
 56 -20 l 1
 56 10 l 1
 38 -2 25 -14 25 -14 c 2
 -4 15 l 1
 56 75 l 1
 56 245 l 1
 56 325 l 1
 16 365 l 1
 115 464 l 1
 155 424 l 1
 184 395 l 1
 195 384 l 1
 275 464 l 1
 424 315 l 1
 424 95 l 1
 296 -32 l 1
 304 -40 l 1xd8
184 -11 m 1
 220 -11 l 2
 218 -8 216 -5 213 -2 c 0
 205 5 195 12 184 18 c 1
 184 -11 l 1
184 315 m 1
 184 164 l 2
 185 164 l 0
 233 164 271 138 296 114 c 1
 296 245 l 2
 296 294 232 309 205 336 c 1
 184 315 l 1
EndSplineSet
EndChar
StartChar: qbar
Encoding: 42839 42839 871
Width: 480
Flags: W
HStem: -214 21G<305 345> 444 20G<255 295 375 415> 444 20G<255 295 375 415>
VStem: 56 128<155 245> 296 128<-11 27 85 300>
AnchorPoint: "abvmark" 270 500 basechar 0
LayerCount: 2
Back
SplineSet
450 -75 m 25
 240 -75 l 1049
360 120 m 9
 240 0 l 25
 120 120 l 25
 120 280 l 25
 240 400 l 1
 240 400 264 352 300 352 c 24
 336 352 360 400 360 400 c 9
 360 -150 l 1049
EndSplineSet
Fore
SplineSet
296 85 m 1x98
 296 300 l 1
 287 293 277 288 265 288 c 0
 250 288 237 296 227 306 c 0
 226 307 l 2
 201 332 l 1
 184 315 l 1
 184 155 l 1
 275 64 l 1
 296 85 l 1x98
296 27 m 1
 205 -64 l 1
 56 85 l 1
 56 245 l 1
 275 464 l 1
 304 435 l 1
 304 435 307 430 311 423 c 0
 318 419 326 416 335 416 c 0
 340 416 346 418 350 419 c 2
 395 464 l 1xd8
 424 435 l 1
 424 -11 l 1
 485 -11 l 1
 514 -40 l 1
 415 -139 l 1
 400 -139 l 1
 325 -214 l 1
 296 -185 l 1
 296 -139 l 1
 205 -139 l 1
 176 -110 l 1
 275 -11 l 1
 296 -11 l 1
 296 27 l 1
EndSplineSet
EndChar
StartChar: qslash
Encoding: 42841 42841 872
Width: 480
Flags: W
HStem: -214 21G<155 195 305 345> 444 20G<255 295 375 415> 444 20G<255 295 375 415>
VStem: 56 128<155 245> 296 128<-115 -93 -35 27 93 300>
AnchorPoint: "abvmark" 270 500 basechar 0
LayerCount: 2
Back
SplineSet
360 120 m 9
 240 0 l 25
 120 120 l 25
 120 280 l 25
 240 400 l 1
 240 400 264 352 300 352 c 24
 336 352 360 400 360 400 c 9
 360 -150 l 1049
450 90 m 25
 210 -150 l 1049
EndSplineSet
Fore
SplineSet
485 154 m 1xd8
 514 125 l 1
 424 35 l 1
 424 -115 l 1
 325 -214 l 1
 296 -185 l 1
 296 -93 l 1
 175 -214 l 1
 146 -185 l 1
 296 -35 l 1
 296 27 l 1
 205 -64 l 1
 56 85 l 1
 56 245 l 1
 275 464 l 1
 304 435 l 1
 304 435 307 430 311 423 c 0
 318 419 326 416 335 416 c 0
 340 416 346 418 350 419 c 2
 395 464 l 1
 424 435 l 1
 424 93 l 1
 485 154 l 1xd8
296 85 m 1
 296 300 l 1
 287 293 277 288 265 288 c 0
 250 288 237 296 227 306 c 0
 226 307 l 2
 201 332 l 1
 184 315 l 1
 184 155 l 1
 275 64 l 1
 296 85 l 1
EndSplineSet
EndChar
StartChar: y_y
Encoding: 42849 42849 834
Width: 720
Flags: W
HStem: -264 128<381.653 529.952> -214 128<99 279.509> 444 20G<95 135 335 375 575 615> 444 20G<95 135 335 375 575 615>
VStem: 56 128<155 315> 296 128<155 315> 536 128<-115 27 85 315>
CounterMasks: 1 0e
AnchorPoint: "abvmark" 360 500 basechar 0
LayerCount: 2
Back
SplineSet
400 320 m 25
 320 400 l 1049
640 320 m 25
 560 400 l 1049
60 -200 m 17
 60 -200 104 -150 150 -150 c 8
 292 -150 368 -200 510 -200 c 24
 550 -200 600 -150 600 -150 c 1
 600 360 l 1025
600 120 m 9
 480 0 l 25
 360 120 l 1
 360 360 l 1049
160 320 m 25
 80 400 l 1049
360 120 m 9
 240 0 l 25
 120 120 l 1
 120 360 l 1049
EndSplineSet
Fore
SplineSet
25 -264 m 1x8e
 -4 -235 l 1
 -4 -235 -2 -232 1 -229 c 2
 100 -130 l 2
 113 -117 149 -86 185 -86 c 0x4e
 324 -86 400 -134 536 -136 c 1x8e
 536 27 l 1
 445 -64 l 1
 325 56 l 1
 205 -64 l 1
 56 85 l 1
 56 325 l 1
 16 365 l 1
 115 464 l 1
 155 424 l 1
 184 395 l 1
 224 355 l 1
 184 315 l 1
 184 155 l 1
 275 64 l 1
 296 85 l 1
 296 325 l 1
 256 365 l 1
 355 464 l 1
 395 424 l 1
 424 395 l 1
 464 355 l 1
 424 315 l 1
 424 155 l 1
 515 64 l 1
 536 85 l 1
 536 325 l 1
 496 365 l 1
 595 464 l 1
 635 424 l 1
 664 395 l 1
 704 355 l 1
 664 315 l 1
 664 155 l 1
 664 -115 l 1
 565 -214 l 1x6e
 565 -214 515 -264 475 -264 c 0x8e
 333 -264 257 -214 115 -214 c 0x4e
 83 -214 53 -238 36 -253 c 2
 25 -264 l 1x8e
EndSplineSet
LCarets2: 1 360 
Ligature2: "Historic ligatures-1" y y
EndChar
StartChar: zvisigoth
Encoding: 42851 42851 839
Width: 420
Flags: W
HStem: -214 128<39 148.5> 444 20G<255 295> 444 20G<255 295>
VStem: 236 128<-115 -59>
AnchorPoint: "abvmark" 240 500 basechar 0
LayerCount: 2
Back
SplineSet
360 280 m 9
 240 400 l 25
 120 280 l 1
 120 200 l 25
 240 150 l 25
 120 30 l 1
 300 0 l 1
 300 -150 l 1
 300 -150 244 -200 210 -200 c 0
 172 -200 141 -150 90 -150 c 16
 44 -150 0 -200 0 -200 c 1025
EndSplineSet
Fore
SplineSet
424 315 m 1xd0
 325 216 l 1
 205 336 l 1
 184 315 l 1
 184 252 l 1
 275 214 l 1
 304 185 l 1
 205 86 l 1
 335 64 l 1
 364 35 l 1
 364 -115 l 1
 265 -214 l 1
 265 -214 209 -264 175 -264 c 0
 137 -264 106 -214 55 -214 c 0
 23 -214 -8 -239 -24 -253 c 2
 -35 -264 l 1
 -64 -235 l 2
 -64 -235 -62 -233 -59 -230 c 2
 -59 -229 l 2
 40 -130 l 2
 53 -117 89 -86 125 -86 c 0
 172 -86 202 -128 236 -135 c 1
 236 -59 l 1
 85 -34 l 1
 56 -5 l 1
 164 103 l 1
 85 136 l 1
 56 165 l 1
 56 245 l 1
 275 464 l 1
 424 315 l 1xd0
EndSplineSet
EndChar
StartChar: thornbar
Encoding: 42853 42853 874
Width: 480
Flags: W
HStem: -214 21G<65 105> 444 20G<255 295> 444 20G<255 295>
VStem: 56 128<-115 -43 124 315 373 411 539 540> 296 128<155 288.207>
AnchorPoint: "abvmark" 240 700 basechar 0
LayerCount: 2
Back
SplineSet
60 0 m 1
 60 0 115 60 150 60 c 0
 185 60 240 0 240 0 c 9
 360 120 l 1
 360 280 l 25
 240 400 l 1
 120 280 l 1049
80 625 m 25
 160 545 l 1049
120 585 m 1
 120 -150 l 1025
240 475 m 25
 30 475 l 1049
EndSplineSet
Fore
SplineSet
304 510 m 1xd8
 205 411 l 1
 184 411 l 1
 184 373 l 1
 275 464 l 1
 424 315 l 1
 424 155 l 1
 205 -64 l 1
 189 -48 l 2
 187 -46 186 -45 184 -43 c 2
 184 -115 l 1
 85 -214 l 1
 56 -185 l 1
 56 -35 l 1
 50 -40 46 -44 41 -48 c 2
 25 -64 l 1
 -4 -35 l 1
 -4 -35 -2 -32 3 -27 c 2
 56 25 l 1
 56 245 l 1
 56 411 l 1
 -5 411 l 1
 -34 440 l 1
 56 530 l 1
 56 550 l 1
 16 590 l 1
 115 689 l 1
 155 649 l 1
 184 620 l 1
 224 580 l 1
 184 540 l 1
 184 539 l 1
 275 539 l 1
 304 510 l 1xd8
184 315 m 1
 184 124 l 2
 185 124 l 0
 212 124 252 88 268 72 c 2
 275 64 l 1
 296 85 l 1
 296 245 l 2
 296 294 232 309 205 336 c 1
 184 315 l 1
EndSplineSet
EndChar
StartChar: thornbarbelow
Encoding: 42855 42855 875
Width: 480
Flags: W
HStem: -214 21G<65 105> 444 20G<255 295> 444 20G<255 295>
VStem: 56 128<-11 10 164 315 373 540> 296 128<114 245>
AnchorPoint: "abvmark" 240 700 basechar 0
LayerCount: 2
Back
SplineSet
240 -75 m 25
 30 -75 l 1049
120 280 m 25
 240 400 l 1
 360 280 l 1
 360 60 l 1
 300 0 l 1
 300 0 247 100 150 100 c 0
 115 100 60 50 60 50 c 1025
80 625 m 25
 160 545 l 1049
120 585 m 1
 120 -150 l 1025
EndSplineSet
Fore
SplineSet
155 649 m 1xd8
 184 620 l 1
 224 580 l 1
 184 540 l 1
 184 373 l 1
 275 464 l 1
 424 315 l 1
 424 95 l 1
 296 -32 l 1
 304 -40 l 1
 205 -139 l 1
 160 -139 l 1
 85 -214 l 1
 56 -185 l 1
 56 -139 l 1
 -5 -139 l 1
 -34 -110 l 1
 56 -20 l 1
 56 10 l 1
 38 -2 25 -14 25 -14 c 2
 -4 15 l 1
 56 75 l 1
 56 245 l 1
 56 550 l 1
 16 590 l 1
 115 689 l 1
 155 649 l 1xd8
184 315 m 1
 184 164 l 2
 185 164 l 0
 233 164 271 139 296 114 c 1
 296 245 l 1
 205 336 l 1
 184 315 l 1
184 18 m 1
 184 -11 l 1
 220 -11 l 2
 218 -8 216 -5 213 -2 c 0
 204 5 194 12 184 18 c 1
EndSplineSet
EndChar
StartChar: vend
Encoding: 42857 42857 876
Width: 480
Flags: W
HStem: -214 21G<65 105> 444 20G<95 135 295 335> 444 20G<95 135 295 335>
VStem: 56 128<-115 -83 -25 45 103 315>
AnchorPoint: "abvmark" 240 500 basechar 0
LayerCount: 2
Back
SplineSet
60 -50 m 9
 360 250 l 1
 360 320 l 25
 280 400 l 1025
80 400 m 25
 160 320 l 1049
120 360 m 1
 120 -150 l 1025
EndSplineSet
Fore
SplineSet
16 365 m 1xd0
 115 464 l 1
 155 424 l 1
 184 395 l 1
 224 355 l 1
 184 315 l 1
 184 103 l 1
 296 215 l 1
 296 285 l 2
 296 312 260 321 245 336 c 2
 216 365 l 1
 315 464 l 1
 424 355 l 1
 424 285 l 1
 184 45 l 1
 184 -115 l 1
 85 -214 l 1
 56 -185 l 1
 56 -83 l 1
 25 -114 l 1
 -4 -85 l 1
 56 -25 l 1
 56 325 l 1
 16 365 l 1xd0
EndSplineSet
EndChar
StartChar: dum
Encoding: 42865 42865 448
Width: 720
Flags: W
HStem: -214 21G<305 346.667> -64 128<525.5 616> 444 20G<255 287> 444 20G<255 287> 486 128<186.134 276.504>
VStem: 56 128<111.793 245> 296 128<93 182 198 245>
AnchorPoint: "abvmark" 300 700 basechar 0
LayerCount: 2
Back
SplineSet
480 225 m 1
 540 200 l 1
 540 200 540 139 540 100 c 27
 540 3 360 -150 360 -150 c 1025
360 280 m 1
 240 400 l 25
 120 280 l 1
 120 120 l 25
 240 0 l 17
 360 120 l 1025
169 650 m 25
 180 670 120 633 120 600 c 27
 120 549 187 550 240 550 c 0
 293 550 360 510 360 450 c 18
 360 0 l 9
 420 60 l 17
 420 60 457 0 570 0 c 3
 637 0 660 50 660 50 c 1033
EndSplineSet
Fore
SplineSet
184 636 m 2xee
 184 635 l 0
 184 631 184 626 185 623 c 0
 209 614 245 614 275 614 c 0
 307 614 344 599 368 575 c 2
 397 546 l 2
 413 530 424 509 424 485 c 2
 424 315 l 1
 424 198 l 1
 515 289 l 1
 575 264 l 1
 604 235 l 1
 604 135 l 2
 604 114 596 90 582 65 c 1
 589 64 597 64 605 64 c 0
 627 64 645 70 658 77 c 1
 695 114 l 1
 724 85 l 1
 724 85 719 75 708 64 c 2
 609 -35 l 2
 595 -49 572 -64 535 -64 c 0
 516 -64 498 -62 483 -59 c 0
 481 -61 479 -64 477 -66 c 2
 378 -165 l 2
 377 -166 l 2
 347 -196 325 -214 325 -214 c 2
 296 -185 l 1
 395 -86 l 1
 407 -72 419 -56 430 -41 c 1
 414 -33 402 -23 395 -16 c 2
 384 -5 l 1
 325 -64 l 1
 296 -35 l 1
 296 27 l 1
 205 -64 l 1
 56 85 l 1
 56 245 l 1
 275 464 l 1
 287 452 l 2
 285 455 284 458 282 461 c 0
 259 477 230 486 205 486 c 0
 165 486 118 485 96 506 c 2
 96 507 l 2
 67 536 l 2
 60 543 56 552 56 565 c 0
 56 578 64 590 75 601 c 0
 76 602 l 2
 175 701 l 2
 188 714 202 722 205 719 c 2
 234 690 l 2
 235 689 234 688 233 685 c 2
 184 636 l 2xee
424 155 m 1
 424 93 l 1
 455 124 l 1
 476 103 l 1
 476 148 l 1
 445 161 l 1
 424 182 l 1
 424 155 l 1
296 85 m 1
 296 245 l 1
 205 336 l 1
 184 315 l 1
 184 155 l 2
 184 106 248 91 275 64 c 1
 296 85 l 1
EndSplineSet
EndChar
StartChar: mum
Encoding: 42867 42867 587
Width: 989
Flags: W
HStem: -214 21G<575 616.667> -64 128<795 886> 444 20G<95 135 285 325 525 565> 444 20G<95 135 285 325 525 565>
VStem: 56 128<85 285> 296 128<85 285> 536 128<85 309.438>
CounterMasks: 1 0e
LayerCount: 2
Back
SplineSet
600 40 m 1
 600 310 l 25
 510 400 l 1
 360 250 l 1041
320 80 m 9
 400 0 l 1041
360 40 m 1
 360 310 l 25
 270 400 l 1
 120 250 l 1041
80 80 m 9
 160 0 l 1041
160 320 m 9
 80 400 l 1041
120 360 m 9
 120 40 l 1025
750 225 m 1
 810 200 l 1
 810 200 810 139 810 100 c 27
 810 3 630 -150 630 -150 c 1025
930 50 m 17
 930 50 907 0 840 0 c 3
 727 0 700 60 700 60 c 9
 640 0 l 25
 560 80 l 1025
EndSplineSet
Fore
SplineSet
965 114 m 1xee
 994 85 l 1
 994 85 989 75 978 64 c 2
 879 -35 l 2
 865 -49 841 -64 805 -64 c 0
 785 -64 768 -62 753 -59 c 0
 751 -61 749 -64 747 -66 c 2
 648 -165 l 1
 647 -166 l 2
 617 -196 595 -214 595 -214 c 2
 566 -185 l 1
 665 -86 l 1
 678 -71 691 -56 702 -40 c 1
 692 -34 684 -28 679 -22 c 2
 663 -6 l 1
 605 -64 l 1
 565 -24 l 1
 536 5 l 1
 496 45 l 1
 536 85 l 1
 536 275 l 2
 536 308 493 318 475 336 c 1
 424 285 l 1
 424 75 l 1
 464 35 l 1
 365 -64 l 1
 325 -24 l 1
 296 5 l 1
 256 45 l 1
 296 85 l 1
 296 215 l 1
 296 275 l 2
 296 308 253 318 235 336 c 1
 184 285 l 1
 184 75 l 1
 224 35 l 1
 125 -64 l 1
 85 -24 l 1
 56 5 l 1
 16 45 l 1
 56 85 l 1
 56 215 l 1
 56 325 l 1
 16 365 l 1
 115 464 l 1
 155 424 l 1
 184 395 l 1
 210 369 l 1
 305 464 l 1
 424 345 l 1
 424 343 l 1
 545 464 l 1
 664 345 l 1
 664 75 l 1
 675 64 l 1
 735 124 l 1
 746 113 l 1
 746 148 l 1
 715 161 l 1
 686 190 l 1
 785 289 l 1
 845 264 l 1
 874 235 l 1
 874 135 l 2
 874 114 866 90 852 65 c 1
 859 64 867 64 875 64 c 0
 897 64 914 69 928 77 c 1
 965 114 l 1xee
EndSplineSet
EndChar
StartChar: rum
Encoding: 42869 42869 704
Width: 540
Flags: W
HStem: -214 21G<125 168.889> 444 20G<95 135 495 535> 444 20G<95 135 315 383 495 535>
VStem: 56 128<85 315> 296 128<124.633 295.807 446 448>
LayerCount: 2
Back
SplineSet
300 525 m 1
 360 500 l 1
 360 500 360 406 360 250 c 3
 360 -37.5015230616 180 -150 180 -150 c 1025
480 400 m 17
 480 400 457 350 390 350 c 3
 277 350 240 400 240 400 c 9
 120 280 l 1025
80 80 m 25
 160 0 l 1049
80 400 m 25
 160 320 l 1049
120 360 m 9
 120 40 l 1025
EndSplineSet
Fore
SplineSet
16 365 m 1xd8
 115 464 l 1
 155 424 l 1
 184 395 l 1
 195 384 l 1
 270 459 l 1
 265 461 l 1
 236 490 l 1
 335 589 l 1
 395 564 l 1
 424 535 l 1
 424 414 l 2
 425 414 l 0
 447 414 464 419 478 427 c 1
 515 464 l 1
 544 435 l 1
 544 435 539 425 528 414 c 2
 429 315 l 2
 427 314 426 311 424 310 c 2
 424 285 l 2
 424 89 340 -25 287 -78 c 2
 188 -177 l 2
 188 -178 l 2
 163 -203 145 -214 145 -214 c 2
 116 -185 l 1
 200 -101 l 1
 246 -38 296 65 296 215 c 2
 296 291 l 1
 244 301 218 322 209 331 c 2
 205 336 l 1
 184 315 l 1
 184 75 l 1
 224 35 l 1
 125 -64 l 1
 85 -24 l 1
 56 5 l 1
 16 45 l 1
 56 85 l 1
 56 245 l 1
 56 325 l 1
 16 365 l 1xd8
289 451 m 2
 291 449 293 448 296 446 c 2
 296 448 l 1
 289 451 l 2
EndSplineSet
EndChar
StartChar: thornbar_longs
Encoding: 59189 59189 885
Width: 480
Flags: W
HStem: -214 128<-111 -14> 444 20G<255 295> 444 20G<255 295> 526 21G<310 339> 586 68<391.109 416>
VStem: 86 128<-115 -55 100.48 216 275 328 403 411> 296 128<155 287.402>
LayerCount: 2
Back
SplineSet
240 475 m 25
 30 475 l 1049
-150 -200 m 17
 -150 -200 -106 -150 -60 -150 c 8
 -35 -150 33 -200 60 -200 c 24
 86 -200 150 -150 150 -150 c 1
 150 530 l 1
 270 650 l 17
 270 650 300 590 360 590 c 24
 388 590 450 650 451 650 c 1033
60 0 m 1
 60 0 115 60 150 60 c 0
 185 60 240 0 240 0 c 9
 360 120 l 1
 360 280 l 25
 240 400 l 1
 120 280 l 1049
EndSplineSet
Fore
SplineSet
25 -64 m 1xde
 -4 -35 l 1
 -4 -35 -2 -32 3 -27 c 2
 86 55 l 1
 86 217 l 1
 85 216 l 1
 56 245 l 1
 86 275 l 1
 86 411 l 1
 -5 411 l 1
 -34 440 l 1
 65 539 l 1
 130 539 l 1
 305 714 l 1
 334 685 l 1
 334 685 337 679 343 671 c 0
 357 661 374 654 395 654 c 0
 423 654 485 714 486 714 c 2
 515 685 l 1
 416 586 l 2
 415 586 353 526 325 526 c 0
 295 526 273 541 258 556 c 0
 257 556 l 2
 231 582 l 1
 214 565 l 1
 214 539 l 1
 275 539 l 1
 304 510 l 1
 214 420 l 1
 214 403 l 1
 275 464 l 1
 424 315 l 1
 424 155 l 1
 214 -55 l 1
 214 -115 l 1
 115 -214 l 1
 115 -214 51 -264 25 -264 c 0
 -2 -264 -70 -214 -95 -214 c 0
 -127 -214 -157 -238 -174 -253 c 2
 -185 -264 l 1
 -214 -235 l 1
 -214 -235 -212 -232 -209 -229 c 2
 -110 -130 l 2
 -97 -117 -61 -86 -25 -86 c 0
 -3 -86 56 -127 86 -135 c 1
 86 -13 l 1
 69 -22 53 -37 41 -48 c 2
 25 -64 l 1xde
214 115 m 1
 235 103 257 83 268 72 c 2
 275 64 l 1
 296 85 l 1
 296 245 l 2
 296 289 244 306 214 328 c 1
 214 115 l 1
EndSplineSet
LCarets2: 1 240 
Ligature2: "Historic ligatures-1" thornbar longs
EndChar
StartChar: q_etfin
Encoding: 59583 59583 966
Width: 720
Flags: W
HStem: 444 20G<255 295 375 415 465 515> 444 20G<255 295 375 415 465 515>
VStem: 56 128<155 245> 296 128<-65 27 153 300>
LayerCount: 2
Back
SplineSet
360 120 m 9
 240 0 l 25
 120 120 l 25
 120 280 l 25
 240 400 l 1
 240 400 264 352 300 352 c 24
 336 352 360 400 360 400 c 9
 360 -150 l 1049
360 310 m 25
 450 400 l 1
 600 300 l 1
 420 120 l 1
 600 100 l 1
 600 40 l 1
 300 -200 l 1025
EndSplineSet
Fore
SplineSet
296 27 m 1xb0
 205 -64 l 1
 56 85 l 1
 56 245 l 1
 275 464 l 1
 304 435 l 1
 304 435 307 430 311 423 c 0
 318 419 326 416 335 416 c 0
 340 416 346 418 350 419 c 2
 395 464 l 1
 424 435 l 1
 424 403 l 1
 485 464 l 1
 635 364 l 1
 664 335 l 1
 507 178 l 1
 635 164 l 1
 664 135 l 1
 664 75 l 1
 565 -24 l 1
 265 -264 l 1
 236 -235 l 1
 296 -175 l 1
 296 27 l 1xb0
296 275 m 1
 296 300 l 1
 287 293 277 288 265 288 c 0
 250 288 237 296 227 306 c 0
 226 307 l 2
 201 332 l 1
 184 315 l 1
 184 155 l 1
 275 64 l 1
 296 85 l 1
 296 275 l 1
424 -65 m 1
 536 25 l 1
 536 39 l 1
 424 52 l 1
 424 -65 l 1
424 153 m 1
 530 259 l 1
 424 330 l 1
 424 153 l 1
EndSplineSet
LCarets2: 1 360 
Ligature2: "Ligatures-1" q etfin
EndChar
StartChar: longs_h
Encoding: 60321 60321 707
Width: 780
Flags: W
HStem: -214 128<-111 -1> 444 20G<585 625> 444 20G<585 625>
VStem: 86 128<-115 495> 356 128<85 285 343 539.609> 596 128<85 309.438>
LayerCount: 2
Back
SplineSet
620 80 m 25
 700 0 l 1049
380 80 m 25
 460 0 l 1049
660 40 m 25
 660 310 l 25
 570 400 l 1
 420 250 l 1049
-150 -200 m 17
 -150 -200 -106 -150 -60 -150 c 8
 -9 -150 9 -200 60 -200 c 24
 100 -200 150 -150 150 -150 c 1
 150 530 l 1
 270 650 l 1
 270 650 304 600 420 600 c 9
 420 40 l 1025
EndSplineSet
Fore
SplineSet
-185 -264 m 1xdc
 -214 -235 l 1
 -214 -235 -212 -232 -209 -229 c 2
 -110 -130 l 2
 -97 -117 -61 -86 -25 -86 c 0
 23 -86 43 -130 86 -135 c 1
 86 495 l 1
 305 714 l 1
 317 702 l 2
 336 687 377 664 455 664 c 1
 484 635 l 1
 484 343 l 1
 605 464 l 1
 724 345 l 1
 724 75 l 1
 764 35 l 1
 665 -64 l 1
 625 -24 l 1
 596 5 l 1
 556 45 l 1
 596 85 l 1
 596 275 l 2
 596 308 553 318 535 336 c 1
 484 285 l 1
 484 75 l 1
 524 35 l 1
 425 -64 l 1
 385 -24 l 1
 356 5 l 1
 316 45 l 1
 356 85 l 1
 356 215 l 1
 356 537 l 1
 286 543 252 568 240 580 c 2
 235 586 l 1
 214 565 l 1
 214 -115 l 1
 115 -214 l 1
 115 -214 65 -264 25 -264 c 0
 -26 -264 -44 -214 -95 -214 c 0
 -127 -214 -157 -238 -174 -253 c 2
 -185 -264 l 1xdc
EndSplineSet
LCarets2: 1 360 
Ligature2: "Ligatures-1" longs h
EndChar
StartChar: longs_i
Encoding: 60322 60322 328
Width: 540
GlyphClass: 3
Flags: W
HStem: -214 128<-111 -1> 444 20G<395 435> 444 20G<395 435> 466 21G<355 395>
VStem: 86 128<-115 495> 356 128<85 315>
LayerCount: 2
Back
SplineSet
420 360 m 9
 420 40 l 1025
380 80 m 25
 460 0 l 25
 540 80 l 1049
380 400 m 25
 460 320 l 1025
-150 -200 m 1
 -150 -200 -106 -150 -60 -150 c 8
 -9 -150 9 -200 60 -200 c 24
 100 -200 150 -150 150 -150 c 1
 150 530 l 1
 270 650 l 1
 270 650 330 610 490 610 c 9
 410 530 l 1025
EndSplineSet
Fore
SplineSet
-185 -264 m 1x9c
 -214 -235 l 1
 -214 -235 -212 -232 -209 -229 c 2
 -110 -130 l 2
 -97 -117 -61 -86 -25 -86 c 0
 23 -86 43 -130 86 -135 c 1
 86 495 l 1
 305 714 l 1
 305 714 365 674 525 674 c 1
 554 645 l 1
 375 466 l 1
 346 495 l 1
 399 548 l 1
 281 556 235 586 235 586 c 1
 214 565 l 1
 214 -115 l 1
 115 -214 l 1
 115 -214 65 -264 25 -264 c 0
 -26 -264 -44 -214 -95 -214 c 0
 -127 -214 -157 -238 -174 -253 c 2
 -185 -264 l 1x9c
316 365 m 1
 415 464 l 1xdc
 455 424 l 1
 484 395 l 1
 524 355 l 1
 484 315 l 1
 484 75 l 1
 495 64 l 1
 575 144 l 1
 604 115 l 1
 425 -64 l 1
 356 5 l 1
 316 45 l 1
 356 85 l 1
 356 325 l 1
 316 365 l 1
EndSplineSet
LCarets2: 1 360 
Ligature2: "Ligatures-1" longs i
EndChar
StartChar: longs_l
Encoding: 60323 60323 330
Width: 540
GlyphClass: 3
Flags: W
HStem: -214 128<-111 -7.5>
VStem: 86 128<-115 495> 356 128<85 540>
LayerCount: 2
Back
SplineSet
-150 -200 m 17
 -150 -200 -106 -150 -60 -150 c 8
 -22 -150 21 -200 60 -200 c 24
 93 -200 150 -150 150 -150 c 1
 150 530 l 1
 270 650 l 1
 270 650 284 625 380 625 c 9
 460 545 l 1025
380 80 m 25
 460 0 l 25
 540 80 l 1049
420 585 m 9
 420 40 l 1049
EndSplineSet
Fore
SplineSet
-185 -264 m 1
 -214 -235 l 1
 -214 -235 -212 -232 -209 -229 c 2
 -110 -130 l 2
 -97 -117 -61 -86 -25 -86 c 0
 10 -86 50 -129 86 -135 c 1
 86 495 l 1
 305 714 l 1
 310 709 l 2
 320 702 346 689 415 689 c 1
 455 649 l 1
 484 620 l 1
 524 580 l 1
 484 540 l 1
 484 75 l 1
 495 64 l 1
 575 144 l 1
 604 115 l 1
 425 -64 l 1
 356 5 l 1
 316 45 l 1
 356 85 l 1
 356 550 l 1
 345 561 l 1
 267 561 243 578 237 584 c 2
 235 586 l 1
 214 565 l 1
 214 -115 l 1
 115 -214 l 1
 115 -214 58 -264 25 -264 c 0
 -14 -264 -57 -214 -95 -214 c 0
 -127 -214 -157 -238 -174 -253 c 2
 -185 -264 l 1
EndSplineSet
LCarets2: 1 360 
Ligature2: "Ligatures-1" longs l
EndChar
StartChar: longs_p
Encoding: 60325 60325 709
Width: 780
Flags: W
HStem: -214 128<-111 -1> 444 20G<555 595> 444 20G<555 595>
VStem: 86 128<-115 495> 356 128<-115 -51 102.844 315> 596 128<155 288.207>
LayerCount: 2
Back
SplineSet
300 0 m 1
 300 0 355 60 390 60 c 11
 454 60 540 0 540 0 c 9
 660 120 l 1
 660 280 l 25
 540 400 l 1
 420 280 l 1049
420 370 m 1
 420 -150 l 1025
-150 -200 m 17
 -150 -200 -106 -150 -60 -150 c 8
 -9 -150 9 -200 60 -200 c 24
 100 -200 150 -150 150 -150 c 1
 150 530 l 1
 270 650 l 17
 270 650 324 590 480 590 c 3
 522 590 571 650 571 650 c 9
 360 430 l 9
 450 340 l 1025
EndSplineSet
Fore
SplineSet
605 653 m 1xdc
 424 465 l 2
 423 464 438 448 454 433 c 1
 455 434 l 1
 484 405 l 1
 485 404 l 2
 500 389 l 1
 575 464 l 1
 724 315 l 1
 724 155 l 1
 505 -64 l 1
 505 -64 497 -59 484 -51 c 1
 484 -115 l 1
 385 -214 l 1
 356 -185 l 1
 356 -4 l 2
 355 -4 l 0
 332 -4 300 -30 281 -48 c 2
 265 -64 l 1
 236 -35 l 1
 236 -35 238 -32 243 -27 c 2
 342 72 l 2
 343 72 l 0
 347 76 351 80 356 85 c 1
 356 245 l 1
 356 335 l 1
 296 395 l 1
 422 526 l 1
 294 531 243 578 236 585 c 2
 235 586 l 1
 214 565 l 1
 214 -115 l 1
 115 -214 l 1
 115 -214 65 -264 25 -264 c 0
 -26 -264 -44 -214 -95 -214 c 0
 -127 -214 -157 -238 -174 -253 c 2
 -185 -264 l 1
 -214 -235 l 1
 -214 -235 -212 -232 -209 -229 c 2
 -110 -130 l 2
 -97 -117 -61 -86 -25 -86 c 0
 23 -86 43 -130 86 -135 c 1
 86 495 l 1
 305 714 l 1
 307 712 l 2
 318 702 376 654 515 654 c 0
 535 654 558 669 575 683 c 2
 606 714 l 1
 635 685 l 2
 635 685 629 678 620 669 c 2
 605 653 l 1xdc
484 315 m 1
 484 112 l 1
 532 94 575 64 575 64 c 1
 575 64 594 83 596 85 c 2
 596 245 l 2
 596 294 532 309 505 336 c 1
 484 315 l 1
EndSplineSet
LCarets2: 1 360 
Ligature2: "Ligatures-1" longs p
EndChar
StartChar: h_longs
Encoding: 60333 60333 515
Width: 509
Flags: W
HStem: -214 128<-111 -14> 444 20G<315 355> 444 20G<315 355> 526 21G<310 339> 586 68<391.109 416>
VStem: 86 128<-115 285 343 495> 326 128<85 309.438>
LayerCount: 2
Back
SplineSet
350 80 m 25
 430 0 l 1049
390 40 m 25
 390 310 l 25
 300 400 l 1
 150 250 l 1049
-150 -200 m 17
 -150 -200 -106 -150 -60 -150 c 8
 -35 -150 33 -200 60 -200 c 24
 86 -200 150 -150 150 -150 c 1
 150 530 l 1
 270 650 l 17
 270 650 300 590 360 590 c 24
 388 590 450 650 451 650 c 1033
EndSplineSet
Fore
SplineSet
-185 -264 m 1xde
 -214 -235 l 1
 -214 -235 -212 -232 -209 -229 c 2
 -110 -130 l 2
 -97 -117 -61 -86 -25 -86 c 0
 -3 -86 56 -127 86 -135 c 1
 86 215 l 1
 86 495 l 1
 305 714 l 1
 334 685 l 1
 334 685 337 679 343 671 c 0
 357 661 374 654 395 654 c 0
 423 654 485 714 486 714 c 2
 515 685 l 1
 416 586 l 2
 415 586 353 526 325 526 c 0
 295 526 273 541 258 556 c 0
 257 556 l 2
 231 582 l 1
 214 565 l 1
 214 343 l 1
 335 464 l 1
 454 345 l 1
 454 75 l 1
 494 35 l 1
 395 -64 l 1
 355 -24 l 1
 326 5 l 1
 286 45 l 1
 326 85 l 1
 326 275 l 2
 326 308 283 318 265 336 c 1
 214 285 l 1
 214 -115 l 1
 115 -214 l 1
 115 -214 51 -264 25 -264 c 0
 -2 -264 -70 -214 -95 -214 c 0
 -127 -214 -157 -238 -174 -253 c 2
 -185 -264 l 1xde
EndSplineSet
LCarets2: 1 270 
Ligature2: "Historic ligatures-1" h longs
EndChar
StartChar: b_g
Encoding: 61123 61123 350
Width: 480
GlyphClass: 3
Flags: W
HStem: -214 128<99 196> 444 20G<255 295> 444 20G<255 295>
VStem: 56 128<111.793 315 373 540> 296 128<-115 27 85 288.207>
LayerCount: 2
Back
SplineSet
120 585 m 9
 120 120 l 25
 240 0 l 1
 360 120 l 25
 360 280 l 1
 240 400 l 1
 120 280 l 1049
60 -200 m 17
 60 -200 104 -150 150 -150 c 8
 175 -150 243 -200 270 -200 c 24
 296 -200 360 -150 360 -150 c 1
 360 120 l 1033
80 625 m 25
 160 545 l 1049
EndSplineSet
Fore
SplineSet
16 590 m 1xd8
 115 689 l 1
 155 649 l 1
 184 620 l 1
 224 580 l 1
 184 540 l 1
 184 373 l 1
 275 464 l 1
 424 315 l 1
 424 155 l 1
 424 -115 l 1
 325 -214 l 1
 325 -214 261 -264 235 -264 c 0
 208 -264 140 -214 115 -214 c 0
 83 -214 53 -238 36 -253 c 2
 25 -264 l 1
 -4 -235 l 1
 -4 -235 -2 -232 1 -229 c 2
 100 -130 l 2
 113 -117 149 -86 185 -86 c 0
 207 -86 266 -127 296 -135 c 1
 296 27 l 1
 205 -64 l 1
 56 85 l 1
 56 550 l 1
 16 590 l 1xd8
184 315 m 1
 184 155 l 2
 184 106 248 91 275 64 c 1
 296 85 l 1
 296 245 l 2
 296 294 232 309 205 336 c 1
 184 315 l 1
EndSplineSet
LCarets2: 1 240 
Ligature2: "Historic ligatures-1" b g
EndChar
StartChar: c_t
Encoding: 61125 61125 335
Width: 809
Flags: W
HStem: 286 128<350.166 506> 444 20G<251 367.4 697.381 775> 464 130G<251 367.4 585 625 697.381 775> 594 20G<585 625>
VStem: 56 128<155 265> 506 128<70.7805 288 422 515>
LayerCount: 2
Back
SplineSet
360 120 m 9
 240 0 l 25
 120 120 l 25
 120 300 l 1
 240 400 l 17
 240 400 324.968994112 350 480 350 c 3
 664 350 720 400 720 400 c 1033
570 550 m 1
 570 60 l 1
 630 0 l 1
 750 120 l 1025
EndSplineSet
Fore
SplineSet
605 614 m 1xdc
 634 585 l 1
 634 422 l 1
 724 436 755 464 755 464 c 1
 784 435 l 1
 685 336 l 1
 685 336 671 324 634 311 c 1
 634 95 l 2
 634 79 656 73 665 64 c 1
 785 184 l 1
 814 155 l 1
 595 -64 l 1
 506 25 l 1
 506 288 l 1
 487 287 467 286 445 286 c 0
 290 286 205 336 205 336 c 1
 184 319 l 1
 184 155 l 1
 275 64 l 1
 395 184 l 1
 424 155 l 1
 205 -64 l 1
 56 85 l 1
 56 265 l 1
 155 364 l 1
 275 464 l 1
 275 464 357 416 506 414 c 1
 506 515 l 1
 605 614 l 1xdc
EndSplineSet
LCarets2: 1 420 
Ligature2: "Ligatures-1" c t
EndChar
StartChar: e_y
Encoding: 61127 61127 351
Width: 720
GlyphClass: 3
Flags: W
HStem: -214 128<339 442.5> 444 20G<255 305 575 615> 444 20G<255 305 575 615>
VStem: 56 128<173 245> 296 128<155 227> 536 128<-115 27 85 315>
CounterMasks: 1 1c
LayerCount: 2
Back
SplineSet
360 120 m 1033,0,0
640 320 m 25,0,0
 560 400 l 1049,0,0
300 -200 m 17,0,0
 300 -200 344 -150 390 -150 c 8,0,0
 428 -150 471 -200 510 -200 c 24,0,0
 543 -200 600 -150 600 -150 c 1,0,0
 600 360 l 1025,0,0
600 120 m 9,0,0
 480 0 l 25,0,0
 360 120 l 1,0,0
 360 320 l 1049,0,0
360 120 m 9,0,0
 240 0 l 25,0,0
 120 80 l 25,0,0
 120 280 l 25,0,0
 240 400 l 25,0,0
 360 320 l 1,0,0
 120 80 l 1025,0,0
EndSplineSet
Fore
SplineSet
184 173 m 1x9c
 290 279 l 1
 205 336 l 1
 184 315 l 1
 184 173 l 1x9c
190 121 m 1
 275 64 l 1
 296 85 l 1
 296 227 l 1
 190 121 l 1
265 -264 m 1
 236 -235 l 1
 236 -235 238 -232 241 -229 c 2
 340 -130 l 2
 353 -117 389 -86 425 -86 c 0
 460 -86 500 -129 536 -135 c 1
 536 27 l 1
 445 -64 l 1
 325 56 l 1
 205 -64 l 1
 85 16 l 1
 56 45 l 1
 56 245 l 1
 275 464 l 1
 395 384 l 1
 424 355 l 1
 424 155 l 1
 515 64 l 1
 536 85 l 1
 536 325 l 1
 496 365 l 1
 595 464 l 1xdc
 635 424 l 1
 664 395 l 1
 704 355 l 1
 664 315 l 1
 664 155 l 1
 664 -115 l 1
 565 -214 l 1
 565 -214 508 -264 475 -264 c 0
 436 -264 393 -214 355 -214 c 0
 323 -214 293 -238 276 -253 c 2
 265 -264 l 1
EndSplineSet
LCarets2: 1 360 
Ligature2: "Historic ligatures-1" e y
EndChar
StartChar: f_f_y
Encoding: 61135 61135 355
Width: 1020
GlyphClass: 3
Flags: W
HStem: -214 128<-104.997 -22.6721 645.003 734.449> 336 128<214 326 454 585> 444 20G<875 915> 526 21G<550 579> 586 68<631.109 656>
VStem: 86 128<-99.9958 336 464 495> 326 128<-115 336 464 492.89> 596 128<155 315> 836 128<-115 27 85 315>
LayerCount: 2
Back
SplineSet
940 320 m 25
 860 400 l 1049
600 -200 m 17
 600 -200 644 -150 690 -150 c 8
 728 -150 771 -200 810 -200 c 24
 843 -200 900 -150 900 -150 c 1
 900 360 l 1025
900 120 m 9
 780 0 l 25
 660 120 l 1
 660 360 l 1049
150 -150 m 1
 187 -150 262 -200 300 -200 c 0
 334 -200 390 -150 390 -150 c 1
 390 530 l 1
 510 650 l 17
 510 650 540 590 600 590 c 24
 628 590 690 650 691 650 c 1025
-150 -200 m 1
 -150 -200 -106 -150 -60 -150 c 8
 -35 -150 33 -200 60 -200 c 24
 86 -200 150 -150 150 -150 c 1
 150 530 l 1
 270 650 l 1
 270 650 337 530 390 530 c 1025
60 400 m 1
 620 400 l 25
 700 320 l 1025
EndSplineSet
Fore
SplineSet
-185 -264 m 1xdf80
 -214 -235 l 1
 -214 -235 -212 -232 -209 -229 c 2
 -110 -130 l 2
 -97 -117 -61 -86 -25 -86 c 0
 -3 -86 56 -127 86 -135 c 1
 86 336 l 1
 25 336 l 1
 -4 365 l 1
 86 455 l 1
 86 495 l 1
 305 714 l 1
 334 685 l 1
 334 685 356 645 384 612 c 0
 398 601 412 594 425 594 c 1
 545 714 l 1
 574 685 l 1
 574 685 577 679 583 671 c 0
 597 661 614 654 635 654 c 0
 663 654 725 714 726 714 c 2
 755 685 l 1
 656 586 l 2
 655 586 593 526 565 526 c 0
 535 526 513 541 498 556 c 2
 471 582 l 1
 454 565 l 1
 454 464 l 1xdf80
 655 464 l 1
 695 424 l 1
 724 395 l 1
 764 355 l 1
 724 315 l 1
 724 155 l 1
 815 64 l 1
 836 85 l 1
 836 325 l 1
 796 365 l 1
 895 464 l 1xbf80
 935 424 l 1
 964 395 l 1
 1004 355 l 1
 964 315 l 1
 964 155 l 1
 964 -115 l 1
 865 -214 l 1
 865 -214 808 -264 775 -264 c 0
 736 -264 693 -214 655 -214 c 0
 623 -214 593 -238 576 -253 c 2
 565 -264 l 1
 536 -235 l 1
 536 -235 538 -232 541 -229 c 2
 640 -130 l 2
 653 -117 689 -86 725 -86 c 0
 760 -86 800 -129 836 -135 c 1
 836 27 l 1
 745 -64 l 1
 596 85 l 1
 596 325 l 1
 585 336 l 1
 454 336 l 1
 454 -115 l 1
 355 -214 l 1
 355 -214 299 -264 265 -264 c 0
 227 -264 152 -214 115 -214 c 1
 115 -214 51 -264 25 -264 c 0
 -2 -264 -70 -214 -95 -214 c 0
 -127 -214 -157 -238 -174 -253 c 2
 -185 -264 l 1xdf80
214 464 m 1
 326 464 l 1
 326 476 l 1
 317 481 308 489 300 497 c 2
 271 526 l 2
 255 542 240 562 228 579 c 1
 214 565 l 1
 214 464 l 1
214 336 m 1
 214 -92 l 1
 250 -104 296 -130 326 -135 c 1
 326 336 l 1
 214 336 l 1
EndSplineSet
LCarets2: 2 360 600 
Ligature2: "Ligatures-1" f f y
EndChar
StartChar: f_t_y
Encoding: 61136 61136 356
Width: 1020
GlyphClass: 3
Flags: W
HStem: -214 128<-111 -14 639 742.5> 336 128<214 326 454 585> 444 20G<875 915>
VStem: 86 128<-115 336 464 495> 326 128<70.7805 336 464 508.625> 596 128<175 315> 836 128<-115 27 85 315>
LayerCount: 2
Back
SplineSet
940 320 m 25
 860 400 l 1049
600 -200 m 17
 600 -200 644 -150 690 -150 c 8
 728 -150 771 -200 810 -200 c 24
 843 -200 900 -150 900 -150 c 1
 900 360 l 1025
900 120 m 9
 780 0 l 25
 660 120 l 1
 660 360 l 1049
-150 -200 m 1
 -150 -200 -106 -150 -60 -150 c 8
 -35 -150 33 -200 60 -200 c 24
 86 -200 150 -150 150 -150 c 1
 150 530 l 1
 270 650 l 1
 270 650 337 550 390 550 c 1
 390 60 l 1
 450 0 l 1
 570 120 l 1025
60 400 m 1
 620 400 l 25
 700 320 l 1025
EndSplineSet
Fore
SplineSet
-185 -264 m 1xde
 -214 -235 l 1
 -214 -235 -212 -232 -209 -229 c 2
 -110 -130 l 2
 -97 -117 -61 -86 -25 -86 c 0
 -3 -86 56 -127 86 -135 c 1
 86 336 l 1
 25 336 l 1
 -4 365 l 1
 86 455 l 1
 86 495 l 1
 305 714 l 1
 334 685 l 1
 334 685 348 665 367 643 c 0
 386 627 406 614 425 614 c 1
 454 585 l 1
 454 464 l 1xde
 655 464 l 1
 695 424 l 1
 724 395 l 1
 764 355 l 1
 724 315 l 1
 724 155 l 1
 815 64 l 1
 836 85 l 1
 836 325 l 1
 796 365 l 1
 895 464 l 1xbe
 935 424 l 1
 964 395 l 1
 1004 355 l 1
 964 315 l 1
 964 155 l 1
 964 -115 l 1
 865 -214 l 1
 865 -214 808 -264 775 -264 c 0
 736 -264 693 -214 655 -214 c 0
 623 -214 593 -238 576 -253 c 2
 565 -264 l 1
 536 -235 l 1
 536 -235 538 -232 541 -229 c 2
 640 -130 l 2
 653 -117 689 -86 725 -86 c 0
 760 -86 800 -129 836 -135 c 1
 836 27 l 1
 745 -64 l 1
 596 85 l 1
 596 117 l 1
 415 -64 l 1
 326 25 l 1
 326 336 l 1
 214 336 l 1
 214 -115 l 1
 115 -214 l 1
 115 -214 51 -264 25 -264 c 0
 -2 -264 -70 -214 -95 -214 c 0
 -127 -214 -157 -238 -174 -253 c 2
 -185 -264 l 1xde
214 464 m 1
 326 464 l 1
 326 494 l 1
 312 502 297 514 284 527 c 0
 283 528 l 2
 254 557 l 2
 246 565 238 573 231 582 c 1
 214 565 l 1
 214 464 l 1
454 336 m 1
 454 95 l 2
 454 79 476 73 485 64 c 1
 596 175 l 1
 596 325 l 1
 585 336 l 1
 454 336 l 1
EndSplineSet
LCarets2: 2 360 600 
Ligature2: "Ligatures-1" f t y
EndChar
StartChar: pfluorish_p
Encoding: 61143 61143 879
Width: 840
Flags: W
HStem: -214 21G<-25 15 185 225 425 465> 444 20G<215 255 375 415 615 655> 444 20G<215 255 375 415 615 655>
VStem: 26 128<-74.9001 18.9648> 176 128<-115 -45 157 315> 416 128<-115 -43 111.001 245> 656 128<155 245>
LayerCount: 2
Back
SplineSet
480 -150 m 1
 480 280 l 9
 600 400 l 1
 720 280 l 25
 720 120 l 1
 600 0 l 1
 600 0 559 60 450 60 c 0
 415 60 360 0 360 0 c 1
 360 0 278 100 30 100 c 1
 30 100 90 44 90 0 c 3
 90 -132 30 -150 30 -150 c 1033
480 280 m 25
 360 400 l 1
 240 280 l 1049
200 400 m 25
 280 320 l 1049
240 360 m 1
 240 -150 l 1025
EndSplineSet
Fore
SplineSet
275 424 m 1xde
 304 395 l 1
 315 384 l 1
 395 464 l 1
 515 344 l 1
 635 464 l 1
 784 315 l 1
 784 155 l 1
 565 -64 l 1
 545 -44 l 2
 544 -43 l 2
 544 -115 l 1
 445 -214 l 1
 416 -185 l 1
 416 -4 l 2
 415 -4 l 0
 391 -4 359 -31 341 -48 c 2
 325 -64 l 1
 316 -55 l 2
 313 -52 309 -49 304 -45 c 1
 304 -115 l 1
 205 -214 l 1
 176 -185 l 1
 176 14 l 1
 169 16 162 18 154 20 c 1
 151 -51 130 -85 114 -101 c 2
 15 -200 l 2
 4 -211 -5 -214 -5 -214 c 1
 -34 -185 l 1
 3 -148 l 1
 15 -126 26 -90 26 -35 c 0
 26 -7 2 26 -16 46 c 0
 -20 50 -23 54 -26 57 c 2
 -34 65 l 1
 65 164 l 1
 80 164 94 164 108 163 c 0
 132 162 155 160 176 157 c 1
 176 245 l 1
 176 325 l 1
 136 365 l 1
 235 464 l 1
 275 424 l 1xde
544 117 m 1
 552 115 559 113 566 111 c 0
 597 100 616 84 626 74 c 2
 636 65 l 1
 656 85 l 1
 656 245 l 1
 565 336 l 1
 544 315 l 1
 544 117 l 1
304 315 m 1
 304 123 l 1
 354 102 381 78 391 68 c 2
 395 64 l 1
 402 72 l 2
 406 76 411 80 416 85 c 1
 416 245 l 1
 325 336 l 1
 304 315 l 1
EndSplineSet
LCarets2: 1 480 
Ligature2: "Ligatures-1" pflourish p
EndChar
StartChar: t_r
Encoding: 61144 61144 729
Width: 600
Flags: W
HStem: 336 128<214 285> 594 20G<165 205> 594 20G<165 205 495 535>
VStem: 86 128<70.7805 336 464 515> 296 128<115 315>
LayerCount: 2
Back
SplineSet
540 340 m 25
 480 400 l 25
 360 280 l 1049
320 80 m 25
 400 0 l 1049
360 360 m 9
 360 40 l 1025
150 550 m 1
 150 60 l 1
 210 0 l 1
 330 120 l 1025
60 400 m 1
 320 400 l 25
 400 320 l 1025
EndSplineSet
Fore
SplineSet
185 614 m 1xd8
 214 585 l 1
 214 464 l 1
 355 464 l 1
 395 424 l 1
 424 395 l 1
 435 384 l 1
 515 464 l 1
 604 375 l 1
 505 276 l 1
 445 336 l 1
 424 315 l 1
 424 75 l 1
 464 35 l 1
 365 -64 l 1
 325 -24 l 1
 296 5 l 1
 270 31 l 1
 175 -64 l 1
 86 25 l 1
 86 336 l 1
 25 336 l 1
 -4 365 l 1
 86 455 l 1
 86 515 l 1
 185 614 l 1xd8
214 336 m 1
 214 95 l 2
 214 79 236 73 245 64 c 1
 296 115 l 1
 296 245 l 1
 296 325 l 1
 285 336 l 1
 214 336 l 1
EndSplineSet
LCarets2: 1 360 
Ligature2: "Ligatures-1" t r
EndChar
StartChar: t_z
Encoding: 61148 61148 732
Width: 660
Flags: W
HStem: -214 128<279 388.5> 286 128<215.128 394.023> 444 20G<443 535> 594 20G<165 205> 594 20G<165 205 443 535>
VStem: 86 128<70.7805 287 455 515> 476 128<-115 52>
LayerCount: 2
Back
SplineSet
60 400 m 1
 60 400 91 350 300 350 c 0
 427 350 480 400 480 400 c 1
 540 340 l 1
 360 200 l 1
 540 100 l 1
 540 -150 l 1
 540 -150 484 -200 450 -200 c 0
 412 -200 381 -150 330 -150 c 16
 284 -150 240 -200 240 -200 c 1033
150 550 m 1
 150 60 l 1
 210 0 l 1
 330 120 l 1025
EndSplineSet
Fore
SplineSet
185 614 m 1xf6
 214 585 l 1
 214 421 l 1
 246 417 285 414 335 414 c 0
 462 414 515 464 515 464 c 1
 604 375 l 1
 505 276 l 1
 450 233 l 1
 575 164 l 1
 604 135 l 1
 604 -115 l 1
 505 -214 l 1
 505 -214 449 -264 415 -264 c 0
 377 -264 346 -214 295 -214 c 0
 263 -214 232 -239 216 -253 c 2
 205 -264 l 1
 176 -235 l 2
 176 -235 178 -233 181 -230 c 2
 181 -229 l 2
 280 -130 l 2
 293 -117 329 -86 365 -86 c 0
 412 -86 442 -128 476 -135 c 1
 476 52 l 1
 357 118 l 1
 175 -64 l 1
 86 25 l 1
 86 305 l 1
 49 315 34 327 28 333 c 2
 -1 362 l 2
 -4 365 l 1
 86 455 l 1
 86 515 l 1
 185 614 l 1xf6
214 287 m 1
 214 95 l 2
 214 79 236 73 245 64 c 1
 321 140 l 1
 296 165 l 1
 395 264 l 1
 464 317 l 1
 445 336 l 1
 445 336 392 286 265 286 c 0
 247 286 230 286 214 287 c 1
EndSplineSet
LCarets2: 1 360 
Ligature2: "Ligatures-1" t z
EndChar
StartChar: a_l
Encoding: 61350 61350 339
Width: 480
GlyphClass: 3
Flags: W
HStem: 444 20G<225 296> 444 20G<225 296>
VStem: 296 128<115 161 292 316 455 540>
LayerCount: 2
Back
SplineSet
150 220 m 17
 120 310 l 1
 210 400 l 1
 360 375 l 1
 360 150 l 9
 210 0 l 1
 120 90 l 1
 120 160 l 1
 210 250 l 1
 210 250 232.928594192 225 300 225 c 3
 280.995781714 225 360 225 360 225 c 1033
320 80 m 25
 400 0 l 25
 480 80 l 1049
320 625 m 25
 400 545 l 1049
360 585 m 9
 360 40 l 1049
EndSplineSet
Fore
SplineSet
256 590 m 1xa0
 355 689 l 1
 395 649 l 1
 424 620 l 1
 464 580 l 1
 424 540 l 1
 424 410 l 1
 424 185 l 1
 424 75 l 1
 435 64 l 1
 515 144 l 1
 544 115 l 1
 365 -64 l 1
 325 -24 l 1
 296 5 l 1
 270 31 l 1
 175 -64 l 1
 56 55 l 1
 56 125 l 1
 101 170 l 1
 86 185 l 1
 56 275 l 1
 245 464 l 1
 296 455 l 1
 296 550 l 1
 256 590 l 1xa0
207 276 m 1
 245 314 l 1
 246 313 l 2
 249 310 263 298 296 292 c 1
 296 316 l 1
 188 334 l 1
 207 276 l 1
296 115 m 1
 296 161 l 1
 264 161 l 2
 220 161 196 172 184 179 c 1
 184 125 l 1
 245 64 l 1
 296 115 l 1
EndSplineSet
LCarets2: 1 240 
Ligature2: "Historic ligatures-1" a l
EndChar
StartChar: a_n
Encoding: 61351 61351 340
Width: 720
GlyphClass: 3
Flags: W
HStem: 444 20G<225 365 525 565> 444 20G<225 365 525 565>
VStem: 536 128<85 309.438>
LayerCount: 2
Back
SplineSet
150 220 m 17
 120 310 l 1
 210 400 l 1
 360 375 l 1
 360 150 l 9
 210 0 l 1
 120 90 l 1
 120 160 l 1
 210 250 l 1
 210 250 232.928594192 225 300 225 c 3
 280.995781714 225 360 225 360 225 c 1033
560 80 m 25
 640 0 l 1049
600 40 m 1
 600 310 l 25
 510 400 l 1
 360 250 l 1049
320 80 m 25
 400 0 l 1049
360 40 m 1
 360 375 l 1041
EndSplineSet
Fore
SplineSet
565 -24 m 1xa0
 536 5 l 1
 496 45 l 1
 536 85 l 1
 536 275 l 2
 536 308 493 318 475 336 c 1
 424 285 l 1
 424 185 l 1
 424 75 l 1
 464 35 l 1
 365 -64 l 1
 325 -24 l 1
 296 5 l 1
 270 31 l 1
 175 -64 l 1
 56 55 l 1
 56 125 l 1
 101 170 l 1
 86 185 l 1
 56 275 l 1
 245 464 l 1
 395 439 l 1
 424 410 l 1
 424 343 l 1
 545 464 l 1
 664 345 l 1
 664 75 l 1
 704 35 l 1
 605 -64 l 1
 565 -24 l 1xa0
207 276 m 1
 245 314 l 1
 246 313 l 2
 249 310 263 298 296 292 c 1
 296 316 l 1
 188 334 l 1
 207 276 l 1
296 115 m 1
 296 161 l 1
 264 161 l 2
 220 161 196 172 184 179 c 1
 184 125 l 1
 245 64 l 1
 296 115 l 1
EndSplineSet
LCarets2: 1 360 
Ligature2: "Historic ligatures-1" a n
EndChar
StartChar: a_p
Encoding: 61353 61353 342
Width: 720
GlyphClass: 3
Flags: W
HStem: -214 21G<305 345> 444 20G<225 365 495 535> 444 20G<225 365 495 535>
VStem: 296 128<-115 -43 124 161 292 315> 536 128<155 288.207>
LayerCount: 2
Back
SplineSet
150 220 m 17
 120 310 l 1
 210 400 l 1
 360 375 l 1
 360 150 l 9
 210 0 l 1
 120 90 l 1
 120 160 l 1
 210 250 l 1
 210 250 232.928594192 225 300 225 c 3
 280.995781714 225 360 225 360 225 c 1033
300 0 m 1
 300 0 355 60 390 60 c 0
 425 60 480 0 480 0 c 9
 600 120 l 1
 600 280 l 25
 480 400 l 1
 360 280 l 1049
360 -150 m 1
 360 375 l 1025
EndSplineSet
Fore
SplineSet
325 -214 m 1xd8
 296 -185 l 1
 296 -35 l 1
 290 -40 286 -44 281 -48 c 2
 265 -64 l 1
 236 -35 l 1
 236 -35 238 -32 243 -27 c 2
 296 25 l 1
 296 57 l 1
 175 -64 l 1
 56 55 l 1
 56 125 l 1
 101 170 l 1
 86 185 l 1
 56 275 l 1
 245 464 l 1
 395 439 l 1
 424 410 l 1
 424 373 l 1
 515 464 l 1
 664 315 l 1
 664 155 l 1
 445 -64 l 1
 429 -48 l 2
 427 -46 426 -45 424 -43 c 2
 424 -115 l 1
 325 -214 l 1xd8
207 276 m 1
 245 314 l 1
 246 313 l 2
 249 310 263 298 296 292 c 1
 296 316 l 1
 188 334 l 1
 207 276 l 1
424 124 m 2
 425 124 l 0
 452 124 492 88 508 72 c 2
 515 64 l 1
 536 85 l 1
 536 245 l 2
 536 294 472 309 445 336 c 1
 424 315 l 1
 424 185 l 1
 424 124 l 2
296 115 m 1
 296 161 l 1
 264 161 l 2
 220 161 196 172 184 179 c 1
 184 125 l 1
 245 64 l 1
 296 115 l 1
EndSplineSet
LCarets2: 1 360 
Ligature2: "Historic ligatures-1" a p
EndChar
StartChar: c_h
Encoding: 61883 61883 853
Width: 780
Flags: W
HStem: 444 20G<255 295 585 625> 444 20G<255 295 585 625>
VStem: 56 128<111.793 245> 356 128<85 87 145 247 383 540> 596 128<85 309.438>
LayerCount: 2
Back
SplineSet
360 280 m 9
 240 400 l 25
 120 280 l 25
 120 120 l 25
 240 0 l 25
 360 120 l 1041
620 80 m 25
 700 0 l 1049
380 80 m 25
 460 0 l 1049
380 625 m 25
 460 545 l 1049
420 585 m 9
 420 40 l 1049
660 40 m 25
 660 310 l 25
 570 400 l 1
 420 250 l 1049
EndSplineSet
Fore
SplineSet
316 590 m 1xb8
 415 689 l 1
 455 649 l 1
 484 620 l 1
 524 580 l 1
 484 540 l 1
 484 343 l 1
 605 464 l 1
 724 345 l 1
 724 75 l 1
 764 35 l 1
 665 -64 l 1
 625 -24 l 1
 596 5 l 1
 556 45 l 1
 596 85 l 1
 596 275 l 2
 596 308 553 318 535 336 c 1
 484 285 l 1
 484 75 l 1
 524 35 l 1
 425 -64 l 1
 385 -24 l 1
 356 5 l 1
 316 45 l 1
 356 85 l 1
 356 87 l 1
 205 -64 l 1
 56 85 l 1
 56 245 l 1
 275 464 l 1
 356 383 l 1
 356 550 l 1
 316 590 l 1xb8
356 215 m 1
 356 247 l 1
 325 216 l 1
 205 336 l 1
 184 315 l 1
 184 155 l 2
 184 106 248 91 275 64 c 1
 356 145 l 1
 356 215 l 1
EndSplineSet
LCarets2: 1 360 
Ligature2: "Ligatures-1" c h
EndChar
StartChar: h.alt
Encoding: 62010 62010 860
Width: 480
Flags: W
HStem: 444 20G<285 325> 444 20G<285 325>
VStem: 56 128<85 285 343 540> 296 128<-55 275>
AnchorPoint: "abvmark" 240 700 basechar 0
LayerCount: 2
Back
SplineSet
80 80 m 9
 160 0 l 1041
80 625 m 9
 160 545 l 1041
120 585 m 9
 120 40 l 1041
120 250 m 9
 270 400 l 1
 360 310 l 1
 360 -90 l 17
 280 -170 l 1025
EndSplineSet
Fore
SplineSet
16 590 m 1xb0
 115 689 l 1
 155 649 l 1
 184 620 l 1
 224 580 l 1
 184 540 l 1
 184 343 l 1
 305 464 l 1
 424 345 l 1
 424 -55 l 1
 245 -234 l 1
 216 -205 l 1
 296 -125 l 1
 296 275 l 1
 235 336 l 1
 184 285 l 1
 184 75 l 1
 224 35 l 1
 125 -64 l 1
 85 -24 l 1
 56 5 l 1
 16 45 l 1
 56 85 l 1
 56 215 l 1
 56 550 l 1
 16 590 l 1xb0
EndSplineSet
EndChar
StartChar: longs_s
Encoding: 62717 62717 710
Width: 720
Flags: W
HStem: -214 128<-111 -14> -4 128<340 440> 276 128<520 619> 444 20G<495 535 665 715> 444 20G<495 535 665 715> 526 21G<310 339> 586 68<391.109 416>
VStem: 86 128<-115 495>
LayerCount: 2
Back
SplineSet
-150 -200 m 17
 -150 -200 -106 -150 -60 -150 c 8
 -35 -150 33 -200 60 -200 c 24
 86 -200 150 -150 150 -150 c 1
 150 530 l 1
 270 650 l 17
 270 650 300 590 360 590 c 24
 388 590 450 650 451 650 c 1033
660 400 m 17
 660 400 598 340 570 340 c 24
 510 340 480 400 480 400 c 9
 360 280 l 1
 360 240 l 1
 600 160 l 1
 600 120 l 1
 480 0 l 17
 480 0 420 60 390 60 c 24
 360 60 300 0 300 0 c 1025
EndSplineSet
Fore
SplineSet
724 435 m 1xf7
 625 336 l 1
 625 336 563 276 535 276 c 0
 505 276 482 291 467 306 c 2
 441 332 l 1
 424 315 l 1
 424 294 l 1
 635 224 l 1
 664 195 l 1
 664 155 l 1
 445 -64 l 1
 445 -64 385 -4 355 -4 c 0
 325 -4 265 -64 265 -64 c 1
 236 -35 l 1
 335 64 l 1
 335 64 395 124 425 124 c 0
 455 124 515 64 515 64 c 1
 536 85 l 1
 536 106 l 1
 325 176 l 1
 296 205 l 1
 296 245 l 1
 515 464 l 1
 544 435 l 1
 544 435 547 429 553 421 c 0
 566 412 584 404 605 404 c 0
 633 404 695 464 695 464 c 1
 724 435 l 1xf7
-185 -264 m 1
 -214 -235 l 1
 -214 -235 -212 -232 -209 -229 c 2
 -110 -130 l 2
 -97 -117 -61 -86 -25 -86 c 0
 -3 -86 56 -127 86 -135 c 1
 86 495 l 1
 305 714 l 1
 334 685 l 1
 334 685 337 679 343 671 c 0
 357 661 374 654 395 654 c 0
 423 654 485 714 486 714 c 2
 515 685 l 1
 416 586 l 2
 415 586 353 526 325 526 c 0
 295 526 273 541 258 556 c 0
 257 556 l 2
 231 582 l 1
 214 565 l 1
 214 -115 l 1
 115 -214 l 1
 115 -214 51 -264 25 -264 c 0
 -2 -264 -70 -214 -95 -214 c 0
 -127 -214 -157 -238 -174 -253 c 2
 -185 -264 l 1
EndSplineSet
LCarets2: 1 360 
Ligature2: "Ligatures-1" longs s
EndChar
StartChar: longs_longs_k
Encoding: 62718 62718 711
Width: 1020
Flags: W
HStem: -214 128<-111 -14> 469 20G<875 915>
VStem: 86 128<-99.9958 495> 326 128<-115 492.89> 596 128<85 198 282 540.011> 836 128<85 154>
LayerCount: 2
Back
SplineSet
860 425 m 25
 940 345 l 1049
660 200 m 1
 900 350 l 9
 900 385 l 1049
780 275 m 1
 900 200 l 1
 900 40 l 1025
860 80 m 25
 940 0 l 1049
620 80 m 25
 700 0 l 1049
660 40 m 1
 660 600 l 1
 559 600 510 650 510 650 c 9
 390 530 l 1
 390 -150 l 1
 390 -150 334 -200 300 -200 c 0
 262 -200 187 -150 150 -150 c 1025
-150 -200 m 17
 -150 -200 -106 -150 -60 -150 c 8
 -35 -150 33 -200 60 -200 c 24
 86 -200 150 -150 150 -150 c 1
 150 530 l 1
 270 650 l 1
 270 650 337 530 390 530 c 1025
EndSplineSet
Fore
SplineSet
-185 -264 m 1
 -214 -235 l 1
 -214 -235 -212 -232 -209 -229 c 2
 -110 -130 l 2
 -97 -117 -61 -86 -25 -86 c 0
 -3 -86 56 -127 86 -135 c 1
 86 495 l 1
 305 714 l 1
 334 685 l 1
 334 685 356 645 384 612 c 0
 398 601 412 594 425 594 c 1
 545 714 l 1
 548 711 597 664 695 664 c 1
 724 635 l 1
 724 282 l 1
 815 339 l 1
 835 351 l 1
 796 390 l 1
 895 489 l 1
 964 420 l 1
 1004 380 l 1
 906 282 l 1
 935 264 l 1
 964 235 l 1
 964 75 l 1
 1004 35 l 1
 905 -64 l 1
 865 -24 l 1
 836 5 l 1
 796 45 l 1
 836 85 l 1
 836 154 l 1
 745 211 l 1
 724 198 l 1
 724 75 l 1
 764 35 l 1
 665 -64 l 1
 625 -24 l 1
 596 5 l 1
 556 45 l 1
 596 85 l 1
 596 165 l 1
 596 537 l 1
 516 545 477 584 475 586 c 0
 475 586 456 567 454 565 c 2
 454 -115 l 1
 355 -214 l 1
 355 -214 299 -264 265 -264 c 0
 227 -264 152 -214 115 -214 c 1
 115 -214 51 -264 25 -264 c 0
 -2 -264 -70 -214 -95 -214 c 0
 -127 -214 -157 -238 -174 -253 c 2
 -185 -264 l 1
326 476 m 1
 317 481 308 489 300 497 c 2
 271 526 l 2
 255 542 240 562 228 579 c 1
 214 565 l 1
 214 -92 l 1
 249 -104 296 -130 326 -135 c 1
 326 476 l 1
878 299 m 1
 900 286 l 1
 882 304 l 1
 878 299 l 1
EndSplineSet
LCarets2: 2 360 600 
Ligature2: "Ligatures-1" longs longs k
EndChar
StartChar: f_l
Encoding: 64258 64258 323
Width: 540
Flags: W
HStem: -214 128<-111 -7.5> 336 128<214 325>
VStem: 86 128<-115 336 464 495> 356 128<85 367 464 540>
LayerCount: 2
Back
SplineSet
-150 -200 m 17
 -150 -200 -106 -150 -60 -150 c 8
 -22 -150 21 -200 60 -200 c 24
 93 -200 150 -150 150 -150 c 1
 150 530 l 1
 270 650 l 1
 270 650 284 625 380 625 c 9
 460 545 l 1025
60 400 m 25
 360 400 l 1049
380 80 m 25
 460 0 l 25
 540 80 l 1049
420 585 m 9
 420 40 l 1049
EndSplineSet
Fore
SplineSet
-185 -264 m 1
 -214 -235 l 1
 -214 -235 -212 -232 -209 -229 c 2
 -110 -130 l 2
 -97 -117 -61 -86 -25 -86 c 0
 10 -86 50 -129 86 -135 c 1
 86 336 l 1
 25 336 l 1
 -4 365 l 1
 86 455 l 1
 86 495 l 1
 305 714 l 1
 310 709 l 2
 320 702 346 689 415 689 c 1
 455 649 l 1
 484 620 l 1
 524 580 l 1
 484 540 l 1
 484 75 l 1
 495 64 l 1
 575 144 l 1
 604 115 l 1
 425 -64 l 1
 356 5 l 1
 316 45 l 1
 356 85 l 1
 356 367 l 1
 325 336 l 1
 214 336 l 1
 214 -115 l 1
 115 -214 l 1
 115 -214 58 -264 25 -264 c 0
 -14 -264 -57 -214 -95 -214 c 0
 -127 -214 -157 -238 -174 -253 c 2
 -185 -264 l 1
356 464 m 1
 356 550 l 1
 345 561 l 1
 267 561 243 578 237 584 c 2
 235 586 l 1
 214 565 l 1
 214 464 l 1
 356 464 l 1
EndSplineSet
LCarets2: 1 360 
Ligature2: "Ligatures-1" f l
EndChar
StartChar: longs_t
Encoding: 64261 64261 333
Width: 629
Flags: W
HStem: -214 128<-111 -14>
VStem: 86 128<-115 495> 326 128<70.7805 336 464 508.625>
LayerCount: 2
Back
SplineSet
-150 -200 m 17
 -150 -200 -106 -150 -60 -150 c 8
 -35 -150 33 -200 60 -200 c 24
 86 -200 150 -150 150 -150 c 1
 150 530 l 1
 270 650 l 1
 270 650 337 550 390 550 c 1
 390 60 l 1
 450 0 l 1
 570 120 l 1025
300 400 m 25
 540 400 l 1049
EndSplineSet
Fore
SplineSet
-185 -264 m 1
 -214 -235 l 1
 -214 -235 -212 -232 -209 -229 c 2
 -110 -130 l 2
 -97 -117 -61 -86 -25 -86 c 0
 -3 -86 56 -127 86 -135 c 1
 86 495 l 1
 305 714 l 1
 334 685 l 1
 334 685 348 665 367 643 c 0
 386 627 406 614 425 614 c 1
 454 585 l 1
 454 464 l 1
 575 464 l 1
 604 435 l 1
 505 336 l 1
 454 336 l 1
 454 95 l 2
 454 79 476 73 485 64 c 1
 605 184 l 1
 634 155 l 1
 415 -64 l 1
 326 25 l 1
 326 336 l 1
 265 336 l 1
 236 365 l 1
 326 455 l 1
 326 494 l 1
 312 502 297 514 284 527 c 0
 283 528 l 2
 254 557 l 2
 246 565 238 573 231 582 c 1
 214 565 l 1
 214 -115 l 1
 115 -214 l 1
 115 -214 51 -264 25 -264 c 0
 -2 -264 -70 -214 -95 -214 c 0
 -127 -214 -157 -238 -174 -253 c 2
 -185 -264 l 1
EndSplineSet
LCarets2: 1 360 
Ligature2: "Ligatures-1" longs t
EndChar
StartChar: v.alt
Encoding: 65540 -1 782
Width: 480
Flags: W
HStem: 444 20G<95 135 295 335> 444 20G<95 135 295 335>
VStem: 56 128<155 315> 296 128<155 285>
AnchorPoint: "abvmark" 240 500 basechar 0
AnchorPoint: "blwmark" 240 0 basechar 0
LayerCount: 2
Back
SplineSet
280 400 m 1
 360 320 l 25
 360 120 l 1
 240 0 l 25
 120 120 l 1
 120 360 l 1049
160 320 m 25
 80 400 l 1049
EndSplineSet
Fore
SplineSet
216 365 m 1xb0
 315 464 l 1
 424 355 l 1
 424 155 l 1
 205 -64 l 1
 56 85 l 1
 56 325 l 1
 16 365 l 1
 115 464 l 1
 155 424 l 1
 184 395 l 1
 224 355 l 1
 184 315 l 1
 184 155 l 1
 275 64 l 1
 296 85 l 1
 296 285 l 1
 216 365 l 1xb0
EndSplineSet
EndChar
StartChar: w.alt
Encoding: 65542 -1 784
Width: 720
Flags: W
HStem: 444 20G<95 135 335 375 535 575> 444 20G<95 135 335 375 535 575>
VStem: 56 128<111.793 315> 296 128<111.793 315> 536 128<155 316.389>
CounterMasks: 1 38
AnchorPoint: "abvmark" 360 500 basechar 0
AnchorPoint: "blwmark" 360 0 basechar 0
LayerCount: 2
Back
SplineSet
400 320 m 25
 320 400 l 1049
360 360 m 25
 360 120 l 1
 480 0 l 25
 600 120 l 1
 600 320 l 25
 520 400 l 1049
160 320 m 25
 80 400 l 1049
120 360 m 25
 120 120 l 1
 240 0 l 25
 360 120 l 1025
EndSplineSet
Fore
SplineSet
184 395 m 1xb8
 224 355 l 1
 184 315 l 1
 184 155 l 2
 184 106 248 91 275 64 c 1
 296 85 l 1
 296 325 l 1
 256 365 l 1
 355 464 l 1
 395 424 l 1
 424 395 l 1
 464 355 l 1
 424 315 l 1
 424 155 l 2
 424 106 488 91 515 64 c 1
 536 85 l 1
 536 285 l 2
 536 312 500 321 485 336 c 2
 456 365 l 1
 555 464 l 1
 664 355 l 1
 664 155 l 1
 445 -64 l 1
 325 56 l 1
 205 -64 l 1
 56 85 l 1
 56 325 l 1
 16 365 l 1
 115 464 l 1
 155 424 l 1
 184 395 l 1xb8
EndSplineSet
EndChar
